SplineFontDB: 3.0
FontName: JosefinSlab
FullName: Josefin Slab
FamilyName: Josefin Slab
Weight: Book
Copyright: Copyright (c) 2010 by Typemade. All rights reserved.
Version: 1.000
ItalicAngle: 0
UnderlinePosition: -50
UnderlineWidth: 50
Ascent: 750
Descent: 250
sfntRevision: 0x00010000
LayerCount: 2
Layer: 0 1 "Back"  1
Layer: 1 1 "Fore"  0
XUID: [1021 480 1043172110 16543099]
FSType: 0
OS2Version: 3
OS2_WeightWidthSlopeOnly: 0
OS2_UseTypoMetrics: 1
CreationTime: 1296715350
ModificationTime: 1296716120
PfmFamily: 17
TTFWeight: 400
TTFWidth: 5
LineGap: 0
VLineGap: 0
Panose: 2 0 0 0 0 0 0 0 0 0
OS2TypoAscent: 0
OS2TypoAOffset: 1
OS2TypoDescent: 0
OS2TypoDOffset: 1
OS2TypoLinegap: 0
OS2WinAscent: -181
OS2WinAOffset: 1
OS2WinDescent: 0
OS2WinDOffset: 1
HheadAscent: -181
HheadAOffset: 1
HheadDescent: 0
HheadDOffset: 1
OS2SubXSize: 700
OS2SubYSize: 650
OS2SubXOff: 0
OS2SubYOff: 140
OS2SupXSize: 700
OS2SupYSize: 650
OS2SupXOff: 0
OS2SupYOff: 477
OS2StrikeYSize: 50
OS2StrikeYPos: 250
OS2Vendor: 'PYRS'
OS2CodePages: 00000111.00000000
OS2UnicodeRanges: 80000027.00000000.00000000.00000000
DEI: 91125
TtTable: prep
PUSHW_1
 0
CALL
SVTCA[y-axis]
PUSHW_3
 1
 1
 2
CALL
SVTCA[x-axis]
PUSHW_3
 2
 1
 2
CALL
SVTCA[x-axis]
PUSHW_8
 2
 138
 113
 88
 63
 38
 0
 8
CALL
SVTCA[y-axis]
PUSHW_8
 1
 138
 113
 88
 63
 38
 0
 8
CALL
SVTCA[y-axis]
PUSHW_3
 3
 6
 7
CALL
PUSHW_1
 0
DUP
RCVT
RDTG
ROUND[Black]
RTG
WCVTP
PUSHW_3
 15
 7
 1
DELTAC1
PUSHW_3
 95
 7
 1
DELTAC1
PUSHW_3
 143
 7
 1
DELTAC1
PUSHW_3
 15
 7
 1
DELTAC2
PUSHW_3
 95
 7
 1
DELTAC2
PUSHW_3
 223
 7
 1
DELTAC2
PUSHW_3
 255
 7
 1
DELTAC2
PUSHW_3
 15
 7
 1
DELTAC3
PUSHW_3
 223
 9
 1
DELTAC1
PUSHW_3
 127
 9
 1
DELTAC2
PUSHW_3
 191
 9
 1
DELTAC2
PUSHW_3
 239
 9
 1
DELTAC2
PUSHW_3
 255
 9
 1
DELTAC2
PUSHW_3
 31
 9
 1
DELTAC3
PUSHW_3
 47
 9
 1
DELTAC3
PUSHW_3
 95
 9
 1
DELTAC3
PUSHW_3
 143
 9
 1
DELTAC3
PUSHW_3
 159
 9
 1
DELTAC3
PUSHW_3
 47
 11
 1
DELTAC1
PUSHW_3
 111
 11
 1
DELTAC1
PUSHW_3
 47
 13
 1
DELTAC1
PUSHW_3
 79
 13
 1
DELTAC1

StartChar: exclam
Encoding: 33 33 4
Width: 201
Flags: W
LayerCount: 2
Fore
SplineSet
100 22 m 256,0,1
 88 22 88 22 78 31.5 c 128,-1,2
 68 41 68 41 68 55 c 256,3,4
 68 69 68 69 78 78.5 c 128,-1,5
 88 88 88 88 100 88 c 256,6,7
 112 88 112 88 122 78.5 c 128,-1,8
 132 69 132 69 132 55 c 256,9,10
 132 41 132 41 122 31.5 c 128,-1,11
 112 22 112 22 100 22 c 256,0,1
79 750 m 1,12,-1
 121 750 l 1,13,-1
 121 166 l 1,14,-1
 79 166 l 1,15,-1
 79 750 l 1,12,-1
EndSplineSet
EndChar

StartChar: quotedbl
Encoding: 34 34 5
Width: 310
Flags: W
LayerCount: 2
Fore
SplineSet
196 472 m 1,0,-1
 196 720 l 1,1,-1
 240 720 l 1,2,3
 239 657 239 657 238 596 c 128,-1,4
 237 535 237 535 236 472 c 1,5,-1
 196 472 l 1,0,-1
63 472 m 1,6,-1
 63 720 l 1,7,-1
 107 720 l 1,8,9
 106 657 106 657 105 596 c 128,-1,10
 104 535 104 535 103 472 c 1,11,-1
 63 472 l 1,6,-1
EndSplineSet
EndChar

StartChar: numbersign
Encoding: 35 35 6
Width: 571
Flags: W
LayerCount: 2
Fore
SplineSet
198 393 m 1,0,1
 194 357 194 357 190 321.5 c 128,-1,2
 186 286 186 286 182 251 c 1,3,-1
 324 251 l 1,4,5
 328 286 328 286 332 321.5 c 128,-1,6
 336 357 336 357 340 393 c 1,7,-1
 198 393 l 1,0,1
294 0 m 1,8,-1
 318 210 l 1,9,-1
 176 210 l 1,10,-1
 152 0 l 1,11,-1
 110 0 l 1,12,-1
 134 210 l 1,13,-1
 27 210 l 1,14,15
 29 221 29 221 30 230.5 c 128,-1,16
 31 240 31 240 32 251 c 1,17,-1
 140 251 l 1,18,19
 144 286 144 286 148 321.5 c 128,-1,20
 152 357 152 357 156 393 c 1,21,-1
 50 393 l 1,22,23
 52 403 52 403 52.5 413 c 128,-1,24
 53 423 53 423 54 433 c 1,25,-1
 161 433 l 1,26,27
 168 486 168 486 174 538 c 128,-1,28
 180 590 180 590 187 643 c 1,29,-1
 229 643 l 1,30,31
 222 590 222 590 216 538 c 128,-1,32
 210 486 210 486 203 433 c 1,33,-1
 345 433 l 1,34,35
 352 486 352 486 358 538 c 128,-1,36
 364 590 364 590 371 643 c 1,37,-1
 413 643 l 1,38,39
 406 590 406 590 400 538 c 128,-1,40
 394 486 394 486 387 433 c 1,41,-1
 510 433 l 1,42,43
 508 423 508 423 507.5 413 c 128,-1,44
 507 403 507 403 506 393 c 1,45,-1
 382 393 l 1,46,47
 378 357 378 357 374 321.5 c 128,-1,48
 370 286 370 286 366 251 c 1,49,-1
 487 251 l 1,50,51
 486 240 486 240 485 230.5 c 128,-1,52
 484 221 484 221 483 210 c 1,53,-1
 360 210 l 1,54,-1
 336 0 l 1,55,-1
 294 0 l 1,8,-1
EndSplineSet
EndChar

StartChar: dollar
Encoding: 36 36 7
Width: 567
Flags: W
LayerCount: 2
Fore
SplineSet
361 546 m 1,0,-1
 361 634 l 1,1,2
 344 645 344 645 319 653 c 128,-1,3
 294 661 294 661 259 663 c 1,4,-1
 259 387 l 1,5,6
 294 376 294 376 328.5 363.5 c 128,-1,7
 363 351 363 351 390.5 329 c 128,-1,8
 418 307 418 307 435.5 273 c 128,-1,9
 453 239 453 239 454 186 c 0,10,11
 454 144 454 144 439 109 c 128,-1,12
 424 74 424 74 397.5 49 c 128,-1,13
 371 24 371 24 335 9.5 c 128,-1,14
 299 -5 299 -5 259 -7 c 1,15,-1
 259 -68 l 1,16,-1
 218 -68 l 1,17,-1
 218 -6 l 1,18,19
 183 -4 183 -4 153.5 4.5 c 128,-1,20
 124 13 124 13 101.5 25 c 128,-1,21
 79 37 79 37 62.5 50.5 c 128,-1,22
 46 64 46 64 36 76 c 1,23,-1
 36 182 l 1,24,-1
 76 182 l 1,25,-1
 76 92 l 1,26,27
 101 69 101 69 135.5 52.5 c 128,-1,28
 170 36 170 36 218 34 c 1,29,-1
 218 357 l 1,30,31
 188 366 188 366 160 377.5 c 128,-1,32
 132 389 132 389 110.5 406.5 c 128,-1,33
 89 424 89 424 75 450.5 c 128,-1,34
 61 477 61 477 59 517 c 0,35,36
 57 548 57 548 65.5 579.5 c 128,-1,37
 74 611 74 611 93.5 637 c 128,-1,38
 113 663 113 663 143.5 681 c 128,-1,39
 174 699 174 699 218 702 c 1,40,-1
 218 764 l 1,41,-1
 259 764 l 1,42,-1
 259 703 l 1,43,44
 291 701 291 701 329.5 691 c 128,-1,45
 368 681 368 681 401 654 c 1,46,-1
 401 546 l 1,47,-1
 361 546 l 1,0,-1
412 184 m 0,48,49
 412 224 412 224 399 251 c 128,-1,50
 386 278 386 278 364.5 295.5 c 128,-1,51
 343 313 343 313 315.5 324 c 128,-1,52
 288 335 288 335 259 344 c 1,53,-1
 259 34 l 1,54,55
 289 37 289 37 317 48.5 c 128,-1,56
 345 60 345 60 366 79 c 128,-1,57
 387 98 387 98 399.5 124.5 c 128,-1,58
 412 151 412 151 412 184 c 0,48,49
101 524 m 0,59,60
 101 495 101 495 110.5 475.5 c 128,-1,61
 120 456 120 456 136 442 c 128,-1,62
 152 428 152 428 173 418.5 c 128,-1,63
 194 409 194 409 218 401 c 1,64,-1
 218 660 l 1,65,66
 189 657 189 657 167 644.5 c 128,-1,67
 145 632 145 632 130.5 613.5 c 128,-1,68
 116 595 116 595 108.5 572 c 128,-1,69
 101 549 101 549 101 524 c 0,59,60
EndSplineSet
EndChar

StartChar: percent
Encoding: 37 37 8
Width: 726
Flags: W
LayerCount: 2
Fore
SplineSet
447 112 m 0,0,1
 447 80 447 80 468.5 58.5 c 128,-1,2
 490 37 490 37 522 37 c 256,3,4
 554 37 554 37 575.5 58.5 c 128,-1,5
 597 80 597 80 597 112 c 0,6,7
 597 143 597 143 575.5 165 c 128,-1,8
 554 187 554 187 522 187 c 256,9,10
 490 187 490 187 468.5 165 c 128,-1,11
 447 143 447 143 447 112 c 0,0,1
522 -4 m 256,12,13
 498 -4 498 -4 476.5 5 c 128,-1,14
 455 14 455 14 439.5 29.5 c 128,-1,15
 424 45 424 45 414.5 66.5 c 128,-1,16
 405 88 405 88 405 112 c 256,17,18
 405 136 405 136 414.5 157 c 128,-1,19
 424 178 424 178 439.5 193.5 c 128,-1,20
 455 209 455 209 476.5 218 c 128,-1,21
 498 227 498 227 522 227 c 256,22,23
 546 227 546 227 567 218 c 128,-1,24
 588 209 588 209 604 193.5 c 128,-1,25
 620 178 620 178 629.5 157 c 128,-1,26
 639 136 639 136 639 112 c 256,27,28
 639 88 639 88 629.5 66.5 c 128,-1,29
 620 45 620 45 604 29.5 c 128,-1,30
 588 14 588 14 567 5 c 128,-1,31
 546 -4 546 -4 522 -4 c 256,12,13
143 388 m 0,32,33
 143 357 143 357 164.5 335.5 c 128,-1,34
 186 314 186 314 218 314 c 256,35,36
 250 314 250 314 271.5 335.5 c 128,-1,37
 293 357 293 357 293 388 c 0,38,39
 293 420 293 420 271.5 441.5 c 128,-1,40
 250 463 250 463 218 463 c 256,41,42
 186 463 186 463 164.5 441.5 c 128,-1,43
 143 420 143 420 143 388 c 0,32,33
218 273 m 256,44,45
 194 273 194 273 172.5 282 c 128,-1,46
 151 291 151 291 135.5 306.5 c 128,-1,47
 120 322 120 322 110.5 343.5 c 128,-1,48
 101 365 101 365 101 389 c 256,49,50
 101 413 101 413 110.5 434 c 128,-1,51
 120 455 120 455 135.5 470.5 c 128,-1,52
 151 486 151 486 172.5 495 c 128,-1,53
 194 504 194 504 218 504 c 256,54,55
 242 504 242 504 263 495 c 128,-1,56
 284 486 284 486 300 470.5 c 128,-1,57
 316 455 316 455 325.5 434 c 128,-1,58
 335 413 335 413 335 389 c 256,59,60
 335 365 335 365 325.5 343.5 c 128,-1,61
 316 322 316 322 300 306.5 c 128,-1,62
 284 291 284 291 263 282 c 128,-1,63
 242 273 242 273 218 273 c 256,44,45
194 0 m 1,64,65
 269 126 269 126 343 250 c 128,-1,66
 417 374 417 374 492 500 c 1,67,-1
 538 500 l 1,68,69
 463 374 463 374 389 250 c 128,-1,70
 315 126 315 126 240 0 c 1,71,-1
 194 0 l 1,64,65
EndSplineSet
EndChar

StartChar: ampersand
Encoding: 38 38 9
Width: 700
Flags: W
LayerCount: 2
Fore
SplineSet
457 375 m 1,0,-1
 601 375 l 1,1,-1
 601 334 l 1,2,-1
 499 334 l 1,3,-1
 499 266 l 1,4,5
 500 230 500 230 499 188 c 128,-1,6
 498 146 498 146 480 108 c 1,7,-1
 545 3 l 1,8,-1
 513 -19 l 1,9,-1
 459 68 l 1,10,11
 432 33 432 33 391 12.5 c 128,-1,12
 350 -8 350 -8 302 -8 c 0,13,14
 261 -8 261 -8 225.5 7.5 c 128,-1,15
 190 23 190 23 163.5 49 c 128,-1,16
 137 75 137 75 121.5 110.5 c 128,-1,17
 106 146 106 146 106 187 c 0,18,19
 106 223 106 223 118 255.5 c 128,-1,20
 130 288 130 288 152 313.5 c 128,-1,21
 174 339 174 339 203.5 356 c 128,-1,22
 233 373 233 373 268 379 c 1,23,-1
 197 496 l 2,24,25
 179 526 179 526 171.5 558 c 128,-1,26
 164 590 164 590 169 621 c 128,-1,27
 174 652 174 652 192 679 c 128,-1,28
 210 706 210 706 243 726 c 0,29,30
 271 743 271 743 300.5 746.5 c 128,-1,31
 330 750 330 750 358 745 c 128,-1,32
 386 740 386 740 410.5 729 c 128,-1,33
 435 718 435 718 454 706 c 1,34,-1
 437 672 l 1,35,36
 419 682 419 682 398.5 691.5 c 128,-1,37
 378 701 378 701 356.5 705.5 c 128,-1,38
 335 710 335 710 313 708 c 128,-1,39
 291 706 291 706 270 693 c 0,40,41
 216 659 216 659 210 608 c 128,-1,42
 204 557 204 557 234 508 c 2,43,-1
 443 168 l 1,44,45
 457 193 457 193 457 223 c 2,46,-1
 457 375 l 1,0,-1
147 187 m 0,47,48
 147 155 147 155 159 127 c 128,-1,49
 171 99 171 99 191.5 78 c 128,-1,50
 212 57 212 57 240.5 45 c 128,-1,51
 269 33 269 33 302 33 c 0,52,53
 346 33 346 33 380.5 53.5 c 128,-1,54
 415 74 415 74 435 107 c 1,55,-1
 292 341 l 1,56,57
 261 338 261 338 234.5 325.5 c 128,-1,58
 208 313 208 313 188.5 293 c 128,-1,59
 169 273 169 273 158 245.5 c 128,-1,60
 147 218 147 218 147 187 c 0,47,48
EndSplineSet
EndChar

StartChar: quotesingle
Encoding: 39 39 10
Width: 153
Flags: W
LayerCount: 2
Fore
SplineSet
57 472 m 1,0,-1
 57 720 l 1,1,-1
 101 720 l 1,2,3
 100 657 100 657 99 596 c 128,-1,4
 98 535 98 535 97 472 c 1,5,-1
 57 472 l 1,0,-1
EndSplineSet
EndChar

StartChar: parenleft
Encoding: 40 40 11
Width: 406
Flags: W
LayerCount: 2
Fore
SplineSet
134 292 m 256,0,1
 134 367 134 367 148 435 c 128,-1,2
 162 503 162 503 185 561 c 128,-1,3
 208 619 208 619 237.5 666.5 c 128,-1,4
 267 714 267 714 299 747 c 1,5,6
 307 741 307 741 314.5 735.5 c 128,-1,7
 322 730 322 730 330 724 c 1,8,9
 301 691 301 691 273.5 646 c 128,-1,10
 246 601 246 601 224 546 c 128,-1,11
 202 491 202 491 189 427 c 128,-1,12
 176 363 176 363 176 292 c 256,13,14
 176 221 176 221 189 157 c 128,-1,15
 202 93 202 93 224 38 c 128,-1,16
 246 -17 246 -17 273.5 -62 c 128,-1,17
 301 -107 301 -107 330 -140 c 1,18,19
 322 -146 322 -146 314.5 -151.5 c 128,-1,20
 307 -157 307 -157 299 -163 c 1,21,22
 267 -130 267 -130 237.5 -82.5 c 128,-1,23
 208 -35 208 -35 185 23 c 128,-1,24
 162 81 162 81 148 149 c 128,-1,25
 134 217 134 217 134 292 c 256,0,1
EndSplineSet
EndChar

StartChar: parenright
Encoding: 41 41 12
Width: 400
Flags: W
LayerCount: 2
Fore
SplineSet
292 290 m 256,0,1
 292 215 292 215 278 147 c 128,-1,2
 264 79 264 79 241 21 c 128,-1,3
 218 -37 218 -37 188 -84.5 c 128,-1,4
 158 -132 158 -132 127 -165 c 1,5,6
 119 -159 119 -159 111.5 -153.5 c 128,-1,7
 104 -148 104 -148 96 -142 c 1,8,9
 125 -109 125 -109 152.5 -64 c 128,-1,10
 180 -19 180 -19 202 36 c 128,-1,11
 224 91 224 91 237 155 c 128,-1,12
 250 219 250 219 250 290 c 256,13,14
 250 361 250 361 237 425 c 128,-1,15
 224 489 224 489 202 544 c 128,-1,16
 180 599 180 599 152.5 644 c 128,-1,17
 125 689 125 689 96 722 c 1,18,19
 104 728 104 728 111.5 733.5 c 128,-1,20
 119 739 119 739 127 745 c 1,21,22
 158 712 158 712 188 664.5 c 128,-1,23
 218 617 218 617 241 559 c 128,-1,24
 264 501 264 501 278 433 c 128,-1,25
 292 365 292 365 292 290 c 256,0,1
EndSplineSet
EndChar

StartChar: asterisk
Encoding: 42 42 13
Width: 335
Flags: W
LayerCount: 2
Fore
SplineSet
209 575 m 1,0,1
 232 562 232 562 255.5 549 c 128,-1,2
 279 536 279 536 302 522 c 1,3,4
 296 513 296 513 290.5 503.5 c 128,-1,5
 285 494 285 494 279 484 c 1,6,7
 256 498 256 498 233.5 511 c 128,-1,8
 211 524 211 524 188 538 c 1,9,10
 187 512 187 512 187 486 c 128,-1,11
 187 460 187 460 186 434 c 1,12,-1
 146 434 l 1,13,-1
 146 538 l 1,14,15
 123 525 123 525 101 512.5 c 128,-1,16
 79 500 79 500 56 486 c 1,17,18
 50 496 50 496 44.5 505.5 c 128,-1,19
 39 515 39 515 33 525 c 1,20,21
 56 538 56 538 79 550.5 c 128,-1,22
 102 563 102 563 125 576 c 1,23,24
 102 590 102 590 79.5 603 c 128,-1,25
 57 616 57 616 34 630 c 1,26,27
 42 647 42 647 54 665 c 1,28,29
 77 651 77 651 100 638 c 128,-1,30
 123 625 123 625 146 611 c 1,31,-1
 146 720 l 1,32,-1
 190 720 l 1,33,34
 190 693 190 693 189.5 666 c 128,-1,35
 189 639 189 639 189 611 c 1,36,37
 212 625 212 625 236 638 c 128,-1,38
 260 651 260 651 283 664 c 1,39,40
 288 656 288 656 293 647 c 128,-1,41
 298 638 298 638 303 629 c 1,42,43
 279 615 279 615 256 602 c 128,-1,44
 233 589 233 589 209 575 c 1,0,1
EndSplineSet
EndChar

StartChar: plus
Encoding: 43 43 14
Width: 543
Flags: W
LayerCount: 2
Fore
SplineSet
245 51 m 1,0,-1
 245 211 l 1,1,-1
 86 211 l 1,2,-1
 86 252 l 1,3,-1
 245 252 l 1,4,-1
 245 411 l 1,5,-1
 287 411 l 1,6,-1
 287 252 l 1,7,-1
 446 252 l 1,8,-1
 446 211 l 1,9,-1
 287 211 l 1,10,-1
 287 51 l 1,11,-1
 245 51 l 1,0,-1
EndSplineSet
EndChar

StartChar: comma
Encoding: 44 44 15
Width: 200
Flags: W
LayerCount: 2
Fore
SplineSet
141 86 m 1,0,1
 119 34 119 34 98 -17 c 128,-1,2
 77 -68 77 -68 55 -120 c 1,3,-1
 17 -120 l 1,4,5
 37 -68 37 -68 55.5 -17 c 128,-1,6
 74 34 74 34 94 86 c 1,7,-1
 141 86 l 1,0,1
EndSplineSet
EndChar

StartChar: hyphen
Encoding: 45 45 16
Width: 300
Flags: W
LayerCount: 2
Fore
SplineSet
53 169 m 1,0,-1
 53 210 l 1,1,-1
 237 210 l 1,2,-1
 237 169 l 1,3,-1
 53 169 l 1,0,-1
EndSplineSet
EndChar

StartChar: period
Encoding: 46 46 17
Width: 163
Flags: W
LayerCount: 2
Fore
SplineSet
53 33 m 256,0,1
 53 47 53 47 63 56.5 c 128,-1,2
 73 66 73 66 86 66 c 0,3,4
 98 66 98 66 108 56.5 c 128,-1,5
 118 47 118 47 118 33 c 256,6,7
 118 19 118 19 108 9.5 c 128,-1,8
 98 0 98 0 86 0 c 0,9,10
 73 0 73 0 63 9.5 c 128,-1,11
 53 19 53 19 53 33 c 256,0,1
EndSplineSet
EndChar

StartChar: slash
Encoding: 47 47 18
Width: 345
Flags: W
LayerCount: 2
Fore
SplineSet
17 -19 m 1,0,1
 87 171 87 171 156 358.5 c 128,-1,2
 225 546 225 546 295 736 c 1,3,-1
 337 736 l 1,4,5
 267 546 267 546 198 358.5 c 128,-1,6
 129 171 129 171 59 -19 c 1,7,-1
 17 -19 l 1,0,1
EndSplineSet
EndChar

StartChar: zero
Encoding: 48 48 19
Width: 616
Flags: W
LayerCount: 2
Fore
SplineSet
36 327 m 0,0,1
 36 386 36 386 53.5 445.5 c 128,-1,2
 71 505 71 505 104.5 552 c 128,-1,3
 138 599 138 599 189 628.5 c 128,-1,4
 240 658 240 658 308 658 c 0,5,6
 375 658 375 658 425 628 c 128,-1,7
 475 598 475 598 508 550 c 128,-1,8
 541 502 541 502 557 442.5 c 128,-1,9
 573 383 573 383 573 324 c 0,10,11
 573 252 573 252 550.5 191 c 128,-1,12
 528 130 528 130 490.5 86 c 128,-1,13
 453 42 453 42 404 17.5 c 128,-1,14
 355 -7 355 -7 302 -7 c 256,15,16
 249 -7 249 -7 200.5 18.5 c 128,-1,17
 152 44 152 44 115.5 88.5 c 128,-1,18
 79 133 79 133 57.5 194 c 128,-1,19
 36 255 36 255 36 327 c 0,0,1
79 327 m 0,20,21
 79 262 79 262 97.5 208 c 128,-1,22
 116 154 116 154 147 115.5 c 128,-1,23
 178 77 178 77 218.5 55 c 128,-1,24
 259 33 259 33 303 33 c 256,25,26
 347 33 347 33 388 54 c 128,-1,27
 429 75 429 75 460.5 113 c 128,-1,28
 492 151 492 151 511.5 204.5 c 128,-1,29
 531 258 531 258 531 323 c 0,30,31
 531 382 531 382 516 435 c 128,-1,32
 501 488 501 488 472 528.5 c 128,-1,33
 443 569 443 569 401 593 c 128,-1,34
 359 617 359 617 307 617 c 0,35,36
 254 617 254 617 212 594 c 128,-1,37
 170 571 170 571 140.5 531 c 128,-1,38
 111 491 111 491 95 438 c 128,-1,39
 79 385 79 385 79 327 c 0,20,21
EndSplineSet
EndChar

StartChar: one
Encoding: 49 49 20
Width: 265
Flags: W
LayerCount: 2
Fore
SplineSet
49 40 m 1,0,-1
 129 40 l 1,1,-1
 129 609 l 1,2,-1
 34 609 l 1,3,-1
 34 650 l 1,4,-1
 171 650 l 1,5,-1
 171 40 l 1,6,-1
 251 40 l 1,7,-1
 251 0 l 1,8,-1
 49 0 l 1,9,-1
 49 40 l 1,0,-1
EndSplineSet
EndChar

StartChar: two
Encoding: 50 50 21
Width: 505
Flags: W
LayerCount: 2
Fore
SplineSet
155 41 m 1,0,-1
 428 41 l 1,1,-1
 428 146 l 1,2,-1
 468 146 l 1,3,-1
 468 0 l 1,4,-1
 53 0 l 1,5,6
 116 62 116 62 175.5 121.5 c 128,-1,7
 235 181 235 181 281 237.5 c 128,-1,8
 327 294 327 294 355 346.5 c 128,-1,9
 383 399 383 399 383 446 c 0,10,11
 383 495 383 495 368.5 527.5 c 128,-1,12
 354 560 354 560 332.5 580 c 128,-1,13
 311 600 311 600 285.5 608.5 c 128,-1,14
 260 617 260 617 238 617 c 0,15,16
 193 617 193 617 164.5 601 c 128,-1,17
 136 585 136 585 119.5 562 c 128,-1,18
 103 539 103 539 96.5 512 c 128,-1,19
 90 485 90 485 90 463 c 0,20,21
 90 428 90 428 100 401 c 128,-1,22
 110 374 110 374 129 353 c 1,23,-1
 104 328 l 1,24,25
 78 351 78 351 63 387.5 c 128,-1,26
 48 424 48 424 48 463 c 0,27,28
 48 503 48 503 60.5 538.5 c 128,-1,29
 73 574 73 574 97 600.5 c 128,-1,30
 121 627 121 627 156.5 642.5 c 128,-1,31
 192 658 192 658 238 658 c 0,32,33
 280 658 280 658 314.5 642.5 c 128,-1,34
 349 627 349 627 373.5 600 c 128,-1,35
 398 573 398 573 411.5 536.5 c 128,-1,36
 425 500 425 500 425 458 c 0,37,38
 425 404 425 404 400.5 350.5 c 128,-1,39
 376 297 376 297 337 245 c 128,-1,40
 298 193 298 193 250 142 c 128,-1,41
 202 91 202 91 155 41 c 1,0,-1
EndSplineSet
EndChar

StartChar: three
Encoding: 51 51 22
Width: 515
Flags: W
LayerCount: 2
Fore
SplineSet
168 347 m 1,0,-1
 351 609 l 1,1,-1
 143 609 l 1,2,-1
 143 549 l 1,3,-1
 103 549 l 1,4,-1
 103 650 l 1,5,-1
 426 650 l 1,6,-1
 249 404 l 1,7,8
 289 401 289 401 324.5 384.5 c 128,-1,9
 360 368 360 368 386.5 341 c 128,-1,10
 413 314 413 314 428 278.5 c 128,-1,11
 443 243 443 243 443 201 c 0,12,13
 443 158 443 158 426.5 120 c 128,-1,14
 410 82 410 82 381.5 53.5 c 128,-1,15
 353 25 353 25 314.5 8.5 c 128,-1,16
 276 -8 276 -8 233 -8 c 0,17,18
 187 -8 187 -8 147.5 10.5 c 128,-1,19
 108 29 108 29 79 60 c 1,20,-1
 110 91 l 1,21,22
 132 65 132 65 163 49 c 128,-1,23
 194 33 194 33 231 33 c 0,24,25
 266 33 266 33 297 46.5 c 128,-1,26
 328 60 328 60 351 83 c 128,-1,27
 374 106 374 106 387.5 136.5 c 128,-1,28
 401 167 401 167 401 201 c 256,29,30
 401 235 401 235 387.5 265.5 c 128,-1,31
 374 296 374 296 351 319 c 128,-1,32
 328 342 328 342 297 355 c 128,-1,33
 266 368 266 368 231 368 c 0,34,35
 214 368 214 368 198 362.5 c 128,-1,36
 182 357 182 357 168 347 c 1,0,-1
EndSplineSet
EndChar

StartChar: four
Encoding: 52 52 23
Width: 515
Flags: W
LayerCount: 2
Fore
SplineSet
285 40 m 1,0,-1
 361 40 l 1,1,-1
 361 183 l 1,2,-1
 37 183 l 1,3,-1
 403 658 l 1,4,-1
 403 224 l 1,5,-1
 500 224 l 1,6,-1
 500 183 l 1,7,-1
 403 183 l 1,8,-1
 403 40 l 1,9,-1
 486 40 l 1,10,-1
 486 0 l 1,11,-1
 285 0 l 1,12,-1
 285 40 l 1,0,-1
361 535 m 1,13,-1
 122 224 l 1,14,-1
 361 224 l 1,15,-1
 361 535 l 1,13,-1
EndSplineSet
EndChar

StartChar: five
Encoding: 53 53 24
Width: 543
Flags: W
LayerCount: 2
Fore
SplineSet
430 650 m 1,0,-1
 430 549 l 1,1,-1
 390 549 l 1,2,-1
 390 609 l 1,3,-1
 185 609 l 1,4,-1
 185 392 l 1,5,6
 201 399 201 399 218.5 403 c 128,-1,7
 236 407 236 407 254 407 c 0,8,9
 297 407 297 407 335.5 391 c 128,-1,10
 374 375 374 375 402.5 347 c 128,-1,11
 431 319 431 319 448 281.5 c 128,-1,12
 465 244 465 244 465 201 c 256,13,14
 465 158 465 158 448 120 c 128,-1,15
 431 82 431 82 402.5 53.5 c 128,-1,16
 374 25 374 25 335.5 8.5 c 128,-1,17
 297 -8 297 -8 254 -8 c 0,18,19
 212 -8 212 -8 175.5 7.5 c 128,-1,20
 139 23 139 23 110 50 c 1,21,-1
 141 78 l 1,22,23
 163 57 163 57 191.5 45 c 128,-1,24
 220 33 220 33 253 33 c 0,25,26
 288 33 288 33 319 46.5 c 128,-1,27
 350 60 350 60 373 83 c 128,-1,28
 396 106 396 106 409.5 136.5 c 128,-1,29
 423 167 423 167 423 201 c 256,30,31
 423 235 423 235 409.5 265 c 128,-1,32
 396 295 396 295 373 317.5 c 128,-1,33
 350 340 350 340 319 353 c 128,-1,34
 288 366 288 366 253 366 c 256,35,36
 218 366 218 366 189 354 c 128,-1,37
 160 342 160 342 143 321 c 1,38,-1
 143 650 l 1,39,-1
 430 650 l 1,0,-1
EndSplineSet
EndChar

StartChar: six
Encoding: 54 54 25
Width: 520
Flags: W
LayerCount: 2
Fore
SplineSet
91 199 m 0,0,1
 91 164 91 164 104 134 c 128,-1,2
 117 104 117 104 140 81.5 c 128,-1,3
 163 59 163 59 193 46 c 128,-1,4
 223 33 223 33 258 33 c 0,5,6
 292 33 292 33 323 46 c 128,-1,7
 354 59 354 59 377 81.5 c 128,-1,8
 400 104 400 104 413.5 134 c 128,-1,9
 427 164 427 164 427 199 c 0,10,11
 427 233 427 233 413.5 263.5 c 128,-1,12
 400 294 400 294 377 317 c 128,-1,13
 354 340 354 340 323 353 c 128,-1,14
 292 366 292 366 258 366 c 0,15,16
 223 366 223 366 193 353 c 128,-1,17
 163 340 163 340 140 317 c 128,-1,18
 117 294 117 294 104 263.5 c 128,-1,19
 91 233 91 233 91 199 c 0,0,1
49 195 m 1,20,21
 49 267 49 267 80 329.5 c 128,-1,22
 111 392 111 392 159 446.5 c 128,-1,23
 207 501 207 501 266 547.5 c 128,-1,24
 325 594 325 594 381 635 c 1,25,26
 387 627 387 627 394 618 c 128,-1,27
 401 609 401 609 408 601 c 1,28,29
 301 531 301 531 240 467.5 c 128,-1,30
 179 404 179 404 152 358 c 1,31,32
 171 380 171 380 198.5 393.5 c 128,-1,33
 226 407 226 407 258 407 c 0,34,35
 301 407 301 407 339.5 390.5 c 128,-1,36
 378 374 378 374 406.5 346 c 128,-1,37
 435 318 435 318 451.5 280 c 128,-1,38
 468 242 468 242 468 199 c 256,39,40
 468 156 468 156 451.5 118.5 c 128,-1,41
 435 81 435 81 406.5 53 c 128,-1,42
 378 25 378 25 339.5 8.5 c 128,-1,43
 301 -8 301 -8 258 -8 c 0,44,45
 216 -8 216 -8 178 8 c 128,-1,46
 140 24 140 24 111.5 51.5 c 128,-1,47
 83 79 83 79 66.5 116 c 128,-1,48
 50 153 50 153 49 195 c 1,20,21
EndSplineSet
EndChar

StartChar: seven
Encoding: 55 55 26
Width: 469
Flags: W
LayerCount: 2
Fore
SplineSet
420 650 m 1,0,-1
 128 0 l 1,1,-1
 79 0 l 1,2,-1
 354 609 l 1,3,-1
 54 609 l 1,4,-1
 54 549 l 1,5,-1
 14 549 l 1,6,-1
 14 650 l 1,7,-1
 420 650 l 1,0,-1
EndSplineSet
EndChar

StartChar: eight
Encoding: 56 56 27
Width: 510
Flags: W
LayerCount: 2
Fore
SplineSet
145 506 m 0,0,1
 145 485 145 485 153.5 466.5 c 128,-1,2
 162 448 162 448 177 435 c 128,-1,3
 192 422 192 422 211.5 414.5 c 128,-1,4
 231 407 231 407 254 407 c 0,5,6
 300 407 300 407 330.5 435 c 128,-1,7
 361 463 361 463 361 506 c 0,8,9
 361 528 361 528 353 548 c 128,-1,10
 345 568 345 568 330.5 583.5 c 128,-1,11
 316 599 316 599 296.5 608 c 128,-1,12
 277 617 277 617 254 617 c 256,13,14
 231 617 231 617 211.5 608 c 128,-1,15
 192 599 192 599 177 583.5 c 128,-1,16
 162 568 162 568 153.5 548 c 128,-1,17
 145 528 145 528 145 506 c 0,0,1
89 201 m 256,18,19
 89 167 89 167 101.5 136.5 c 128,-1,20
 114 106 114 106 136.5 82.5 c 128,-1,21
 159 59 159 59 188.5 45.5 c 128,-1,22
 218 32 218 32 253 32 c 256,23,24
 288 32 288 32 319 45.5 c 128,-1,25
 350 59 350 59 373 82.5 c 128,-1,26
 396 106 396 106 409.5 136.5 c 128,-1,27
 423 167 423 167 423 201 c 256,28,29
 423 235 423 235 409.5 264.5 c 128,-1,30
 396 294 396 294 373.5 316.5 c 128,-1,31
 351 339 351 339 320 352.5 c 128,-1,32
 289 366 289 366 255 366 c 0,33,34
 220 366 220 366 189.5 353 c 128,-1,35
 159 340 159 340 136.5 317.5 c 128,-1,36
 114 295 114 295 101.5 265 c 128,-1,37
 89 235 89 235 89 201 c 256,18,19
46 201 m 0,38,39
 46 267 46 267 83 317.5 c 128,-1,40
 120 368 120 368 178 390 c 1,41,42
 144 406 144 406 123.5 438 c 128,-1,43
 103 470 103 470 103 510 c 0,44,45
 103 540 103 540 114.5 567 c 128,-1,46
 126 594 126 594 146.5 614.5 c 128,-1,47
 167 635 167 635 194 646.5 c 128,-1,48
 221 658 221 658 252 658 c 256,49,50
 283 658 283 658 311 646 c 128,-1,51
 339 634 339 634 359 613.5 c 128,-1,52
 379 593 379 593 391 566 c 128,-1,53
 403 539 403 539 403 508 c 0,54,55
 403 469 403 469 382.5 438 c 128,-1,56
 362 407 362 407 330 390 c 1,57,58
 359 379 359 379 384 360.5 c 128,-1,59
 409 342 409 342 427 317.5 c 128,-1,60
 445 293 445 293 455 263.5 c 128,-1,61
 465 234 465 234 465 201 c 0,62,63
 465 158 465 158 448 120 c 128,-1,64
 431 82 431 82 402.5 53.5 c 128,-1,65
 374 25 374 25 335.5 8.5 c 128,-1,66
 297 -8 297 -8 254 -8 c 256,67,68
 211 -8 211 -8 173.5 8.5 c 128,-1,69
 136 25 136 25 107.5 53.5 c 128,-1,70
 79 82 79 82 62.5 120 c 128,-1,71
 46 158 46 158 46 201 c 0,38,39
EndSplineSet
EndChar

StartChar: nine
Encoding: 57 57 28
Width: 525
Flags: W
LayerCount: 2
Fore
SplineSet
420 427 m 0,0,1
 420 461 420 461 407 491.5 c 128,-1,2
 394 522 394 522 371.5 544.5 c 128,-1,3
 349 567 349 567 318.5 580 c 128,-1,4
 288 593 288 593 254 593 c 0,5,6
 219 593 219 593 188.5 580 c 128,-1,7
 158 567 158 567 135 544.5 c 128,-1,8
 112 522 112 522 98.5 491.5 c 128,-1,9
 85 461 85 461 85 427 c 0,10,11
 85 392 85 392 98.5 362 c 128,-1,12
 112 332 112 332 135 309 c 128,-1,13
 158 286 158 286 188.5 273 c 128,-1,14
 219 260 219 260 254 260 c 0,15,16
 288 260 288 260 318.5 273 c 128,-1,17
 349 286 349 286 371.5 309 c 128,-1,18
 394 332 394 332 407 362 c 128,-1,19
 420 392 420 392 420 427 c 0,0,1
463 427 m 0,20,21
 463 356 463 356 432 294 c 128,-1,22
 401 232 401 232 352.5 178 c 128,-1,23
 304 124 304 124 245 78 c 128,-1,24
 186 32 186 32 131 -8 c 1,25,26
 124 0 124 0 117.5 8.5 c 128,-1,27
 111 17 111 17 104 25 c 1,28,29
 210 96 210 96 271.5 159 c 128,-1,30
 333 222 333 222 360 269 c 1,31,32
 341 246 341 246 313 233 c 128,-1,33
 285 220 285 220 253 220 c 0,34,35
 210 220 210 220 171.5 236 c 128,-1,36
 133 252 133 252 104.5 280 c 128,-1,37
 76 308 76 308 59.5 346 c 128,-1,38
 43 384 43 384 43 427 c 256,39,40
 43 470 43 470 59.5 507.5 c 128,-1,41
 76 545 76 545 104.5 573 c 128,-1,42
 133 601 133 601 171.5 617.5 c 128,-1,43
 210 634 210 634 253 634 c 256,44,45
 296 634 296 634 334.5 617.5 c 128,-1,46
 373 601 373 601 401.5 573 c 128,-1,47
 430 545 430 545 446.5 507.5 c 128,-1,48
 463 470 463 470 463 427 c 0,20,21
EndSplineSet
EndChar

StartChar: colon
Encoding: 58 58 29
Width: 175
Flags: W
LayerCount: 2
Fore
SplineSet
52 283 m 256,0,1
 52 297 52 297 62 306.5 c 128,-1,2
 72 316 72 316 85 316 c 256,3,4
 98 316 98 316 107.5 306.5 c 128,-1,5
 117 297 117 297 117 283 c 256,6,7
 117 269 117 269 107.5 259.5 c 128,-1,8
 98 250 98 250 85 250 c 256,9,10
 72 250 72 250 62 259.5 c 128,-1,11
 52 269 52 269 52 283 c 256,0,1
52 33 m 256,12,13
 52 47 52 47 62 56.5 c 128,-1,14
 72 66 72 66 85 66 c 256,15,16
 98 66 98 66 107.5 56.5 c 128,-1,17
 117 47 117 47 117 33 c 256,18,19
 117 19 117 19 107.5 9.5 c 128,-1,20
 98 0 98 0 85 0 c 256,21,22
 72 0 72 0 62 9.5 c 128,-1,23
 52 19 52 19 52 33 c 256,12,13
EndSplineSet
EndChar

StartChar: semicolon
Encoding: 59 59 30
Width: 201
Flags: W
LayerCount: 2
Fore
SplineSet
78 283 m 256,0,1
 78 297 78 297 88 306.5 c 128,-1,2
 98 316 98 316 111 316 c 256,3,4
 124 316 124 316 134 306.5 c 128,-1,5
 144 297 144 297 144 283 c 256,6,7
 144 269 144 269 134 259.5 c 128,-1,8
 124 250 124 250 111 250 c 256,9,10
 98 250 98 250 88 259.5 c 128,-1,11
 78 269 78 269 78 283 c 256,0,1
127 86 m 1,12,13
 105 34 105 34 84 -17 c 128,-1,14
 63 -68 63 -68 41 -120 c 1,15,-1
 2 -120 l 1,16,17
 22 -68 22 -68 40.5 -17 c 128,-1,18
 59 34 59 34 79 86 c 1,19,-1
 127 86 l 1,12,13
EndSplineSet
EndChar

StartChar: less
Encoding: 60 60 31
Width: 680
Flags: W
LayerCount: 2
Fore
SplineSet
553 40 m 1,0,-1
 553 -15 l 1,1,2
 443 48 443 48 334 111.5 c 128,-1,3
 225 175 225 175 115 238 c 1,4,5
 225 301 225 301 334 364.5 c 128,-1,6
 443 428 443 428 553 491 c 1,7,-1
 553 436 l 1,8,9
 467 386 467 386 381.5 337 c 128,-1,10
 296 288 296 288 209 238 c 1,11,12
 296 188 296 188 381.5 139 c 128,-1,13
 467 90 467 90 553 40 c 1,0,-1
EndSplineSet
EndChar

StartChar: equal
Encoding: 61 61 32
Width: 708
Flags: W
LayerCount: 2
Fore
SplineSet
606 176 m 1,0,-1
 606 135 l 1,1,-1
 100 135 l 1,2,-1
 100 176 l 1,3,-1
 606 176 l 1,0,-1
606 370 m 1,4,-1
 606 329 l 1,5,-1
 100 329 l 1,6,-1
 100 370 l 1,7,-1
 606 370 l 1,4,-1
EndSplineSet
EndChar

StartChar: greater
Encoding: 62 62 33
Width: 650
Flags: W
LayerCount: 2
Fore
SplineSet
115 -15 m 1,0,-1
 115 40 l 1,1,2
 202 90 202 90 287.5 139 c 128,-1,3
 373 188 373 188 459 238 c 1,4,5
 373 288 373 288 287.5 337 c 128,-1,6
 202 386 202 386 115 436 c 1,7,-1
 115 491 l 1,8,9
 225 428 225 428 334 364.5 c 128,-1,10
 443 301 443 301 553 238 c 1,11,12
 443 175 443 175 334 111.5 c 128,-1,13
 225 48 225 48 115 -15 c 1,0,-1
EndSplineSet
EndChar

StartChar: question
Encoding: 63 63 34
Width: 452
Flags: W
LayerCount: 2
Fore
SplineSet
72 578 m 1,0,1
 63 582 63 582 53.5 585 c 128,-1,2
 44 588 44 588 35 591 c 1,3,4
 44 617 44 617 60 642 c 128,-1,5
 76 667 76 667 99.5 687 c 128,-1,6
 123 707 123 707 154.5 719.5 c 128,-1,7
 186 732 186 732 226 732 c 0,8,9
 267 732 267 732 303 716.5 c 128,-1,10
 339 701 339 701 365.5 674.5 c 128,-1,11
 392 648 392 648 407 612.5 c 128,-1,12
 422 577 422 577 422 537 c 0,13,14
 422 483 422 483 395.5 441.5 c 128,-1,15
 369 400 369 400 324 368 c 0,16,17
 307 355 307 355 290.5 345 c 128,-1,18
 274 335 274 335 261 322.5 c 128,-1,19
 248 310 248 310 240 291 c 128,-1,20
 232 272 232 272 232 242 c 2,21,-1
 232 164 l 1,22,-1
 190 164 l 1,23,-1
 190 261 l 2,24,25
 190 292 190 292 201 311.5 c 128,-1,26
 212 331 212 331 229.5 346 c 128,-1,27
 247 361 247 361 269.5 374.5 c 128,-1,28
 292 388 292 388 316 408 c 0,29,30
 349 435 349 435 364.5 467.5 c 128,-1,31
 380 500 380 500 380 537 c 0,32,33
 380 570 380 570 368.5 598 c 128,-1,34
 357 626 357 626 336 647 c 128,-1,35
 315 668 315 668 287 679.5 c 128,-1,36
 259 691 259 691 226 691 c 0,37,38
 168 691 168 691 128.5 661 c 128,-1,39
 89 631 89 631 72 578 c 1,0,1
211 15 m 256,40,41
 199 15 199 15 188.5 24.5 c 128,-1,42
 178 34 178 34 178 48 c 256,43,44
 178 62 178 62 188.5 71.5 c 128,-1,45
 199 81 199 81 211 81 c 256,46,47
 223 81 223 81 233 71.5 c 128,-1,48
 243 62 243 62 243 48 c 256,49,50
 243 34 243 34 233 24.5 c 128,-1,51
 223 15 223 15 211 15 c 256,40,41
EndSplineSet
EndChar

StartChar: at
Encoding: 64 64 35
Width: 990
Flags: W
LayerCount: 2
Fore
SplineSet
333 188 m 256,0,1
 333 156 333 156 345 128 c 128,-1,2
 357 100 357 100 377.5 79 c 128,-1,3
 398 58 398 58 426.5 46 c 128,-1,4
 455 34 455 34 488 34 c 256,5,6
 521 34 521 34 549.5 46 c 128,-1,7
 578 58 578 58 598.5 79 c 128,-1,8
 619 100 619 100 631 128 c 128,-1,9
 643 156 643 156 643 188 c 256,10,11
 643 220 643 220 631 248.5 c 128,-1,12
 619 277 619 277 598.5 298 c 128,-1,13
 578 319 578 319 549.5 331 c 128,-1,14
 521 343 521 343 488 343 c 256,15,16
 455 343 455 343 426.5 331 c 128,-1,17
 398 319 398 319 377.5 298 c 128,-1,18
 357 277 357 277 345 248.5 c 128,-1,19
 333 220 333 220 333 188 c 256,0,1
895 188 m 1,20,21
 892 131 892 131 877 94.5 c 128,-1,22
 862 58 862 58 839.5 37 c 128,-1,23
 817 16 817 16 790 8 c 128,-1,24
 763 0 763 0 737 0 c 2,25,-1
 647 0 l 1,26,-1
 647 40 l 2,27,28
 647 52 647 52 647.5 63.5 c 128,-1,29
 648 75 648 75 648 86 c 1,30,31
 641 69 641 69 626.5 52 c 128,-1,32
 612 35 612 35 591.5 22 c 128,-1,33
 571 9 571 9 544.5 1 c 128,-1,34
 518 -7 518 -7 488 -7 c 0,35,36
 447 -7 447 -7 411 8.5 c 128,-1,37
 375 24 375 24 348.5 50 c 128,-1,38
 322 76 322 76 306.5 111.5 c 128,-1,39
 291 147 291 147 291 188 c 0,40,41
 291 228 291 228 306.5 263.5 c 128,-1,42
 322 299 322 299 348.5 325.5 c 128,-1,43
 375 352 375 352 411 367.5 c 128,-1,44
 447 383 447 383 488 383 c 0,45,46
 517 383 517 383 542.5 374.5 c 128,-1,47
 568 366 568 366 589 352.5 c 128,-1,48
 610 339 610 339 625 322 c 128,-1,49
 640 305 640 305 647 287 c 1,50,51
 647 309 647 309 648.5 331 c 128,-1,52
 650 353 650 353 651 375 c 1,53,-1
 685 375 l 1,54,-1
 685 40 l 1,55,-1
 741 40 l 2,56,57
 789 40 789 40 820 75 c 128,-1,58
 851 110 851 110 853 188 c 1,59,60
 853 264 853 264 824.5 331 c 128,-1,61
 796 398 796 398 746.5 447.5 c 128,-1,62
 697 497 697 497 630.5 525.5 c 128,-1,63
 564 554 564 554 489 554 c 0,64,65
 413 554 413 554 346.5 525.5 c 128,-1,66
 280 497 280 497 230.5 447.5 c 128,-1,67
 181 398 181 398 152.5 331 c 128,-1,68
 124 264 124 264 124 188 c 256,69,70
 124 112 124 112 152.5 46 c 128,-1,71
 181 -20 181 -20 230.5 -69.5 c 128,-1,72
 280 -119 280 -119 346.5 -147.5 c 128,-1,73
 413 -176 413 -176 489 -176 c 0,74,75
 549 -176 549 -176 603.5 -158 c 128,-1,76
 658 -140 658 -140 704 -108 c 1,77,78
 711 -116 711 -116 717 -123 c 128,-1,79
 723 -130 723 -130 729 -138 c 1,80,81
 679 -176 679 -176 617 -196.5 c 128,-1,82
 555 -217 555 -217 489 -217 c 0,83,84
 405 -217 405 -217 331 -185 c 128,-1,85
 257 -153 257 -153 201.5 -98 c 128,-1,86
 146 -43 146 -43 114 31 c 128,-1,87
 82 105 82 105 82 189 c 256,88,89
 82 273 82 273 114 347 c 128,-1,90
 146 421 146 421 201.5 476 c 128,-1,91
 257 531 257 531 331 563 c 128,-1,92
 405 595 405 595 489 595 c 256,93,94
 573 595 573 595 647 563 c 128,-1,95
 721 531 721 531 776 476 c 128,-1,96
 831 421 831 421 863 347 c 128,-1,97
 895 273 895 273 895 188 c 1,20,21
EndSplineSet
EndChar

StartChar: A
Encoding: 65 65 36
Width: 812
Flags: W
LayerCount: 2
Fore
SplineSet
35 40 m 1,0,-1
 112 40 l 1,1,2
 186 214 186 214 259.5 386 c 128,-1,3
 333 558 333 558 406 732 c 1,4,5
 479 558 479 558 552.5 386 c 128,-1,6
 626 214 626 214 699 40 c 1,7,-1
 777 40 l 1,8,-1
 777 0 l 1,9,-1
 584 0 l 1,10,-1
 584 40 l 1,11,-1
 657 40 l 1,12,13
 629 105 629 105 602 169.5 c 128,-1,14
 575 234 575 234 547 300 c 1,15,-1
 265 300 l 1,16,17
 237 234 237 234 210 169.5 c 128,-1,18
 183 105 183 105 155 40 c 1,19,-1
 228 40 l 1,20,-1
 228 0 l 1,21,-1
 35 0 l 1,22,-1
 35 40 l 1,0,-1
415 611 m 1,23,-1
 406 639 l 1,24,25
 404 636 404 636 401 624 c 0,26,27
 399 618 399 618 396 611 c 0,28,29
 386 585 386 585 372.5 552.5 c 128,-1,30
 359 520 359 520 344 484.5 c 128,-1,31
 329 449 329 449 313.5 412 c 128,-1,32
 298 375 298 375 283 340 c 1,33,-1
 529 340 l 1,34,-1
 415 611 l 1,23,-1
EndSplineSet
EndChar

StartChar: B
Encoding: 66 66 37
Width: 526
Flags: W
LayerCount: 2
Fore
SplineSet
35 40 m 1,0,-1
 96 40 l 1,1,-1
 96 660 l 1,2,-1
 35 660 l 1,3,-1
 35 700 l 1,4,-1
 256 700 l 2,5,6
 303 700 303 700 341.5 690 c 128,-1,7
 380 680 380 680 407.5 659 c 128,-1,8
 435 638 435 638 450 604.5 c 128,-1,9
 465 571 465 571 465 525 c 0,10,11
 465 463 465 463 434.5 416 c 128,-1,12
 404 369 404 369 341 352 c 1,13,14
 371 346 371 346 398 332 c 128,-1,15
 425 318 425 318 445.5 296 c 128,-1,16
 466 274 466 274 478.5 245 c 128,-1,17
 491 216 491 216 491 180 c 0,18,19
 491 135 491 135 473 101.5 c 128,-1,20
 455 68 455 68 424.5 45.5 c 128,-1,21
 394 23 394 23 355 11.5 c 128,-1,22
 316 0 316 0 274 0 c 2,23,-1
 35 0 l 1,24,-1
 35 40 l 1,0,-1
137 332 m 1,25,-1
 137 40 l 1,26,-1
 270 40 l 2,27,28
 307 40 307 40 339.5 49 c 128,-1,29
 372 58 372 58 396.5 76 c 128,-1,30
 421 94 421 94 435.5 120.5 c 128,-1,31
 450 147 450 147 450 183 c 0,32,33
 450 222 450 222 433.5 250 c 128,-1,34
 417 278 417 278 389.5 296.5 c 128,-1,35
 362 315 362 315 326.5 323.5 c 128,-1,36
 291 332 291 332 253 332 c 2,37,-1
 137 332 l 1,25,-1
137 660 m 1,38,-1
 137 372 l 1,39,-1
 269 372 l 2,40,41
 340 372 340 372 382 413.5 c 128,-1,42
 424 455 424 455 424 522 c 0,43,44
 424 559 424 559 412.5 585.5 c 128,-1,45
 401 612 401 612 380 628.5 c 128,-1,46
 359 645 359 645 329.5 652.5 c 128,-1,47
 300 660 300 660 265 660 c 2,48,-1
 137 660 l 1,38,-1
EndSplineSet
EndChar

StartChar: C
Encoding: 67 67 38
Width: 610
Flags: W
LayerCount: 2
Fore
SplineSet
535 546 m 1,0,-1
 535 632 l 1,1,2
 503 649 503 649 466.5 658.5 c 128,-1,3
 430 668 430 668 392 668 c 0,4,5
 327 668 327 668 269.5 642.5 c 128,-1,6
 212 617 212 617 169 573.5 c 128,-1,7
 126 530 126 530 101.5 472 c 128,-1,8
 77 414 77 414 77 348 c 0,9,10
 77 283 77 283 101.5 225.5 c 128,-1,11
 126 168 126 168 169 125 c 128,-1,12
 212 82 212 82 268.5 57 c 128,-1,13
 325 32 325 32 390 32 c 0,14,15
 435 32 435 32 475 43.5 c 128,-1,16
 515 55 515 55 551 76 c 1,17,-1
 574 42 l 1,18,19
 534 19 534 19 488.5 5.5 c 128,-1,20
 443 -8 443 -8 392 -8 c 0,21,22
 318 -8 318 -8 253 20 c 128,-1,23
 188 48 188 48 139.5 96.5 c 128,-1,24
 91 145 91 145 63 210 c 128,-1,25
 35 275 35 275 35 349 c 256,26,27
 35 423 35 423 63 488.5 c 128,-1,28
 91 554 91 554 139.5 602.5 c 128,-1,29
 188 651 188 651 253 679.5 c 128,-1,30
 318 708 318 708 392 708 c 0,31,32
 443 708 443 708 488.5 695 c 128,-1,33
 534 682 534 682 575 658 c 1,34,-1
 575 546 l 1,35,-1
 535 546 l 1,0,-1
EndSplineSet
EndChar

StartChar: D
Encoding: 68 68 39
Width: 632
Flags: W
LayerCount: 2
Fore
SplineSet
35 40 m 1,0,-1
 98 40 l 1,1,-1
 98 660 l 1,2,-1
 35 660 l 1,3,-1
 35 700 l 1,4,-1
 245 700 l 2,5,6
 317 700 317 700 381 675.5 c 128,-1,7
 445 651 445 651 493 605.5 c 128,-1,8
 541 560 541 560 569 495 c 128,-1,9
 597 430 597 430 597 350 c 0,10,11
 597 291 597 291 576.5 229 c 128,-1,12
 556 167 556 167 510 116 c 128,-1,13
 464 65 464 65 390.5 32.5 c 128,-1,14
 317 0 317 0 211 0 c 2,15,-1
 35 0 l 1,16,-1
 35 40 l 1,0,-1
139 660 m 1,17,-1
 139 40 l 1,18,-1
 226 40 l 2,19,20
 309 40 309 40 371 66.5 c 128,-1,21
 433 93 433 93 474 136.5 c 128,-1,22
 515 180 515 180 535.5 235.5 c 128,-1,23
 556 291 556 291 556 350 c 0,24,25
 556 421 556 421 531.5 478.5 c 128,-1,26
 507 536 507 536 464.5 576.5 c 128,-1,27
 422 617 422 617 365.5 638.5 c 128,-1,28
 309 660 309 660 245 660 c 2,29,-1
 139 660 l 1,17,-1
EndSplineSet
EndChar

StartChar: E
Encoding: 69 69 40
Width: 571
Flags: W
LayerCount: 2
Fore
SplineSet
35 40 m 1,0,-1
 107 40 l 1,1,-1
 107 660 l 1,2,-1
 35 660 l 1,3,-1
 35 700 l 1,4,-1
 522 700 l 1,5,-1
 522 546 l 1,6,-1
 482 546 l 1,7,-1
 482 660 l 1,8,-1
 148 660 l 1,9,-1
 148 373 l 1,10,-1
 483 373 l 1,11,-1
 483 333 l 1,12,-1
 148 333 l 1,13,-1
 148 40 l 1,14,-1
 496 40 l 1,15,-1
 496 154 l 1,16,-1
 536 154 l 1,17,-1
 536 0 l 1,18,-1
 35 0 l 1,19,-1
 35 40 l 1,0,-1
EndSplineSet
EndChar

StartChar: F
Encoding: 70 70 41
Width: 557
Flags: W
LayerCount: 2
Fore
SplineSet
35 40 m 1,0,-1
 107 40 l 1,1,-1
 107 660 l 1,2,-1
 35 660 l 1,3,-1
 35 700 l 1,4,-1
 522 700 l 1,5,-1
 522 546 l 1,6,-1
 482 546 l 1,7,-1
 482 660 l 1,8,-1
 148 660 l 1,9,-1
 148 373 l 1,10,-1
 483 373 l 1,11,-1
 483 333 l 1,12,-1
 148 333 l 1,13,-1
 148 40 l 1,14,-1
 236 40 l 1,15,-1
 236 0 l 1,16,-1
 35 0 l 1,17,-1
 35 40 l 1,0,-1
EndSplineSet
EndChar

StartChar: G
Encoding: 71 71 42
Width: 609
Flags: W
LayerCount: 2
Fore
SplineSet
574 298 m 1,0,-1
 574 40 l 1,1,2
 534 17 534 17 488.5 3.5 c 128,-1,3
 443 -10 443 -10 392 -10 c 0,4,5
 318 -10 318 -10 253 18 c 128,-1,6
 188 46 188 46 139.5 94.5 c 128,-1,7
 91 143 91 143 63 208 c 128,-1,8
 35 273 35 273 35 347 c 256,9,10
 35 421 35 421 63 486.5 c 128,-1,11
 91 552 91 552 139.5 600.5 c 128,-1,12
 188 649 188 649 253 677.5 c 128,-1,13
 318 706 318 706 392 706 c 0,14,15
 443 706 443 706 488.5 693 c 128,-1,16
 534 680 534 680 575 656 c 1,17,-1
 552 622 l 1,18,19
 517 643 517 643 476.5 654.5 c 128,-1,20
 436 666 436 666 392 666 c 0,21,22
 327 666 327 666 269.5 640.5 c 128,-1,23
 212 615 212 615 169 571.5 c 128,-1,24
 126 528 126 528 101.5 470 c 128,-1,25
 77 412 77 412 77 346 c 0,26,27
 77 281 77 281 101.5 223.5 c 128,-1,28
 126 166 126 166 169 123 c 128,-1,29
 212 80 212 80 268.5 55 c 128,-1,30
 325 30 325 30 390 30 c 0,31,32
 466 30 466 30 532 64 c 1,33,-1
 532 258 l 1,34,-1
 388 258 l 1,35,-1
 388 298 l 1,36,-1
 574 298 l 1,0,-1
EndSplineSet
EndChar

StartChar: H
Encoding: 72 72 43
Width: 738
Flags: W
LayerCount: 2
Fore
SplineSet
502 700 m 1,0,-1
 703 700 l 1,1,-1
 703 660 l 1,2,-1
 626 660 l 1,3,-1
 626 40 l 1,4,-1
 703 40 l 1,5,-1
 703 0 l 1,6,-1
 502 0 l 1,7,-1
 502 40 l 1,8,-1
 584 40 l 1,9,-1
 584 333 l 1,10,-1
 154 333 l 1,11,-1
 154 40 l 1,12,-1
 236 40 l 1,13,-1
 236 0 l 1,14,-1
 35 0 l 1,15,-1
 35 40 l 1,16,-1
 113 40 l 1,17,-1
 113 660 l 1,18,-1
 35 660 l 1,19,-1
 35 700 l 1,20,-1
 236 700 l 1,21,-1
 236 660 l 1,22,-1
 154 660 l 1,23,-1
 154 373 l 1,24,-1
 584 373 l 1,25,-1
 584 660 l 1,26,-1
 502 660 l 1,27,-1
 502 700 l 1,0,-1
EndSplineSet
EndChar

StartChar: I
Encoding: 73 73 44
Width: 271
Flags: W
LayerCount: 2
Fore
SplineSet
35 40 m 1,0,-1
 113 40 l 1,1,-1
 113 660 l 1,2,-1
 35 660 l 1,3,-1
 35 700 l 1,4,-1
 236 700 l 1,5,-1
 236 660 l 1,6,-1
 154 660 l 1,7,-1
 154 40 l 1,8,-1
 236 40 l 1,9,-1
 236 0 l 1,10,-1
 35 0 l 1,11,-1
 35 40 l 1,0,-1
EndSplineSet
EndChar

StartChar: J
Encoding: 74 74 45
Width: 277
Flags: W
LayerCount: 2
Fore
SplineSet
35 700 m 1,0,-1
 242 700 l 1,1,-1
 242 90 l 2,2,3
 242 34 242 34 226 -8.5 c 128,-1,4
 210 -51 210 -51 182 -80.5 c 128,-1,5
 154 -110 154 -110 116 -126 c 128,-1,6
 78 -142 78 -142 35 -143 c 1,7,-1
 35 -103 l 1,8,9
 71 -101 71 -101 101.5 -87 c 128,-1,10
 132 -73 132 -73 154 -48 c 128,-1,11
 176 -23 176 -23 188.5 12.5 c 128,-1,12
 201 48 201 48 201 93 c 2,13,-1
 201 660 l 1,14,-1
 35 660 l 1,15,-1
 35 700 l 1,0,-1
EndSplineSet
EndChar

StartChar: K
Encoding: 75 75 46
Width: 686
Flags: W
LayerCount: 2
Fore
SplineSet
458 40 m 1,0,-1
 518 40 l 1,1,2
 449 128 449 128 379.5 216.5 c 128,-1,3
 310 305 310 305 240 394 c 1,4,-1
 153 311 l 1,5,6
 153 243 153 243 153.5 175.5 c 128,-1,7
 154 108 154 108 154 40 c 1,8,-1
 236 40 l 1,9,-1
 236 0 l 1,10,-1
 35 0 l 1,11,-1
 35 40 l 1,12,-1
 112 40 l 1,13,-1
 112 660 l 1,14,-1
 35 660 l 1,15,-1
 35 700 l 1,16,-1
 228 700 l 1,17,-1
 228 660 l 1,18,-1
 154 660 l 1,19,-1
 154 386 l 1,20,21
 153 378 153 378 152.5 371 c 128,-1,22
 152 364 152 364 152 356 c 1,23,-1
 170 377 l 1,24,-1
 466 660 l 1,25,-1
 413 660 l 1,26,-1
 413 700 l 1,27,-1
 606 700 l 1,28,-1
 606 660 l 1,29,-1
 520 660 l 1,30,-1
 269 421 l 1,31,32
 344 325 344 325 419 230 c 128,-1,33
 494 135 494 135 569 40 c 1,34,-1
 651 40 l 1,35,-1
 651 0 l 1,36,-1
 458 0 l 1,37,-1
 458 40 l 1,0,-1
EndSplineSet
EndChar

StartChar: L
Encoding: 76 76 47
Width: 568
Flags: W
LayerCount: 2
Fore
SplineSet
35 40 m 1,0,-1
 104 40 l 1,1,-1
 104 660 l 1,2,-1
 35 660 l 1,3,-1
 35 700 l 1,4,-1
 228 700 l 1,5,-1
 228 660 l 1,6,-1
 145 660 l 1,7,-1
 145 40 l 1,8,-1
 493 40 l 1,9,-1
 493 154 l 1,10,-1
 533 154 l 1,11,-1
 533 0 l 1,12,-1
 35 0 l 1,13,-1
 35 40 l 1,0,-1
EndSplineSet
EndChar

StartChar: M
Encoding: 77 77 48
Width: 967
Flags: W
LayerCount: 2
Fore
SplineSet
824 700 m 1,0,-1
 929 700 l 1,1,-1
 929 660 l 1,2,-1
 848 660 l 1,3,-1
 848 40 l 1,4,-1
 932 40 l 1,5,-1
 932 0 l 1,6,-1
 731 0 l 1,7,-1
 731 40 l 1,8,-1
 806 40 l 1,9,-1
 806 575 l 2,10,11
 806 576 806 576 806.5 582 c 128,-1,12
 807 588 807 588 807.5 594.5 c 128,-1,13
 808 601 808 601 808 607 c 128,-1,14
 808 613 808 613 808 615 c 1,15,16
 805 610 805 610 800.5 603.5 c 128,-1,17
 796 597 796 597 790 589 c 0,18,19
 768 559 768 559 730.5 510 c 128,-1,20
 693 461 693 461 650 405 c 128,-1,21
 607 349 607 349 562.5 291.5 c 128,-1,22
 518 234 518 234 482 187 c 1,23,24
 413 277 413 277 365 340 c 128,-1,25
 317 403 317 403 281.5 449.5 c 128,-1,26
 246 496 246 496 219.5 530 c 128,-1,27
 193 564 193 564 168 596 c 1,28,-1
 156 615 l 1,29,30
 156 604 156 604 156.5 594.5 c 128,-1,31
 157 585 157 585 158 575 c 1,32,-1
 158 40 l 1,33,-1
 236 40 l 1,34,-1
 236 0 l 1,35,-1
 35 0 l 1,36,-1
 35 40 l 1,37,-1
 116 40 l 1,38,-1
 116 660 l 1,39,-1
 35 660 l 1,40,-1
 35 700 l 1,41,-1
 140 700 l 1,42,43
 151 685 151 685 173 656.5 c 128,-1,44
 195 628 195 628 223.5 591 c 128,-1,45
 252 554 252 554 285 510.5 c 128,-1,46
 318 467 318 467 352.5 422.5 c 128,-1,47
 387 378 387 378 420.5 335 c 128,-1,48
 454 292 454 292 482 255 c 1,49,50
 568 366 568 366 653 477.5 c 128,-1,51
 738 589 738 589 824 700 c 1,0,-1
EndSplineSet
EndChar

StartChar: N
Encoding: 78 78 49
Width: 846
Flags: W
LayerCount: 2
Fore
SplineSet
35 40 m 1,0,-1
 116 40 l 1,1,-1
 116 660 l 1,2,-1
 35 660 l 1,3,-1
 35 700 l 1,4,-1
 143 700 l 1,5,-1
 669 88 l 1,6,-1
 688 62 l 1,7,-1
 685 94 l 1,8,-1
 685 660 l 1,9,-1
 610 660 l 1,10,-1
 610 700 l 1,11,-1
 811 700 l 1,12,-1
 811 660 l 1,13,-1
 727 660 l 1,14,-1
 727 -32 l 1,15,-1
 174 607 l 1,16,-1
 155 629 l 1,17,-1
 158 601 l 1,18,-1
 158 40 l 1,19,-1
 236 40 l 1,20,-1
 236 0 l 1,21,-1
 35 0 l 1,22,-1
 35 40 l 1,0,-1
EndSplineSet
EndChar

StartChar: O
Encoding: 79 79 50
Width: 786
Flags: W
LayerCount: 2
Fore
SplineSet
35 349 m 256,0,1
 35 423 35 423 63 488.5 c 128,-1,2
 91 554 91 554 139.5 602.5 c 128,-1,3
 188 651 188 651 253 679.5 c 128,-1,4
 318 708 318 708 392 708 c 256,5,6
 466 708 466 708 531.5 679.5 c 128,-1,7
 597 651 597 651 645.5 602.5 c 128,-1,8
 694 554 694 554 722.5 488.5 c 128,-1,9
 751 423 751 423 751 349 c 256,10,11
 751 275 751 275 722.5 210 c 128,-1,12
 694 145 694 145 645.5 96.5 c 128,-1,13
 597 48 597 48 531.5 20 c 128,-1,14
 466 -8 466 -8 392 -8 c 256,15,16
 318 -8 318 -8 253 20 c 128,-1,17
 188 48 188 48 139.5 96.5 c 128,-1,18
 91 145 91 145 63 210 c 128,-1,19
 35 275 35 275 35 349 c 256,0,1
77 348 m 256,20,21
 77 282 77 282 101.5 224.5 c 128,-1,22
 126 167 126 167 169 124.5 c 128,-1,23
 212 82 212 82 269 57 c 128,-1,24
 326 32 326 32 391 32 c 256,25,26
 456 32 456 32 514 57 c 128,-1,27
 572 82 572 82 615.5 125 c 128,-1,28
 659 168 659 168 684 225.5 c 128,-1,29
 709 283 709 283 709 349 c 256,30,31
 709 415 709 415 684 473 c 128,-1,32
 659 531 659 531 616 574.5 c 128,-1,33
 573 618 573 618 515 643 c 128,-1,34
 457 668 457 668 392 668 c 256,35,36
 327 668 327 668 269.5 642.5 c 128,-1,37
 212 617 212 617 169 573.5 c 128,-1,38
 126 530 126 530 101.5 472 c 128,-1,39
 77 414 77 414 77 348 c 256,20,21
EndSplineSet
EndChar

StartChar: P
Encoding: 80 80 51
Width: 495
Flags: W
LayerCount: 2
Fore
SplineSet
35 40 m 1,0,-1
 96 40 l 1,1,-1
 96 660 l 1,2,-1
 35 660 l 1,3,-1
 35 700 l 1,4,-1
 246 700 l 2,5,6
 277 700 277 700 314 690 c 128,-1,7
 351 680 351 680 383.5 658 c 128,-1,8
 416 636 416 636 438 601 c 128,-1,9
 460 566 460 566 460 517 c 0,10,11
 460 431 460 431 405.5 380 c 128,-1,12
 351 329 351 329 248 329 c 2,13,-1
 137 329 l 1,14,-1
 137 40 l 1,15,-1
 236 40 l 1,16,-1
 236 0 l 1,17,-1
 35 0 l 1,18,-1
 35 40 l 1,0,-1
137 370 m 1,19,-1
 241 370 l 2,20,21
 293 370 293 370 327.5 384 c 128,-1,22
 362 398 362 398 382.5 420 c 128,-1,23
 403 442 403 442 411 467.5 c 128,-1,24
 419 493 419 493 419 517 c 0,25,26
 419 545 419 545 405.5 571 c 128,-1,27
 392 597 392 597 368 617 c 128,-1,28
 344 637 344 637 311.5 648.5 c 128,-1,29
 279 660 279 660 242 660 c 2,30,-1
 137 660 l 1,31,-1
 137 370 l 1,19,-1
EndSplineSet
EndChar

StartChar: Q
Encoding: 81 81 52
Width: 808
Flags: W
LayerCount: 2
Fore
SplineSet
77 348 m 0,0,1
 77 283 77 283 101.5 225.5 c 128,-1,2
 126 168 126 168 169 125 c 128,-1,3
 212 82 212 82 268.5 57 c 128,-1,4
 325 32 325 32 390 32 c 0,5,6
 456 32 456 32 514 57 c 128,-1,7
 572 82 572 82 615.5 125 c 128,-1,8
 659 168 659 168 684 225.5 c 128,-1,9
 709 283 709 283 709 349 c 256,10,11
 709 415 709 415 684 473 c 128,-1,12
 659 531 659 531 616 574.5 c 128,-1,13
 573 618 573 618 515 643 c 128,-1,14
 457 668 457 668 392 668 c 256,15,16
 327 668 327 668 269.5 642.5 c 128,-1,17
 212 617 212 617 169 573.5 c 128,-1,18
 126 530 126 530 101.5 472 c 128,-1,19
 77 414 77 414 77 348 c 0,0,1
35 349 m 256,20,21
 35 423 35 423 63 488.5 c 128,-1,22
 91 554 91 554 139.5 602.5 c 128,-1,23
 188 651 188 651 253 679.5 c 128,-1,24
 318 708 318 708 392 708 c 256,25,26
 466 708 466 708 531.5 679.5 c 128,-1,27
 597 651 597 651 645.5 602.5 c 128,-1,28
 694 554 694 554 722.5 488.5 c 128,-1,29
 751 423 751 423 751 349 c 0,30,31
 751 298 751 298 737 251 c 128,-1,32
 723 204 723 204 698 164.5 c 128,-1,33
 673 125 673 125 637.5 93 c 128,-1,34
 602 61 602 61 560 40 c 1,35,-1
 773 40 l 1,36,-1
 773 0 l 1,37,-1
 466 0 l 1,38,39
 428 -8 428 -8 392 -8 c 0,40,41
 318 -8 318 -8 253 20 c 128,-1,42
 188 48 188 48 139.5 96.5 c 128,-1,43
 91 145 91 145 63 210 c 128,-1,44
 35 275 35 275 35 349 c 256,20,21
EndSplineSet
EndChar

StartChar: R
Encoding: 82 82 53
Width: 572
Flags: W
LayerCount: 2
Fore
SplineSet
35 40 m 1,0,-1
 96 40 l 1,1,-1
 96 660 l 1,2,-1
 35 660 l 1,3,-1
 35 700 l 1,4,-1
 246 700 l 2,5,6
 277 700 277 700 314 690 c 128,-1,7
 351 680 351 680 383.5 658 c 128,-1,8
 416 636 416 636 438 601 c 128,-1,9
 460 566 460 566 460 517 c 0,10,11
 460 445 460 445 421.5 397.5 c 128,-1,12
 383 350 383 350 310 335 c 1,13,-1
 449 40 l 1,14,-1
 537 40 l 1,15,-1
 537 0 l 1,16,-1
 423 0 l 1,17,-1
 267 331 l 1,18,19
 256 330 256 330 244 329.5 c 128,-1,20
 232 329 232 329 221 329 c 2,21,-1
 137 329 l 1,22,-1
 137 40 l 1,23,-1
 236 40 l 1,24,-1
 236 0 l 1,25,-1
 35 0 l 1,26,-1
 35 40 l 1,0,-1
137 370 m 1,27,-1
 241 370 l 2,28,29
 293 370 293 370 327.5 384 c 128,-1,30
 362 398 362 398 382.5 420 c 128,-1,31
 403 442 403 442 411 467.5 c 128,-1,32
 419 493 419 493 419 517 c 0,33,34
 419 545 419 545 405.5 571 c 128,-1,35
 392 597 392 597 368 617 c 128,-1,36
 344 637 344 637 311.5 648.5 c 128,-1,37
 279 660 279 660 242 660 c 2,38,-1
 137 660 l 1,39,-1
 137 370 l 1,27,-1
EndSplineSet
EndChar

StartChar: S
Encoding: 83 83 54
Width: 478
Flags: W
LayerCount: 2
Fore
SplineSet
36 76 m 1,0,-1
 36 182 l 1,1,-1
 76 182 l 1,2,-1
 76 92 l 1,3,4
 104 67 104 67 144 49.5 c 128,-1,5
 184 32 184 32 239 32 c 0,6,7
 272 32 272 32 303.5 42.5 c 128,-1,8
 335 53 335 53 359 72.5 c 128,-1,9
 383 92 383 92 397.5 120 c 128,-1,10
 412 148 412 148 412 184 c 0,11,12
 412 228 412 228 397 256 c 128,-1,13
 382 284 382 284 358 302 c 128,-1,14
 334 320 334 320 303 331 c 128,-1,15
 272 342 272 342 239.5 351.5 c 128,-1,16
 207 361 207 361 175.5 372 c 128,-1,17
 144 383 144 383 118.5 401 c 128,-1,18
 93 419 93 419 77 446.5 c 128,-1,19
 61 474 61 474 59 517 c 0,20,21
 57 550 57 550 67 583.5 c 128,-1,22
 77 617 77 617 99 643.5 c 128,-1,23
 121 670 121 670 156 687 c 128,-1,24
 191 704 191 704 241 704 c 0,25,26
 258 704 258 704 278 702 c 128,-1,27
 298 700 298 700 319 695 c 128,-1,28
 340 690 340 690 361 680 c 128,-1,29
 382 670 382 670 401 654 c 1,30,-1
 401 546 l 1,31,-1
 361 546 l 1,32,-1
 361 634 l 1,33,34
 342 646 342 646 311.5 655 c 128,-1,35
 281 664 281 664 240 664 c 0,36,37
 205 664 205 664 179 652.5 c 128,-1,38
 153 641 153 641 135.5 621.5 c 128,-1,39
 118 602 118 602 109.5 576.5 c 128,-1,40
 101 551 101 551 101 524 c 0,41,42
 101 488 101 488 116 465 c 128,-1,43
 131 442 131 442 155.5 427 c 128,-1,44
 180 412 180 412 211.5 402 c 128,-1,45
 243 392 243 392 276 382 c 128,-1,46
 309 372 309 372 340.5 358.5 c 128,-1,47
 372 345 372 345 397 323.5 c 128,-1,48
 422 302 422 302 437.5 269 c 128,-1,49
 453 236 453 236 454 186 c 0,50,51
 454 142 454 142 437.5 106 c 128,-1,52
 421 70 421 70 392.5 44.5 c 128,-1,53
 364 19 364 19 325 5.5 c 128,-1,54
 286 -8 286 -8 243 -8 c 0,55,56
 204 -8 204 -8 171 0 c 128,-1,57
 138 8 138 8 111.5 20.5 c 128,-1,58
 85 33 85 33 66 48 c 128,-1,59
 47 63 47 63 36 76 c 1,0,-1
EndSplineSet
EndChar

StartChar: T
Encoding: 84 84 55
Width: 623
Flags: W
LayerCount: 2
Fore
SplineSet
209 40 m 1,0,-1
 291 40 l 1,1,-1
 291 660 l 1,2,-1
 75 660 l 1,3,-1
 75 546 l 1,4,-1
 35 546 l 1,5,-1
 35 700 l 1,6,-1
 588 700 l 1,7,-1
 588 546 l 1,8,-1
 548 546 l 1,9,-1
 548 660 l 1,10,-1
 332 660 l 1,11,-1
 332 40 l 1,12,-1
 410 40 l 1,13,-1
 410 0 l 1,14,-1
 209 0 l 1,15,-1
 209 40 l 1,0,-1
EndSplineSet
EndChar

StartChar: U
Encoding: 85 85 56
Width: 696
Flags: W
LayerCount: 2
Fore
SplineSet
35 700 m 1,0,-1
 236 700 l 1,1,-1
 236 660 l 1,2,-1
 154 660 l 1,3,-1
 154 229 l 2,4,5
 154 181 154 181 168.5 144.5 c 128,-1,6
 183 108 183 108 208.5 83 c 128,-1,7
 234 58 234 58 269.5 45 c 128,-1,8
 305 32 305 32 348 32 c 0,9,10
 390 32 390 32 425.5 45 c 128,-1,11
 461 58 461 58 487 83 c 128,-1,12
 513 108 513 108 527.5 144.5 c 128,-1,13
 542 181 542 181 542 229 c 2,14,-1
 542 660 l 1,15,-1
 460 660 l 1,16,-1
 460 700 l 1,17,-1
 661 700 l 1,18,-1
 661 660 l 1,19,-1
 584 660 l 1,20,-1
 584 226 l 2,21,22
 584 169 584 169 566 125 c 128,-1,23
 548 81 548 81 516 51.5 c 128,-1,24
 484 22 484 22 441 7 c 128,-1,25
 398 -8 398 -8 348 -8 c 0,26,27
 297 -8 297 -8 254 7 c 128,-1,28
 211 22 211 22 179.5 51.5 c 128,-1,29
 148 81 148 81 130 125 c 128,-1,30
 112 169 112 169 112 226 c 2,31,-1
 112 660 l 1,32,-1
 35 660 l 1,33,-1
 35 700 l 1,0,-1
EndSplineSet
EndChar

StartChar: V
Encoding: 86 86 57
Width: 830
Flags: W
LayerCount: 2
Fore
SplineSet
35 700 m 1,0,-1
 236 700 l 1,1,-1
 236 660 l 1,2,-1
 162 660 l 1,3,4
 222 516 222 516 282.5 374 c 128,-1,5
 343 232 343 232 404 89 c 1,6,-1
 413 61 l 1,7,-1
 422 89 l 1,8,9
 482 232 482 232 542.5 374 c 128,-1,10
 603 516 603 516 663 660 c 1,11,-1
 594 660 l 1,12,-1
 594 700 l 1,13,-1
 795 700 l 1,14,-1
 795 660 l 1,15,-1
 706 660 l 1,16,17
 633 486 633 486 559.5 314 c 128,-1,18
 486 142 486 142 413 -32 c 1,19,20
 339 142 339 142 265.5 314 c 128,-1,21
 192 486 192 486 119 660 c 1,22,-1
 35 660 l 1,23,-1
 35 700 l 1,0,-1
EndSplineSet
EndChar

StartChar: W
Encoding: 87 87 58
Width: 1203
Flags: W
LayerCount: 2
Fore
SplineSet
35 700 m 1,0,-1
 236 700 l 1,1,-1
 236 660 l 1,2,-1
 162 660 l 1,3,4
 222 516 222 516 281.5 374 c 128,-1,5
 341 232 341 232 404 89 c 1,6,-1
 413 61 l 1,7,8
 446 161 446 161 491 260 c 128,-1,9
 536 359 536 359 578 457 c 1,10,11
 557 508 557 508 535.5 558.5 c 128,-1,12
 514 609 514 609 492 660 c 1,13,-1
 408 660 l 1,14,-1
 408 700 l 1,15,-1
 609 700 l 1,16,-1
 609 660 l 1,17,-1
 534 660 l 1,18,19
 594 516 594 516 654 374 c 128,-1,20
 714 232 714 232 776 89 c 1,21,-1
 785 61 l 1,22,-1
 794 89 l 1,23,24
 855 232 855 232 915.5 374 c 128,-1,25
 976 516 976 516 1036 660 c 1,26,-1
 967 660 l 1,27,-1
 967 700 l 1,28,-1
 1168 700 l 1,29,-1
 1168 660 l 1,30,-1
 1078 660 l 1,31,32
 1005 486 1005 486 932 314 c 128,-1,33
 859 142 859 142 785 -32 c 1,34,-1
 608 385 l 1,35,-1
 599 412 l 1,36,37
 559 301 559 301 509 189 c 128,-1,38
 459 77 459 77 413 -32 c 1,39,40
 339 142 339 142 265.5 314 c 128,-1,41
 192 486 192 486 119 660 c 1,42,-1
 35 660 l 1,43,-1
 35 700 l 1,0,-1
EndSplineSet
EndChar

StartChar: X
Encoding: 88 88 59
Width: 704
Flags: W
LayerCount: 2
Fore
SplineSet
35 700 m 1,0,-1
 236 700 l 1,1,-1
 236 660 l 1,2,-1
 179 660 l 1,3,4
 221 597 221 597 261.5 534 c 128,-1,5
 302 471 302 471 343 408 c 1,6,-1
 353 390 l 1,7,-1
 363 408 l 1,8,-1
 525 660 l 1,9,-1
 467 660 l 1,10,-1
 467 700 l 1,11,-1
 669 700 l 1,12,-1
 669 660 l 1,13,-1
 575 660 l 1,14,15
 526 582 526 582 477 506.5 c 128,-1,16
 428 431 428 431 378 354 c 1,17,18
 429 275 429 275 480.5 197 c 128,-1,19
 532 119 532 119 583 40 c 1,20,-1
 669 40 l 1,21,-1
 669 0 l 1,22,-1
 467 0 l 1,23,-1
 467 40 l 1,24,-1
 531 40 l 1,25,-1
 381 271 l 2,26,27
 373 283 373 283 365 297 c 128,-1,28
 357 311 357 311 349 323 c 1,29,-1
 339 304 l 1,30,31
 296 237 296 237 253.5 171.5 c 128,-1,32
 211 106 211 106 169 40 c 1,33,-1
 236 40 l 1,34,-1
 236 0 l 1,35,-1
 35 0 l 1,36,-1
 35 40 l 1,37,-1
 118 40 l 1,38,-1
 324 359 l 1,39,-1
 128 660 l 1,40,-1
 35 660 l 1,41,-1
 35 700 l 1,0,-1
EndSplineSet
EndChar

StartChar: Y
Encoding: 89 89 60
Width: 746
Flags: W
LayerCount: 2
Fore
SplineSet
275 40 m 1,0,-1
 349 40 l 1,1,-1
 349 265 l 1,2,3
 289 364 289 364 230.5 462.5 c 128,-1,4
 172 561 172 561 113 660 c 1,5,-1
 35 660 l 1,6,-1
 35 700 l 1,7,-1
 236 700 l 1,8,-1
 236 660 l 1,9,-1
 163 660 l 1,10,11
 263 495 263 495 361 330 c 1,12,-1
 373 302 l 1,13,-1
 374 302 l 1,14,-1
 385 330 l 1,15,-1
 582 660 l 1,16,-1
 510 660 l 1,17,-1
 510 700 l 1,18,-1
 711 700 l 1,19,-1
 711 660 l 1,20,-1
 633 660 l 1,21,22
 574 560 574 560 515.5 462 c 128,-1,23
 457 364 457 364 398 265 c 1,24,-1
 398 40 l 1,25,-1
 476 40 l 1,26,-1
 476 0 l 1,27,-1
 275 0 l 1,28,-1
 275 40 l 1,0,-1
EndSplineSet
EndChar

StartChar: Z
Encoding: 90 90 61
Width: 629
Flags: W
LayerCount: 2
Fore
SplineSet
594 201 m 1,0,-1
 594 0 l 1,1,-1
 35 0 l 1,2,-1
 35 40 l 1,3,-1
 512 660 l 1,4,-1
 52 660 l 1,5,-1
 52 735 l 1,6,-1
 94 735 l 1,7,-1
 94 700 l 1,8,-1
 565 700 l 1,9,-1
 565 660 l 1,10,-1
 88 40 l 1,11,-1
 554 40 l 1,12,-1
 554 201 l 1,13,-1
 594 201 l 1,0,-1
EndSplineSet
EndChar

StartChar: bracketleft
Encoding: 91 91 62
Width: 338
Flags: W
LayerCount: 2
Fore
SplineSet
83 -149 m 1,0,-1
 83 746 l 1,1,-1
 258 746 l 1,2,-1
 258 705 l 1,3,-1
 126 705 l 1,4,-1
 126 -108 l 1,5,-1
 258 -108 l 1,6,-1
 258 -149 l 1,7,-1
 83 -149 l 1,0,-1
EndSplineSet
EndChar

StartChar: backslash
Encoding: 92 92 63
Width: 346
Flags: W
LayerCount: 2
Fore
SplineSet
56 736 m 1,0,1
 126 546 126 546 195 358.5 c 128,-1,2
 264 171 264 171 334 -19 c 1,3,-1
 288 -19 l 1,4,5
 218 171 218 171 149 358.5 c 128,-1,6
 80 546 80 546 10 736 c 1,7,-1
 56 736 l 1,0,1
EndSplineSet
EndChar

StartChar: bracketright
Encoding: 93 93 64
Width: 342
Flags: W
LayerCount: 2
Fore
SplineSet
251 746 m 1,0,-1
 251 -149 l 1,1,-1
 76 -149 l 1,2,-1
 76 -108 l 1,3,-1
 208 -108 l 1,4,-1
 208 705 l 1,5,-1
 76 705 l 1,6,-1
 76 746 l 1,7,-1
 251 746 l 1,0,-1
EndSplineSet
EndChar

StartChar: asciicircum
Encoding: 94 94 65
Width: 470
Flags: W
LayerCount: 2
Fore
SplineSet
232 660 m 1,0,1
 262 615 262 615 292 569.5 c 128,-1,2
 322 524 322 524 352 479 c 1,3,-1
 319 479 l 1,4,5
 297 509 297 509 275.5 539.5 c 128,-1,6
 254 570 254 570 232 600 c 1,7,8
 210 570 210 570 188.5 539.5 c 128,-1,9
 167 509 167 509 145 479 c 1,10,-1
 112 479 l 1,11,12
 142 524 142 524 172 569.5 c 128,-1,13
 202 615 202 615 232 660 c 1,0,1
EndSplineSet
EndChar

StartChar: underscore
Encoding: 95 95 66
Width: 600
Flags: W
LayerCount: 2
Fore
SplineSet
500 0 m 1,0,-1
 100 0 l 1,1,-1
 100 41 l 1,2,-1
 500 41 l 1,3,-1
 500 0 l 1,0,-1
EndSplineSet
EndChar

StartChar: grave
Encoding: 96 96 67
Width: 200
Flags: W
LayerCount: 2
Fore
SplineSet
14 612 m 1,0,1
 37 579 37 579 59 545.5 c 128,-1,2
 81 512 81 512 104 479 c 1,3,-1
 71 479 l 1,4,5
 46 512 46 512 21 545.5 c 128,-1,6
 -4 579 -4 579 -29 612 c 1,7,-1
 14 612 l 1,0,1
EndSplineSet
EndChar

StartChar: a
Encoding: 97 97 68
Width: 538
Flags: W
LayerCount: 2
Fore
SplineSet
35 188 m 0,0,1
 35 228 35 228 50.5 263.5 c 128,-1,2
 66 299 66 299 92.5 325.5 c 128,-1,3
 119 352 119 352 155 367.5 c 128,-1,4
 191 383 191 383 232 383 c 0,5,6
 261 383 261 383 287 374.5 c 128,-1,7
 313 366 313 366 334 352.5 c 128,-1,8
 355 339 355 339 369.5 321.5 c 128,-1,9
 384 304 384 304 391 287 c 1,10,11
 391 309 391 309 392.5 331 c 128,-1,12
 394 353 394 353 395 375 c 1,13,-1
 429 375 l 1,14,-1
 429 40 l 1,15,-1
 503 40 l 1,16,-1
 503 0 l 1,17,-1
 391 0 l 1,18,-1
 391 40 l 2,19,20
 391 52 391 52 391.5 63.5 c 128,-1,21
 392 75 392 75 392 86 c 1,22,23
 385 69 385 69 370.5 52 c 128,-1,24
 356 35 356 35 335.5 22 c 128,-1,25
 315 9 315 9 288.5 1 c 128,-1,26
 262 -7 262 -7 232 -7 c 0,27,28
 191 -7 191 -7 155 8.5 c 128,-1,29
 119 24 119 24 92.5 50 c 128,-1,30
 66 76 66 76 50.5 111.5 c 128,-1,31
 35 147 35 147 35 188 c 0,0,1
77 188 m 256,32,33
 77 156 77 156 89 128 c 128,-1,34
 101 100 101 100 121.5 79 c 128,-1,35
 142 58 142 58 170.5 46 c 128,-1,36
 199 34 199 34 232 34 c 256,37,38
 265 34 265 34 293 46 c 128,-1,39
 321 58 321 58 342 79 c 128,-1,40
 363 100 363 100 375 128 c 128,-1,41
 387 156 387 156 387 188 c 256,42,43
 387 220 387 220 375 248.5 c 128,-1,44
 363 277 363 277 342 298 c 128,-1,45
 321 319 321 319 293 331 c 128,-1,46
 265 343 265 343 232 343 c 256,47,48
 199 343 199 343 170.5 331 c 128,-1,49
 142 319 142 319 121.5 298 c 128,-1,50
 101 277 101 277 89 248.5 c 128,-1,51
 77 220 77 220 77 188 c 256,32,33
EndSplineSet
EndChar

StartChar: b
Encoding: 98 98 69
Width: 538
Flags: W
LayerCount: 2
Fore
SplineSet
35 40 m 1,0,-1
 109 40 l 1,1,-1
 109 710 l 1,2,-1
 39 710 l 1,3,-1
 39 750 l 1,4,-1
 151 750 l 1,5,-1
 151 337 l 1,6,7
 150 325 150 325 149 312.5 c 128,-1,8
 148 300 148 300 147 288 c 1,9,10
 154 306 154 306 168.5 323 c 128,-1,11
 183 340 183 340 204 353.5 c 128,-1,12
 225 367 225 367 251 375 c 128,-1,13
 277 383 277 383 306 383 c 0,14,15
 347 383 347 383 383 367.5 c 128,-1,16
 419 352 419 352 445.5 325.5 c 128,-1,17
 472 299 472 299 487.5 263.5 c 128,-1,18
 503 228 503 228 503 188 c 0,19,20
 503 147 503 147 487.5 111.5 c 128,-1,21
 472 76 472 76 445.5 50 c 128,-1,22
 419 24 419 24 383 8.5 c 128,-1,23
 347 -7 347 -7 306 -7 c 0,24,25
 276 -7 276 -7 249.5 1 c 128,-1,26
 223 9 223 9 202.5 22 c 128,-1,27
 182 35 182 35 167.5 52 c 128,-1,28
 153 69 153 69 146 86 c 1,29,30
 146 75 146 75 146.5 63.5 c 128,-1,31
 147 52 147 52 147 40 c 2,32,-1
 147 0 l 1,33,-1
 35 0 l 1,34,-1
 35 40 l 1,0,-1
461 188 m 256,35,36
 461 220 461 220 449 248.5 c 128,-1,37
 437 277 437 277 416.5 298 c 128,-1,38
 396 319 396 319 367.5 331 c 128,-1,39
 339 343 339 343 306 343 c 256,40,41
 273 343 273 343 245 331 c 128,-1,42
 217 319 217 319 196 298 c 128,-1,43
 175 277 175 277 163 248.5 c 128,-1,44
 151 220 151 220 151 188 c 256,45,46
 151 156 151 156 163 128 c 128,-1,47
 175 100 175 100 196 79 c 128,-1,48
 217 58 217 58 245 46 c 128,-1,49
 273 34 273 34 306 34 c 256,50,51
 339 34 339 34 367.5 46 c 128,-1,52
 396 58 396 58 416.5 79 c 128,-1,53
 437 100 437 100 449 128 c 128,-1,54
 461 156 461 156 461 188 c 256,35,36
EndSplineSet
EndChar

StartChar: c
Encoding: 99 99 70
Width: 391
Flags: W
LayerCount: 2
Fore
SplineSet
355 36 m 1,0,1
 329 16 329 16 298 4.5 c 128,-1,2
 267 -7 267 -7 231 -7 c 0,3,4
 190 -7 190 -7 154.5 8.5 c 128,-1,5
 119 24 119 24 92.5 50 c 128,-1,6
 66 76 66 76 50.5 111.5 c 128,-1,7
 35 147 35 147 35 188 c 0,8,9
 35 228 35 228 50.5 264 c 128,-1,10
 66 300 66 300 92.5 326 c 128,-1,11
 119 352 119 352 154.5 367.5 c 128,-1,12
 190 383 190 383 231 383 c 0,13,14
 267 383 267 383 299 371.5 c 128,-1,15
 331 360 331 360 356 340 c 1,16,-1
 356 242 l 1,17,-1
 318 242 l 1,18,-1
 318 316 l 1,19,20
 299 329 299 329 277.5 336 c 128,-1,21
 256 343 256 343 231 343 c 0,22,23
 198 343 198 343 170 331 c 128,-1,24
 142 319 142 319 121.5 298 c 128,-1,25
 101 277 101 277 89 248.5 c 128,-1,26
 77 220 77 220 77 188 c 256,27,28
 77 156 77 156 89 128 c 128,-1,29
 101 100 101 100 121.5 79 c 128,-1,30
 142 58 142 58 170 46 c 128,-1,31
 198 34 198 34 231 34 c 0,32,33
 288 34 288 34 329 67 c 1,34,-1
 355 36 l 1,0,1
EndSplineSet
EndChar

StartChar: d
Encoding: 100 100 71
Width: 538
Flags: W
LayerCount: 2
Fore
SplineSet
391 40 m 2,0,1
 391 52 391 52 391.5 63.5 c 128,-1,2
 392 75 392 75 392 86 c 1,3,4
 385 69 385 69 370.5 52 c 128,-1,5
 356 35 356 35 335.5 22 c 128,-1,6
 315 9 315 9 288.5 1 c 128,-1,7
 262 -7 262 -7 232 -7 c 0,8,9
 191 -7 191 -7 155 8.5 c 128,-1,10
 119 24 119 24 92.5 50 c 128,-1,11
 66 76 66 76 50.5 111.5 c 128,-1,12
 35 147 35 147 35 188 c 0,13,14
 35 228 35 228 50.5 263.5 c 128,-1,15
 66 299 66 299 92.5 325.5 c 128,-1,16
 119 352 119 352 155 367.5 c 128,-1,17
 191 383 191 383 232 383 c 0,18,19
 261 383 261 383 286.5 375 c 128,-1,20
 312 367 312 367 333 353.5 c 128,-1,21
 354 340 354 340 369 323 c 128,-1,22
 384 306 384 306 391 288 c 1,23,24
 390 309 390 309 389 330 c 128,-1,25
 388 351 388 351 387 372 c 1,26,-1
 387 710 l 1,27,-1
 317 710 l 1,28,-1
 317 750 l 1,29,-1
 429 750 l 1,30,-1
 429 40 l 1,31,-1
 503 40 l 1,32,-1
 503 0 l 1,33,-1
 391 0 l 1,34,-1
 391 40 l 2,0,1
77 188 m 256,35,36
 77 156 77 156 89 128 c 128,-1,37
 101 100 101 100 121.5 79 c 128,-1,38
 142 58 142 58 170.5 46 c 128,-1,39
 199 34 199 34 232 34 c 256,40,41
 265 34 265 34 293 46 c 128,-1,42
 321 58 321 58 342 79 c 128,-1,43
 363 100 363 100 375 128 c 128,-1,44
 387 156 387 156 387 188 c 256,45,46
 387 220 387 220 375 248.5 c 128,-1,47
 363 277 363 277 342 298 c 128,-1,48
 321 319 321 319 293 331 c 128,-1,49
 265 343 265 343 232 343 c 256,50,51
 199 343 199 343 170.5 331 c 128,-1,52
 142 319 142 319 121.5 298 c 128,-1,53
 101 277 101 277 89 248.5 c 128,-1,54
 77 220 77 220 77 188 c 256,35,36
EndSplineSet
EndChar

StartChar: e
Encoding: 101 101 72
Width: 441
Flags: W
LayerCount: 2
Fore
SplineSet
231 343 m 0,0,1
 194 343 194 343 163.5 327.5 c 128,-1,2
 133 312 133 312 112 286.5 c 128,-1,3
 91 261 91 261 82.5 227.5 c 128,-1,4
 74 194 74 194 81 159 c 1,5,6
 148 186 148 186 215 212.5 c 128,-1,7
 282 239 282 239 350 266 c 1,8,9
 333 300 333 300 301 321.5 c 128,-1,10
 269 343 269 343 231 343 c 0,0,1
403 243 m 1,11,12
 325 212 325 212 248 181.5 c 128,-1,13
 171 151 171 151 93 120 c 1,14,15
 110 82 110 82 147 58 c 128,-1,16
 184 34 184 34 231 34 c 0,17,18
 262 34 262 34 289 45 c 128,-1,19
 316 56 316 56 336 76 c 1,20,21
 343 68 343 68 349 60.5 c 128,-1,22
 355 53 355 53 362 45 c 1,23,24
 336 21 336 21 303 7 c 128,-1,25
 270 -7 270 -7 231 -7 c 0,26,27
 190 -7 190 -7 154.5 8.5 c 128,-1,28
 119 24 119 24 92.5 50 c 128,-1,29
 66 76 66 76 50.5 111.5 c 128,-1,30
 35 147 35 147 35 188 c 0,31,32
 35 228 35 228 50.5 264 c 128,-1,33
 66 300 66 300 92.5 326 c 128,-1,34
 119 352 119 352 154.5 367.5 c 128,-1,35
 190 383 190 383 231 383 c 0,36,37
 261 383 261 383 288 372.5 c 128,-1,38
 315 362 315 362 337.5 343.5 c 128,-1,39
 360 325 360 325 377 299.5 c 128,-1,40
 394 274 394 274 403 243 c 1,11,12
EndSplineSet
EndChar

StartChar: f
Encoding: 102 102 73
Width: 303
Flags: W
LayerCount: 2
Fore
SplineSet
35 40 m 1,0,-1
 96 40 l 1,1,-1
 96 334 l 1,2,-1
 35 334 l 1,3,-1
 35 375 l 1,4,-1
 96 375 l 1,5,-1
 96 518 l 2,6,7
 96 573 96 573 112 616 c 128,-1,8
 128 659 128 659 156 688 c 128,-1,9
 184 717 184 717 222 732.5 c 128,-1,10
 260 748 260 748 303 750 c 1,11,-1
 303 710 l 1,12,13
 269 709 269 709 238.5 696 c 128,-1,14
 208 683 208 683 185.5 658 c 128,-1,15
 163 633 163 633 150 598 c 128,-1,16
 137 563 137 563 137 519 c 2,17,-1
 137 375 l 1,18,-1
 262 375 l 1,19,-1
 262 334 l 1,20,-1
 137 334 l 1,21,-1
 137 40 l 1,22,-1
 228 40 l 1,23,-1
 228 0 l 1,24,-1
 35 0 l 1,25,-1
 35 40 l 1,0,-1
EndSplineSet
EndChar

StartChar: g
Encoding: 103 103 74
Width: 539
Flags: W
LayerCount: 2
Fore
SplineSet
395 375 m 1,0,-1
 504 375 l 1,1,-1
 504 335 l 1,2,-1
 429 335 l 1,3,-1
 429 -35 l 2,4,5
 429 -84 429 -84 414 -123.5 c 128,-1,6
 399 -163 399 -163 373 -191 c 128,-1,7
 347 -219 347 -219 312.5 -234 c 128,-1,8
 278 -249 278 -249 238 -250 c 1,9,10
 196 -249 196 -249 153.5 -234 c 128,-1,11
 111 -219 111 -219 84 -190 c 1,12,-1
 114 -159 l 1,13,14
 136 -183 136 -183 170 -195 c 128,-1,15
 204 -207 204 -207 237 -207 c 0,16,17
 268 -207 268 -207 295.5 -194.5 c 128,-1,18
 323 -182 323 -182 343 -159 c 128,-1,19
 363 -136 363 -136 375 -103.5 c 128,-1,20
 387 -71 387 -71 387 -32 c 2,21,-1
 387 40 l 1,22,23
 388 51 388 51 389 62.5 c 128,-1,24
 390 74 390 74 391 85 c 1,25,26
 383 67 383 67 368.5 50.5 c 128,-1,27
 354 34 354 34 333.5 21.5 c 128,-1,28
 313 9 313 9 287 1 c 128,-1,29
 261 -7 261 -7 232 -7 c 0,30,31
 191 -7 191 -7 155 8.5 c 128,-1,32
 119 24 119 24 92.5 50 c 128,-1,33
 66 76 66 76 50.5 111.5 c 128,-1,34
 35 147 35 147 35 188 c 0,35,36
 35 228 35 228 50.5 263.5 c 128,-1,37
 66 299 66 299 92.5 325.5 c 128,-1,38
 119 352 119 352 155 367.5 c 128,-1,39
 191 383 191 383 232 383 c 0,40,41
 261 383 261 383 287 374.5 c 128,-1,42
 313 366 313 366 334 352.5 c 128,-1,43
 355 339 355 339 369.5 321.5 c 128,-1,44
 384 304 384 304 391 287 c 1,45,46
 391 309 391 309 392.5 331 c 128,-1,47
 394 353 394 353 395 375 c 1,0,-1
77 188 m 256,48,49
 77 156 77 156 89 128 c 128,-1,50
 101 100 101 100 121.5 79 c 128,-1,51
 142 58 142 58 170.5 46 c 128,-1,52
 199 34 199 34 232 34 c 256,53,54
 265 34 265 34 293 46 c 128,-1,55
 321 58 321 58 342 79 c 128,-1,56
 363 100 363 100 375 128 c 128,-1,57
 387 156 387 156 387 188 c 256,58,59
 387 220 387 220 375 248.5 c 128,-1,60
 363 277 363 277 342 298 c 128,-1,61
 321 319 321 319 293 331 c 128,-1,62
 265 343 265 343 232 343 c 256,63,64
 199 343 199 343 170.5 331 c 128,-1,65
 142 319 142 319 121.5 298 c 128,-1,66
 101 277 101 277 89 248.5 c 128,-1,67
 77 220 77 220 77 188 c 256,48,49
EndSplineSet
EndChar

StartChar: h
Encoding: 104 104 75
Width: 545
Flags: W
LayerCount: 2
Fore
SplineSet
317 40 m 1,0,-1
 395 40 l 1,1,-1
 395 260 l 1,2,3
 393 292 393 292 371.5 316 c 128,-1,4
 350 340 350 340 308 342 c 1,5,6
 278 342 278 342 250 331.5 c 128,-1,7
 222 321 222 321 200.5 303 c 128,-1,8
 179 285 179 285 166.5 260 c 128,-1,9
 154 235 154 235 154 205 c 2,10,-1
 154 40 l 1,11,-1
 228 40 l 1,12,-1
 228 0 l 1,13,-1
 35 0 l 1,14,-1
 35 40 l 1,15,-1
 113 40 l 1,16,-1
 113 710 l 1,17,-1
 39 710 l 1,18,-1
 39 750 l 1,19,-1
 154 750 l 1,20,-1
 154 323 l 1,21,-1
 151 278 l 1,22,23
 172 326 172 326 215.5 353.5 c 128,-1,24
 259 381 259 381 316 383 c 1,25,26
 371 383 371 383 403 352 c 128,-1,27
 435 321 435 321 437 271 c 1,28,-1
 437 40 l 1,29,-1
 510 40 l 1,30,-1
 510 0 l 1,31,-1
 317 0 l 1,32,-1
 317 40 l 1,0,-1
EndSplineSet
EndChar

StartChar: i
Encoding: 105 105 76
Width: 263
Flags: W
LayerCount: 2
Fore
SplineSet
35 40 m 1,0,-1
 112 40 l 1,1,-1
 112 335 l 1,2,-1
 35 335 l 1,3,-1
 35 375 l 1,4,-1
 154 375 l 1,5,-1
 154 40 l 1,6,-1
 228 40 l 1,7,-1
 228 0 l 1,8,-1
 35 0 l 1,9,-1
 35 40 l 1,0,-1
101 508 m 256,10,11
 101 522 101 522 111 531.5 c 128,-1,12
 121 541 121 541 134 541 c 0,13,14
 146 541 146 541 156 531.5 c 128,-1,15
 166 522 166 522 166 508 c 256,16,17
 166 494 166 494 156 484.5 c 128,-1,18
 146 475 146 475 134 475 c 0,19,20
 121 475 121 475 111 484.5 c 128,-1,21
 101 494 101 494 101 508 c 256,10,11
EndSplineSet
EndChar

StartChar: j
Encoding: 106 106 77
Width: 184
Flags: W
LayerCount: 2
Fore
SplineSet
35 375 m 1,0,-1
 149 375 l 1,1,-1
 149 -4 l 2,2,3
 149 -63 149 -63 131.5 -107 c 128,-1,4
 114 -151 114 -151 83 -180 c 1,5,-1
 53 -150 l 1,6,7
 79 -125 79 -125 93.5 -89 c 128,-1,8
 108 -53 108 -53 108 -5 c 2,9,-1
 108 335 l 1,10,-1
 35 335 l 1,11,-1
 35 375 l 1,0,-1
97 508 m 256,12,13
 97 522 97 522 107 531.5 c 128,-1,14
 117 541 117 541 130 541 c 256,15,16
 143 541 143 541 152.5 531.5 c 128,-1,17
 162 522 162 522 162 508 c 256,18,19
 162 494 162 494 152.5 484.5 c 128,-1,20
 143 475 143 475 130 475 c 256,21,22
 117 475 117 475 107 484.5 c 128,-1,23
 97 494 97 494 97 508 c 256,12,13
EndSplineSet
EndChar

StartChar: k
Encoding: 107 107 78
Width: 503
Flags: W
LayerCount: 2
Fore
SplineSet
283 40 m 1,0,-1
 331 40 l 1,1,2
 302 80 302 80 272.5 119.5 c 128,-1,3
 243 159 243 159 214 199 c 1,4,-1
 150 139 l 1,5,-1
 150 40 l 1,6,-1
 228 40 l 1,7,-1
 228 0 l 1,8,-1
 35 0 l 1,9,-1
 35 40 l 1,10,-1
 109 40 l 1,11,-1
 109 710 l 1,12,-1
 38 710 l 1,13,-1
 38 750 l 1,14,-1
 150 750 l 1,15,-1
 150 190 l 1,16,-1
 305 335 l 1,17,-1
 245 335 l 1,18,-1
 245 375 l 1,19,-1
 430 375 l 1,20,-1
 430 335 l 1,21,-1
 358 335 l 1,22,23
 327 306 327 306 301.5 281 c 128,-1,24
 276 256 276 256 245 227 c 1,25,26
 278 179 278 179 312 133 c 128,-1,27
 346 87 346 87 381 40 c 1,28,-1
 468 40 l 1,29,-1
 468 0 l 1,30,-1
 283 0 l 1,31,-1
 283 40 l 1,0,-1
EndSplineSet
EndChar

StartChar: l
Encoding: 108 108 79
Width: 263
Flags: W
LayerCount: 2
Fore
SplineSet
35 40 m 1,0,-1
 109 40 l 1,1,-1
 109 710 l 1,2,-1
 38 710 l 1,3,-1
 38 750 l 1,4,-1
 150 750 l 1,5,-1
 150 40 l 1,6,-1
 228 40 l 1,7,-1
 228 0 l 1,8,-1
 35 0 l 1,9,-1
 35 40 l 1,0,-1
EndSplineSet
EndChar

StartChar: m
Encoding: 109 109 80
Width: 828
Flags: W
LayerCount: 2
Fore
SplineSet
600 40 m 1,0,-1
 678 40 l 1,1,-1
 678 260 l 1,2,3
 676 292 676 292 654.5 316 c 128,-1,4
 633 340 633 340 591 342 c 1,5,6
 561 342 561 342 533 332 c 128,-1,7
 505 322 505 322 484 304 c 128,-1,8
 463 286 463 286 450.5 261.5 c 128,-1,9
 438 237 438 237 437 208 c 1,10,-1
 437 40 l 1,11,-1
 511 40 l 1,12,-1
 511 0 l 1,13,-1
 317 0 l 1,14,-1
 317 40 l 1,15,-1
 395 40 l 1,16,-1
 395 260 l 1,17,18
 393 292 393 292 371.5 316 c 128,-1,19
 350 340 350 340 308 342 c 1,20,21
 278 342 278 342 250 331.5 c 128,-1,22
 222 321 222 321 200.5 303 c 128,-1,23
 179 285 179 285 166.5 260 c 128,-1,24
 154 235 154 235 154 205 c 2,25,-1
 154 40 l 1,26,-1
 228 40 l 1,27,-1
 228 0 l 1,28,-1
 35 0 l 1,29,-1
 35 40 l 1,30,-1
 113 40 l 1,31,-1
 113 335 l 1,32,-1
 41 335 l 1,33,-1
 41 375 l 1,34,-1
 147 375 l 1,35,-1
 148 340 l 2,36,37
 149 323 149 323 150 309 c 128,-1,38
 151 295 151 295 151 278 c 1,39,40
 172 326 172 326 215.5 354 c 128,-1,41
 259 382 259 382 316 383 c 0,42,43
 367 383 367 383 398.5 355.5 c 128,-1,44
 430 328 430 328 436 283 c 1,45,46
 457 328 457 328 500 355 c 128,-1,47
 543 382 543 382 598 383 c 0,48,49
 653 383 653 383 685 352 c 128,-1,50
 717 321 717 321 719 271 c 1,51,-1
 719 40 l 1,52,-1
 793 40 l 1,53,-1
 793 0 l 1,54,-1
 600 0 l 1,55,-1
 600 40 l 1,0,-1
EndSplineSet
EndChar

StartChar: n
Encoding: 110 110 81
Width: 545
Flags: W
LayerCount: 2
Fore
SplineSet
317 40 m 1,0,-1
 395 40 l 1,1,-1
 395 260 l 1,2,3
 393 292 393 292 371.5 316 c 128,-1,4
 350 340 350 340 308 342 c 1,5,6
 278 342 278 342 250 331.5 c 128,-1,7
 222 321 222 321 200.5 303 c 128,-1,8
 179 285 179 285 166.5 260 c 128,-1,9
 154 235 154 235 154 205 c 2,10,-1
 154 40 l 1,11,-1
 228 40 l 1,12,-1
 228 0 l 1,13,-1
 35 0 l 1,14,-1
 35 40 l 1,15,-1
 113 40 l 1,16,-1
 113 335 l 1,17,-1
 41 335 l 1,18,-1
 41 375 l 1,19,-1
 147 375 l 1,20,-1
 148 340 l 2,21,22
 149 323 149 323 150 309 c 128,-1,23
 151 295 151 295 151 278 c 1,24,25
 171 325 171 325 215.5 354 c 128,-1,26
 260 383 260 383 316 383 c 0,27,28
 371 383 371 383 403 352 c 128,-1,29
 435 321 435 321 437 271 c 1,30,-1
 437 40 l 1,31,-1
 510 40 l 1,32,-1
 510 0 l 1,33,-1
 317 0 l 1,34,-1
 317 40 l 1,0,-1
EndSplineSet
EndChar

StartChar: o
Encoding: 111 111 82
Width: 465
Flags: W
LayerCount: 2
Fore
SplineSet
36 188 m 0,0,1
 36 228 36 228 51.5 264 c 128,-1,2
 67 300 67 300 93.5 326.5 c 128,-1,3
 120 353 120 353 155.5 368.5 c 128,-1,4
 191 384 191 384 232 384 c 256,5,6
 273 384 273 384 309 368.5 c 128,-1,7
 345 353 345 353 372 326.5 c 128,-1,8
 399 300 399 300 414.5 264 c 128,-1,9
 430 228 430 228 430 188 c 0,10,11
 430 147 430 147 414.5 111.5 c 128,-1,12
 399 76 399 76 372 50 c 128,-1,13
 345 24 345 24 309 8.5 c 128,-1,14
 273 -7 273 -7 232 -7 c 256,15,16
 191 -7 191 -7 155.5 8.5 c 128,-1,17
 120 24 120 24 93.5 50 c 128,-1,18
 67 76 67 76 51.5 111.5 c 128,-1,19
 36 147 36 147 36 188 c 0,0,1
77 188 m 256,20,21
 77 156 77 156 89 128 c 128,-1,22
 101 100 101 100 122 79 c 128,-1,23
 143 58 143 58 171 46 c 128,-1,24
 199 34 199 34 231 34 c 256,25,26
 263 34 263 34 291.5 46 c 128,-1,27
 320 58 320 58 341 79 c 128,-1,28
 362 100 362 100 374 128 c 128,-1,29
 386 156 386 156 386 188 c 256,30,31
 386 220 386 220 374 248 c 128,-1,32
 362 276 362 276 341 297 c 128,-1,33
 320 318 320 318 291.5 330.5 c 128,-1,34
 263 343 263 343 231 343 c 256,35,36
 199 343 199 343 171 330.5 c 128,-1,37
 143 318 143 318 122 297 c 128,-1,38
 101 276 101 276 89 248 c 128,-1,39
 77 220 77 220 77 188 c 256,20,21
EndSplineSet
EndChar

StartChar: p
Encoding: 112 112 83
Width: 538
Flags: W
LayerCount: 2
Fore
SplineSet
43 -210 m 1,0,-1
 110 -210 l 1,1,-1
 110 335 l 1,2,-1
 35 335 l 1,3,-1
 35 375 l 1,4,-1
 143 375 l 1,5,6
 143 353 143 353 144.5 330 c 128,-1,7
 146 307 146 307 147 285 c 1,8,9
 154 303 154 303 168.5 320.5 c 128,-1,10
 183 338 183 338 204 351.5 c 128,-1,11
 225 365 225 365 251.5 373.5 c 128,-1,12
 278 382 278 382 307 382 c 0,13,14
 348 382 348 382 384 366.5 c 128,-1,15
 420 351 420 351 446.5 325 c 128,-1,16
 473 299 473 299 488 263 c 128,-1,17
 503 227 503 227 503 187 c 256,18,19
 503 147 503 147 488 111.5 c 128,-1,20
 473 76 473 76 446.5 49.5 c 128,-1,21
 420 23 420 23 384 7.5 c 128,-1,22
 348 -8 348 -8 307 -8 c 0,23,24
 277 -8 277 -8 251 0 c 128,-1,25
 225 8 225 8 204.5 20.5 c 128,-1,26
 184 33 184 33 169.5 49.5 c 128,-1,27
 155 66 155 66 148 84 c 1,28,29
 149 74 149 74 150 64 c 128,-1,30
 151 54 151 54 152 44 c 1,31,-1
 152 -210 l 1,32,-1
 236 -210 l 1,33,-1
 236 -250 l 1,34,-1
 43 -250 l 1,35,-1
 43 -210 l 1,0,-1
461 187 m 0,36,37
 461 220 461 220 449 248 c 128,-1,38
 437 276 437 276 416.5 296.5 c 128,-1,39
 396 317 396 317 368 329 c 128,-1,40
 340 341 340 341 307 341 c 256,41,42
 274 341 274 341 245.5 329 c 128,-1,43
 217 317 217 317 196 296.5 c 128,-1,44
 175 276 175 276 163 248 c 128,-1,45
 151 220 151 220 151 187 c 0,46,47
 151 155 151 155 163 126.5 c 128,-1,48
 175 98 175 98 196 77 c 128,-1,49
 217 56 217 56 245.5 44 c 128,-1,50
 274 32 274 32 307 32 c 256,51,52
 340 32 340 32 368 44 c 128,-1,53
 396 56 396 56 416.5 77 c 128,-1,54
 437 98 437 98 449 126.5 c 128,-1,55
 461 155 461 155 461 187 c 0,36,37
EndSplineSet
EndChar

StartChar: q
Encoding: 113 113 84
Width: 540
Flags: W
LayerCount: 2
Fore
SplineSet
303 -210 m 1,0,-1
 387 -210 l 1,1,-1
 387 44 l 2,2,3
 387 54 387 54 388.5 64 c 128,-1,4
 390 74 390 74 391 84 c 1,5,6
 383 66 383 66 368.5 49.5 c 128,-1,7
 354 33 354 33 333.5 20.5 c 128,-1,8
 313 8 313 8 287 0 c 128,-1,9
 261 -8 261 -8 232 -8 c 0,10,11
 191 -8 191 -8 155 7.5 c 128,-1,12
 119 23 119 23 92.5 49.5 c 128,-1,13
 66 76 66 76 50.5 111.5 c 128,-1,14
 35 147 35 147 35 187 c 256,15,16
 35 227 35 227 50.5 263 c 128,-1,17
 66 299 66 299 92.5 325 c 128,-1,18
 119 351 119 351 155 366.5 c 128,-1,19
 191 382 191 382 232 382 c 0,20,21
 261 382 261 382 287 373.5 c 128,-1,22
 313 365 313 365 334 351.5 c 128,-1,23
 355 338 355 338 370 320.5 c 128,-1,24
 385 303 385 303 392 285 c 1,25,26
 392 307 392 307 393.5 329.5 c 128,-1,27
 395 352 395 352 395 375 c 1,28,-1
 505 375 l 1,29,-1
 505 335 l 1,30,-1
 429 335 l 1,31,-1
 429 -210 l 1,32,-1
 497 -210 l 1,33,-1
 497 -250 l 1,34,-1
 303 -250 l 1,35,-1
 303 -210 l 1,0,-1
77 187 m 0,36,37
 77 155 77 155 89 126.5 c 128,-1,38
 101 98 101 98 121.5 77 c 128,-1,39
 142 56 142 56 170.5 44 c 128,-1,40
 199 32 199 32 232 32 c 256,41,42
 265 32 265 32 293 44 c 128,-1,43
 321 56 321 56 342 77 c 128,-1,44
 363 98 363 98 375 126.5 c 128,-1,45
 387 155 387 155 387 187 c 0,46,47
 387 220 387 220 375 248 c 128,-1,48
 363 276 363 276 342 296.5 c 128,-1,49
 321 317 321 317 293 329 c 128,-1,50
 265 341 265 341 232 341 c 256,51,52
 199 341 199 341 170.5 329 c 128,-1,53
 142 317 142 317 121.5 296.5 c 128,-1,54
 101 276 101 276 89 248 c 128,-1,55
 77 220 77 220 77 187 c 0,36,37
EndSplineSet
EndChar

StartChar: r
Encoding: 114 114 85
Width: 344
Flags: W
LayerCount: 2
Fore
SplineSet
35 40 m 1,0,-1
 113 40 l 1,1,-1
 113 335 l 1,2,-1
 41 335 l 1,3,-1
 41 375 l 1,4,-1
 147 375 l 1,5,-1
 148 340 l 2,6,7
 149 323 149 323 150 309 c 128,-1,8
 151 295 151 295 151 278 c 1,9,10
 174 327 174 327 218.5 354.5 c 128,-1,11
 263 382 263 382 309 383 c 1,12,-1
 306 342 l 1,13,14
 274 341 274 341 246.5 330.5 c 128,-1,15
 219 320 219 320 198.5 302 c 128,-1,16
 178 284 178 284 166 259 c 128,-1,17
 154 234 154 234 154 205 c 2,18,-1
 154 40 l 1,19,-1
 228 40 l 1,20,-1
 228 0 l 1,21,-1
 35 0 l 1,22,-1
 35 40 l 1,0,-1
EndSplineSet
EndChar

StartChar: s
Encoding: 115 115 86
Width: 322
Flags: W
LayerCount: 2
Fore
SplineSet
90 103 m 1,0,-1
 90 52 l 1,1,2
 108 39 108 39 129.5 36 c 128,-1,3
 151 33 151 33 172 33 c 0,4,5
 181 33 181 33 194 36.5 c 128,-1,6
 207 40 207 40 219 48.5 c 128,-1,7
 231 57 231 57 240 70 c 128,-1,8
 249 83 249 83 249 102 c 0,9,10
 249 128 249 128 236 142 c 128,-1,11
 223 156 223 156 202.5 164.5 c 128,-1,12
 182 173 182 173 158 179.5 c 128,-1,13
 134 186 134 186 113.5 197 c 128,-1,14
 93 208 93 208 79 226 c 128,-1,15
 65 244 65 244 65 277 c 0,16,17
 65 303 65 303 75 322.5 c 128,-1,18
 85 342 85 342 100.5 355 c 128,-1,19
 116 368 116 368 135.5 374.5 c 128,-1,20
 155 381 155 381 173 381 c 0,21,22
 177 381 177 381 189.5 380 c 128,-1,23
 202 379 202 379 218 375.5 c 128,-1,24
 234 372 234 372 249.5 365 c 128,-1,25
 265 358 265 358 276 346 c 1,26,-1
 276 272 l 1,27,-1
 238 272 l 1,28,-1
 238 325 l 1,29,30
 231 331 231 331 221 334 c 128,-1,31
 211 337 211 337 201.5 338.5 c 128,-1,32
 192 340 192 340 184.5 340 c 128,-1,33
 177 340 177 340 174 340 c 0,34,35
 162 340 162 340 150 336.5 c 128,-1,36
 138 333 138 333 128 325.5 c 128,-1,37
 118 318 118 318 112.5 306.5 c 128,-1,38
 107 295 107 295 107 278 c 0,39,40
 107 256 107 256 121 243.5 c 128,-1,41
 135 231 135 231 155.5 222.5 c 128,-1,42
 176 214 176 214 199.5 206.5 c 128,-1,43
 223 199 223 199 243.5 187 c 128,-1,44
 264 175 264 175 277.5 156 c 128,-1,45
 291 137 291 137 291 105 c 0,46,47
 291 88 291 88 284.5 68.5 c 128,-1,48
 278 49 278 49 264 32 c 128,-1,49
 250 15 250 15 226.5 3.5 c 128,-1,50
 203 -8 203 -8 170 -8 c 0,51,52
 160 -8 160 -8 144.5 -6.5 c 128,-1,53
 129 -5 129 -5 112 -1 c 128,-1,54
 95 3 95 3 79 10 c 128,-1,55
 63 17 63 17 52 29 c 1,56,-1
 52 103 l 1,57,-1
 90 103 l 1,0,-1
EndSplineSet
EndChar

StartChar: t
Encoding: 116 116 87
Width: 314
Flags: W
LayerCount: 2
Fore
SplineSet
122 619 m 1,0,-1
 164 619 l 1,1,-1
 164 375 l 1,2,-1
 279 375 l 1,3,-1
 279 334 l 1,4,-1
 164 334 l 1,5,-1
 164 40 l 1,6,-1
 246 40 l 1,7,-1
 246 0 l 1,8,-1
 122 0 l 1,9,-1
 122 334 l 1,10,-1
 35 334 l 1,11,-1
 35 375 l 1,12,-1
 122 375 l 1,13,-1
 122 619 l 1,0,-1
EndSplineSet
EndChar

StartChar: u
Encoding: 117 117 88
Width: 539
Flags: W
LayerCount: 2
Fore
SplineSet
35 375 m 1,0,-1
 150 375 l 1,1,-1
 150 115 l 1,2,3
 152 83 152 83 173.5 59 c 128,-1,4
 195 35 195 35 237 33 c 1,5,6
 268 33 268 33 296 43.5 c 128,-1,7
 324 54 324 54 345 72 c 128,-1,8
 366 90 366 90 378.5 115 c 128,-1,9
 391 140 391 140 391 170 c 2,10,-1
 391 335 l 1,11,-1
 317 335 l 1,12,-1
 317 375 l 1,13,-1
 433 375 l 1,14,-1
 433 36 l 1,15,-1
 504 36 l 1,16,-1
 504 0 l 1,17,-1
 396 0 l 1,18,-1
 394 52 l 1,19,-1
 394 97 l 1,20,21
 374 49 374 49 329.5 20.5 c 128,-1,22
 285 -8 285 -8 230 -8 c 256,23,24
 175 -8 175 -8 143 23 c 128,-1,25
 111 54 111 54 109 104 c 1,26,-1
 109 335 l 1,27,-1
 35 335 l 1,28,-1
 35 375 l 1,0,-1
EndSplineSet
EndChar

StartChar: v
Encoding: 118 118 89
Width: 588
Flags: W
LayerCount: 2
Fore
SplineSet
35 375 m 1,0,-1
 220 375 l 1,1,-1
 220 335 l 1,2,-1
 155 335 l 1,3,4
 192 265 192 265 228 194 c 128,-1,5
 264 123 264 123 296 53 c 1,6,7
 326 119 326 119 362.5 191 c 128,-1,8
 399 263 399 263 436 335 c 1,9,-1
 378 335 l 1,10,-1
 378 375 l 1,11,-1
 553 375 l 1,12,-1
 553 335 l 1,13,-1
 480 335 l 1,14,15
 434 244 434 244 388 155.5 c 128,-1,16
 342 67 342 67 296 -23 c 1,17,18
 249 67 249 67 203.5 155.5 c 128,-1,19
 158 244 158 244 112 335 c 1,20,-1
 35 335 l 1,21,-1
 35 375 l 1,0,-1
EndSplineSet
EndChar

StartChar: w
Encoding: 119 119 90
Width: 848
Flags: W
LayerCount: 2
Fore
SplineSet
644 375 m 1,0,-1
 813 375 l 1,1,-1
 813 335 l 1,2,-1
 744 335 l 1,3,4
 699 244 699 244 654.5 155.5 c 128,-1,5
 610 67 610 67 565 -23 c 1,6,-1
 429 249 l 1,7,-1
 293 -23 l 1,8,9
 248 67 248 67 203.5 155.5 c 128,-1,10
 159 244 159 244 114 335 c 1,11,-1
 35 335 l 1,12,-1
 35 375 l 1,13,-1
 214 375 l 1,14,-1
 214 335 l 1,15,-1
 156 335 l 1,16,17
 191 264 191 264 226 193.5 c 128,-1,18
 261 123 261 123 293 53 c 1,19,20
 317 105 317 105 342 156.5 c 128,-1,21
 367 208 367 208 393 260 c 1,22,23
 388 279 388 279 383 297.5 c 128,-1,24
 378 316 378 316 373 335 c 1,25,-1
 309 335 l 1,26,-1
 309 375 l 1,27,-1
 494 375 l 1,28,-1
 494 335 l 1,29,-1
 428 335 l 1,30,31
 463 264 463 264 498 193.5 c 128,-1,32
 533 123 533 123 565 53 c 1,33,34
 598 124 598 124 632.5 194 c 128,-1,35
 667 264 667 264 702 335 c 1,36,-1
 644 335 l 1,37,-1
 644 375 l 1,0,-1
EndSplineSet
EndChar

StartChar: x
Encoding: 120 120 91
Width: 503
Flags: W
LayerCount: 2
Fore
SplineSet
35 375 m 1,0,-1
 228 375 l 1,1,-1
 228 335 l 1,2,-1
 166 335 l 1,3,-1
 255 214 l 1,4,-1
 342 335 l 1,5,-1
 284 335 l 1,6,-1
 284 375 l 1,7,-1
 468 375 l 1,8,-1
 468 335 l 1,9,-1
 392 335 l 1,10,-1
 280 181 l 1,11,12
 306 145 306 145 332 110 c 128,-1,13
 358 75 358 75 384 40 c 1,14,-1
 468 40 l 1,15,-1
 468 0 l 1,16,-1
 275 0 l 1,17,-1
 275 40 l 1,18,-1
 332 40 l 1,19,20
 310 70 310 70 288.5 99.5 c 128,-1,21
 267 129 267 129 246 158 c 1,22,23
 224 129 224 129 203 99 c 128,-1,24
 182 69 182 69 161 40 c 1,25,-1
 219 40 l 1,26,-1
 219 0 l 1,27,-1
 35 0 l 1,28,-1
 35 40 l 1,29,-1
 109 40 l 1,30,-1
 220 193 l 1,31,32
 194 228 194 228 167.5 263.5 c 128,-1,33
 141 299 141 299 115 335 c 1,34,-1
 35 335 l 1,35,-1
 35 375 l 1,0,-1
EndSplineSet
EndChar

StartChar: y
Encoding: 121 121 92
Width: 601
Flags: W
LayerCount: 2
Fore
SplineSet
92 -210 m 1,0,-1
 177 -210 l 1,1,2
 203 -158 203 -158 229 -105.5 c 128,-1,3
 255 -53 255 -53 281 -2 c 1,4,5
 238 83 238 83 196 166.5 c 128,-1,6
 154 250 154 250 112 335 c 1,7,-1
 35 335 l 1,8,-1
 35 375 l 1,9,-1
 220 375 l 1,10,-1
 220 335 l 1,11,-1
 157 335 l 1,12,13
 194 260 194 260 231.5 186.5 c 128,-1,14
 269 113 269 113 303 38 c 1,15,16
 335 110 335 110 373 185 c 128,-1,17
 411 260 411 260 449 335 c 1,18,-1
 391 335 l 1,19,-1
 391 375 l 1,20,-1
 566 375 l 1,21,-1
 566 335 l 1,22,-1
 493 335 l 1,23,24
 424 198 424 198 357 62.5 c 128,-1,25
 290 -73 290 -73 221 -210 c 1,26,-1
 285 -210 l 1,27,-1
 285 -250 l 1,28,-1
 92 -250 l 1,29,-1
 92 -210 l 1,0,-1
EndSplineSet
EndChar

StartChar: z
Encoding: 122 122 93
Width: 431
Flags: W
LayerCount: 2
Fore
SplineSet
396 94 m 1,0,-1
 396 0 l 1,1,-1
 35 0 l 1,2,-1
 35 41 l 1,3,4
 110 116 110 116 177 188 c 128,-1,5
 244 260 244 260 319 335 c 1,6,-1
 47 335 l 1,7,-1
 47 410 l 1,8,-1
 85 410 l 1,9,-1
 85 375 l 1,10,-1
 377 375 l 1,11,-1
 377 334 l 1,12,13
 302 259 302 259 235 187.5 c 128,-1,14
 168 116 168 116 93 41 c 1,15,-1
 358 41 l 1,16,-1
 358 94 l 1,17,-1
 396 94 l 1,0,-1
EndSplineSet
EndChar

StartChar: braceleft
Encoding: 123 123 94
Width: 291
Flags: W
LayerCount: 2
Fore
SplineSet
30 275 m 1,0,-1
 30 321 l 1,1,2
 54 322 54 322 69.5 335.5 c 128,-1,3
 85 349 85 349 94 369 c 128,-1,4
 103 389 103 389 106 412.5 c 128,-1,5
 109 436 109 436 109 456 c 2,6,-1
 109 628 l 2,7,8
 109 674 109 674 117 698 c 128,-1,9
 125 722 125 722 139 732.5 c 128,-1,10
 153 743 153 743 170.5 744.5 c 128,-1,11
 188 746 188 746 208 746 c 2,12,-1
 255 746 l 1,13,-1
 255 705 l 1,14,-1
 203 705 l 2,15,16
 172 705 172 705 161.5 681.5 c 128,-1,17
 151 658 151 658 151 597 c 2,18,-1
 151 455 l 2,19,20
 151 414 151 414 145 387.5 c 128,-1,21
 139 361 139 361 130 343.5 c 128,-1,22
 121 326 121 326 109.5 316 c 128,-1,23
 98 306 98 306 86 299 c 1,24,25
 98 292 98 292 109.5 281.5 c 128,-1,26
 121 271 121 271 130 253 c 128,-1,27
 139 235 139 235 145 208.5 c 128,-1,28
 151 182 151 182 151 142 c 2,29,-1
 151 1 l 2,30,31
 151 -61 151 -61 161.5 -84.5 c 128,-1,32
 172 -108 172 -108 203 -108 c 2,33,-1
 255 -108 l 1,34,-1
 255 -148 l 1,35,-1
 208 -148 l 2,36,37
 187 -148 187 -148 168.5 -146.5 c 128,-1,38
 150 -145 150 -145 137 -132.5 c 128,-1,39
 124 -120 124 -120 116.5 -91.5 c 128,-1,40
 109 -63 109 -63 109 -9 c 2,41,-1
 109 140 l 2,42,43
 109 160 109 160 106 183.5 c 128,-1,44
 103 207 103 207 94 227 c 128,-1,45
 85 247 85 247 69.5 260.5 c 128,-1,46
 54 274 54 274 30 275 c 1,0,-1
EndSplineSet
EndChar

StartChar: bar
Encoding: 124 124 95
Width: 240
Flags: W
LayerCount: 2
Fore
SplineSet
96 -232 m 1,0,-1
 96 700 l 1,1,-1
 138 700 l 1,2,-1
 138 -232 l 1,3,-1
 96 -232 l 1,0,-1
EndSplineSet
EndChar

StartChar: braceright
Encoding: 125 125 96
Width: 320
Flags: W
LayerCount: 2
Fore
SplineSet
290 321 m 1,0,-1
 290 275 l 1,1,2
 261 273 261 273 245.5 255.5 c 128,-1,3
 230 238 230 238 222 213.5 c 128,-1,4
 214 189 214 189 212.5 162.5 c 128,-1,5
 211 136 211 136 211 118 c 2,6,-1
 211 -30 l 2,7,8
 211 -77 211 -77 203 -101 c 128,-1,9
 195 -125 195 -125 181 -135.5 c 128,-1,10
 167 -146 167 -146 149 -147 c 128,-1,11
 131 -148 131 -148 112 -148 c 2,12,-1
 65 -148 l 1,13,-1
 65 -108 l 1,14,-1
 117 -108 l 2,15,16
 148 -108 148 -108 158.5 -84.5 c 128,-1,17
 169 -61 169 -61 169 1 c 2,18,-1
 169 165 l 2,19,20
 169 197 169 197 175.5 220 c 128,-1,21
 182 243 182 243 192 258.5 c 128,-1,22
 202 274 202 274 213.5 283.5 c 128,-1,23
 225 293 225 293 234 299 c 1,24,25
 222 306 222 306 210.5 316 c 128,-1,26
 199 326 199 326 190 343.5 c 128,-1,27
 181 361 181 361 175 387.5 c 128,-1,28
 169 414 169 414 169 455 c 2,29,-1
 169 597 l 2,30,31
 169 658 169 658 158.5 681.5 c 128,-1,32
 148 705 148 705 117 705 c 2,33,-1
 65 705 l 1,34,-1
 65 746 l 1,35,-1
 112 746 l 2,36,37
 131 746 131 746 149 745 c 128,-1,38
 167 744 167 744 180.5 733.5 c 128,-1,39
 194 723 194 723 202.5 698.5 c 128,-1,40
 211 674 211 674 211 628 c 2,41,-1
 211 478 l 2,42,43
 211 460 211 460 212.5 433.5 c 128,-1,44
 214 407 214 407 222 382.5 c 128,-1,45
 230 358 230 358 245.5 340 c 128,-1,46
 261 322 261 322 290 321 c 1,0,-1
EndSplineSet
EndChar

StartChar: asciitilde
Encoding: 126 126 97
Width: 489
Flags: W
LayerCount: 2
Fore
SplineSet
267 491 m 1,0,1
 252 508 252 508 240 513.5 c 128,-1,2
 228 519 228 519 214 519 c 0,3,4
 206 519 206 519 196.5 517 c 128,-1,5
 187 515 187 515 178 509.5 c 128,-1,6
 169 504 169 504 162 494 c 128,-1,7
 155 484 155 484 153 468 c 1,8,9
 147 469 147 469 140.5 469 c 128,-1,10
 134 469 134 469 128 470 c 1,11,12
 129 489 129 489 137 503 c 128,-1,13
 145 517 145 517 157 526.5 c 128,-1,14
 169 536 169 536 184 540.5 c 128,-1,15
 199 545 199 545 213 545 c 0,16,17
 234 545 234 545 251.5 535.5 c 128,-1,18
 269 526 269 526 285 509 c 256,19,20
 301 492 301 492 313 486.5 c 128,-1,21
 325 481 325 481 339 481 c 0,22,23
 346 481 346 481 356 483 c 128,-1,24
 366 485 366 485 375 490.5 c 128,-1,25
 384 496 384 496 390.5 506 c 128,-1,26
 397 516 397 516 399 532 c 1,27,28
 406 531 406 531 412.5 531 c 128,-1,29
 419 531 419 531 425 530 c 1,30,31
 424 511 424 511 416 497 c 128,-1,32
 408 483 408 483 396 473.5 c 128,-1,33
 384 464 384 464 369 459.5 c 128,-1,34
 354 455 354 455 340 455 c 0,35,36
 319 455 319 455 301.5 464.5 c 128,-1,37
 284 474 284 474 267 491 c 1,0,1
EndSplineSet
EndChar

StartChar: cent
Encoding: 162 162 99
Width: 385
Flags: W
LayerCount: 2
Fore
SplineSet
330 67 m 1,0,-1
 356 36 l 1,1,2
 308 -3 308 -3 243 -6 c 1,3,-1
 243 -68 l 1,4,-1
 201 -68 l 1,5,-1
 201 -3 l 1,6,7
 166 2 166 2 135.5 19 c 128,-1,8
 105 36 105 36 83 61.5 c 128,-1,9
 61 87 61 87 48.5 119.5 c 128,-1,10
 36 152 36 152 36 188 c 256,11,12
 36 224 36 224 48.5 257 c 128,-1,13
 61 290 61 290 83 315.5 c 128,-1,14
 105 341 105 341 135.5 358 c 128,-1,15
 166 375 166 375 201 380 c 1,16,-1
 201 438 l 1,17,-1
 243 438 l 1,18,-1
 243 383 l 1,19,20
 275 381 275 381 304.5 370 c 128,-1,21
 334 359 334 359 357 340 c 1,22,-1
 356 339 l 1,23,24
 356 336 356 336 356.5 333.5 c 128,-1,25
 357 331 357 331 357 328 c 2,26,-1
 357 241 l 1,27,-1
 319 241 l 1,28,-1
 319 316 l 1,29,30
 302 327 302 327 283 334 c 128,-1,31
 264 341 264 341 243 341 c 1,32,-1
 243 34 l 1,33,34
 292 37 292 37 330 67 c 1,0,-1
78 188 m 0,35,36
 78 131 78 131 112.5 90 c 128,-1,37
 147 49 147 49 201 39 c 1,38,-1
 201 336 l 1,39,40
 174 332 174 332 151.5 319 c 128,-1,41
 129 306 129 306 112.5 286 c 128,-1,42
 96 266 96 266 87 241 c 128,-1,43
 78 216 78 216 78 188 c 0,35,36
EndSplineSet
EndChar

StartChar: sterling
Encoding: 163 163 100
Width: 574
Flags: W
LayerCount: 2
Fore
SplineSet
510 0 m 1,0,-1
 27 0 l 1,1,-1
 27 41 l 1,2,-1
 71 41 l 2,3,4
 88 41 88 41 98.5 47 c 128,-1,5
 109 53 109 53 114.5 67.5 c 128,-1,6
 120 82 120 82 121.5 107 c 128,-1,7
 123 132 123 132 123 171 c 2,8,-1
 123 296 l 1,9,-1
 58 296 l 1,10,-1
 58 337 l 1,11,-1
 123 337 l 1,12,-1
 123 500 l 2,13,14
 123 570 123 570 172.5 602 c 128,-1,15
 222 634 222 634 307 634 c 0,16,17
 374 634 374 634 410.5 607.5 c 128,-1,18
 447 581 447 581 467 541 c 1,19,-1
 436 522 l 1,20,21
 426 539 426 539 415.5 552 c 128,-1,22
 405 565 405 565 390.5 574 c 128,-1,23
 376 583 376 583 356 588 c 128,-1,24
 336 593 336 593 307 593 c 0,25,26
 229 593 229 593 197 566.5 c 128,-1,27
 165 540 165 540 165 494 c 2,28,-1
 165 337 l 1,29,-1
 289 337 l 1,30,-1
 289 296 l 1,31,-1
 165 296 l 1,32,-1
 165 131 l 2,33,34
 165 102 165 102 161.5 78.5 c 128,-1,35
 158 55 158 55 143 41 c 1,36,-1
 468 41 l 1,37,-1
 468 145 l 1,38,-1
 510 145 l 1,39,-1
 510 0 l 1,0,-1
EndSplineSet
EndChar

StartChar: currency
Encoding: 164 164 101
Width: 500
Flags: W
LayerCount: 2
Fore
SplineSet
146 361 m 256,0,1
 146 340 146 340 154 321 c 128,-1,2
 162 302 162 302 176 288 c 128,-1,3
 190 274 190 274 208 266 c 128,-1,4
 226 258 226 258 247 258 c 256,5,6
 268 258 268 258 287 266 c 128,-1,7
 306 274 306 274 319.5 288 c 128,-1,8
 333 302 333 302 341 321 c 128,-1,9
 349 340 349 340 349 361 c 256,10,11
 349 382 349 382 341 400.5 c 128,-1,12
 333 419 333 419 319.5 433 c 128,-1,13
 306 447 306 447 287 455 c 128,-1,14
 268 463 268 463 247 463 c 256,15,16
 226 463 226 463 208 455 c 128,-1,17
 190 447 190 447 176 433 c 128,-1,18
 162 419 162 419 154 400.5 c 128,-1,19
 146 382 146 382 146 361 c 256,0,1
104 361 m 0,20,21
 104 384 104 384 111 405.5 c 128,-1,22
 118 427 118 427 131 444 c 1,23,24
 123 452 123 452 115 460.5 c 128,-1,25
 107 469 107 469 99 477 c 1,26,-1
 129 506 l 1,27,-1
 161 474 l 1,28,29
 179 488 179 488 200.5 496 c 128,-1,30
 222 504 222 504 247 504 c 256,31,32
 272 504 272 504 294 495.5 c 128,-1,33
 316 487 316 487 333 473 c 1,34,-1
 365 506 l 1,35,-1
 395 476 l 1,36,-1
 363 445 l 1,37,38
 391 408 391 408 391 361 c 0,39,40
 391 313 391 313 361 275 c 1,41,-1
 395 240 l 1,42,-1
 366 211 l 1,43,44
 357 219 357 219 348.5 228 c 128,-1,45
 340 237 340 237 331 245 c 1,46,47
 314 232 314 232 292 225 c 128,-1,48
 270 218 270 218 247 218 c 256,49,50
 224 218 224 218 202.5 225 c 128,-1,51
 181 232 181 232 164 244 c 1,52,-1
 129 210 l 1,53,-1
 99 239 l 1,54,-1
 134 274 l 1,55,56
 104 312 104 312 104 361 c 0,20,21
EndSplineSet
EndChar

StartChar: yen
Encoding: 165 165 102
Width: 638
Flags: W
LayerCount: 2
Fore
SplineSet
518 100 m 1,0,-1
 376 100 l 1,1,-1
 376 40 l 1,2,-1
 454 40 l 1,3,-1
 454 0 l 1,4,-1
 253 0 l 1,5,-1
 253 40 l 1,6,-1
 327 40 l 1,7,-1
 327 100 l 1,8,-1
 185 100 l 1,9,-1
 185 141 l 1,10,-1
 327 141 l 1,11,-1
 327 262 l 1,12,13
 326 262 326 262 326 263 c 1,14,-1
 185 263 l 1,15,-1
 185 304 l 1,16,-1
 304 304 l 1,17,-1
 91 660 l 1,18,-1
 13 660 l 1,19,-1
 13 700 l 1,20,-1
 214 700 l 1,21,-1
 214 660 l 1,22,-1
 141 660 l 1,23,24
 191 577 191 577 241.5 495.5 c 128,-1,25
 292 414 292 414 339 330 c 1,26,-1
 351 302 l 1,27,-1
 352 302 l 1,28,-1
 363 330 l 1,29,-1
 560 660 l 1,30,-1
 488 660 l 1,31,-1
 488 700 l 1,32,-1
 689 700 l 1,33,-1
 689 660 l 1,34,-1
 611 660 l 1,35,36
 557 570 557 570 505 481.5 c 128,-1,37
 453 393 453 393 399 304 c 1,38,-1
 518 304 l 1,39,-1
 518 263 l 1,40,-1
 376 263 l 1,41,-1
 376 252 l 1,42,-1
 376 141 l 1,43,-1
 518 141 l 1,44,-1
 518 100 l 1,0,-1
EndSplineSet
EndChar

StartChar: brokenbar
Encoding: 166 166 103
Width: 215
Flags: W
LayerCount: 2
Fore
SplineSet
131 -233 m 1,0,-1
 89 -233 l 1,1,-1
 89 117 l 1,2,-1
 131 117 l 1,3,-1
 131 -233 l 1,0,-1
131 350 m 1,4,-1
 89 350 l 1,5,-1
 89 700 l 1,6,-1
 131 700 l 1,7,-1
 131 350 l 1,4,-1
EndSplineSet
EndChar

StartChar: section
Encoding: 167 167 104
Width: 500
Flags: W
LayerCount: 2
Fore
SplineSet
181 331 m 1,0,1
 189 305 189 305 210.5 290.5 c 128,-1,2
 232 276 232 276 258 276 c 0,3,4
 296 276 296 276 318.5 301.5 c 128,-1,5
 341 327 341 327 341 361 c 0,6,7
 341 379 341 379 333.5 394.5 c 128,-1,8
 326 410 326 410 314 421.5 c 128,-1,9
 302 433 302 433 286.5 439 c 128,-1,10
 271 445 271 445 255 445 c 0,11,12
 217 445 217 445 196 419 c 128,-1,13
 175 393 175 393 175 362 c 0,14,15
 175 346 175 346 181 331 c 1,0,1
236 152 m 1,16,17
 205 201 205 201 185.5 232 c 128,-1,18
 166 263 166 263 154.5 285 c 128,-1,19
 143 307 143 307 138.5 323.5 c 128,-1,20
 134 340 134 340 134 359 c 0,21,22
 134 381 134 381 141.5 403 c 128,-1,23
 149 425 149 425 163.5 442 c 128,-1,24
 178 459 178 459 198 470 c 128,-1,25
 218 481 218 481 243 481 c 0,26,27
 254 481 254 481 264 479 c 128,-1,28
 274 477 274 477 284 474 c 1,29,30
 269 498 269 498 254.5 523.5 c 128,-1,31
 240 549 240 549 228 573 c 128,-1,32
 216 597 216 597 208.5 617 c 128,-1,33
 201 637 201 637 201 650 c 0,34,35
 201 668 201 668 210 681.5 c 128,-1,36
 219 695 219 695 233 706 c 128,-1,37
 247 717 247 717 263.5 726 c 128,-1,38
 280 735 280 735 295 743 c 1,39,-1
 316 708 l 1,40,-1
 271 681 l 2,41,42
 258 673 258 673 252 665 c 128,-1,43
 246 657 246 657 246 645 c 0,44,45
 246 632 246 632 258 606 c 128,-1,46
 270 580 270 580 288 548.5 c 128,-1,47
 306 517 306 517 326.5 483 c 128,-1,48
 347 449 347 449 364 421 c 256,49,50
 381 393 381 393 381 359 c 0,51,52
 381 337 381 337 373 315.5 c 128,-1,53
 365 294 365 294 350 276.5 c 128,-1,54
 335 259 335 259 314.5 248 c 128,-1,55
 294 237 294 237 269 237 c 0,56,57
 248 237 248 237 230 244 c 1,58,59
 245 219 245 219 260 193 c 128,-1,60
 275 167 275 167 287 143.5 c 128,-1,61
 299 120 299 120 306.5 100 c 128,-1,62
 314 80 314 80 314 67 c 0,63,64
 314 49 314 49 305 35.5 c 128,-1,65
 296 22 296 22 282.5 11 c 128,-1,66
 269 0 269 0 252.5 -9 c 128,-1,67
 236 -18 236 -18 221 -26 c 1,68,-1
 200 9 l 1,69,-1
 245 36 l 1,70,71
 269 49 269 49 269 71 c 0,72,73
 269 85 269 85 261 104 c 128,-1,74
 253 123 253 123 236 152 c 1,16,17
EndSplineSet
EndChar

StartChar: dieresis
Encoding: 168 168 105
Width: 370
Flags: W
LayerCount: 2
Fore
SplineSet
234 508 m 256,0,1
 234 522 234 522 244 531.5 c 128,-1,2
 254 541 254 541 267 541 c 256,3,4
 280 541 280 541 289.5 531.5 c 128,-1,5
 299 522 299 522 299 508 c 256,6,7
 299 494 299 494 289.5 484.5 c 128,-1,8
 280 475 280 475 267 475 c 256,9,10
 254 475 254 475 244 484.5 c 128,-1,11
 234 494 234 494 234 508 c 256,0,1
69 508 m 256,12,13
 69 522 69 522 79 531.5 c 128,-1,14
 89 541 89 541 102 541 c 0,15,16
 114 541 114 541 124 531.5 c 128,-1,17
 134 522 134 522 134 508 c 256,18,19
 134 494 134 494 124 484.5 c 128,-1,20
 114 475 114 475 102 475 c 0,21,22
 89 475 89 475 79 484.5 c 128,-1,23
 69 494 69 494 69 508 c 256,12,13
EndSplineSet
EndChar

StartChar: copyright
Encoding: 169 169 106
Width: 793
Flags: W
LayerCount: 2
Fore
SplineSet
399 138 m 0,0,1
 448 138 448 138 491 155.5 c 128,-1,2
 534 173 534 173 565.5 204.5 c 128,-1,3
 597 236 597 236 615.5 278.5 c 128,-1,4
 634 321 634 321 634 371 c 0,5,6
 634 422 634 422 615.5 465 c 128,-1,7
 597 508 597 508 565.5 539.5 c 128,-1,8
 534 571 534 571 491 589 c 128,-1,9
 448 607 448 607 399 607 c 0,10,11
 351 607 351 607 308.5 589 c 128,-1,12
 266 571 266 571 234.5 539.5 c 128,-1,13
 203 508 203 508 184.5 465 c 128,-1,14
 166 422 166 422 166 371 c 0,15,16
 166 321 166 321 184.5 278.5 c 128,-1,17
 203 236 203 236 234.5 204.5 c 128,-1,18
 266 173 266 173 308.5 155.5 c 128,-1,19
 351 138 351 138 399 138 c 0,0,1
400 115 m 256,20,21
 346 115 346 115 299 134.5 c 128,-1,22
 252 154 252 154 217 188.5 c 128,-1,23
 182 223 182 223 162 270 c 128,-1,24
 142 317 142 317 142 372 c 0,25,26
 142 428 142 428 162 475 c 128,-1,27
 182 522 182 522 217 556.5 c 128,-1,28
 252 591 252 591 299 610.5 c 128,-1,29
 346 630 346 630 400 630 c 256,30,31
 454 630 454 630 501 610.5 c 128,-1,32
 548 591 548 591 583 556.5 c 128,-1,33
 618 522 618 522 638 475 c 128,-1,34
 658 428 658 428 658 372 c 0,35,36
 658 317 658 317 638 270 c 128,-1,37
 618 223 618 223 583 188.5 c 128,-1,38
 548 154 548 154 501 134.5 c 128,-1,39
 454 115 454 115 400 115 c 256,20,21
484 464 m 1,40,-1
 484 503 l 1,41,42
 452 519 452 519 419 519 c 0,43,44
 390 519 390 519 364 507.5 c 128,-1,45
 338 496 338 496 318.5 476.5 c 128,-1,46
 299 457 299 457 288 430.5 c 128,-1,47
 277 404 277 404 277 374 c 0,48,49
 277 345 277 345 288 319 c 128,-1,50
 299 293 299 293 318.5 273.5 c 128,-1,51
 338 254 338 254 363.5 242.5 c 128,-1,52
 389 231 389 231 418 231 c 0,53,54
 438 231 438 231 456 236.5 c 128,-1,55
 474 242 474 242 491 251 c 1,56,-1
 501 236 l 1,57,58
 483 225 483 225 462.5 219 c 128,-1,59
 442 213 442 213 419 213 c 0,60,61
 386 213 386 213 356.5 226 c 128,-1,62
 327 239 327 239 305 261 c 128,-1,63
 283 283 283 283 270.5 312.5 c 128,-1,64
 258 342 258 342 258 375 c 0,65,66
 258 409 258 409 270.5 438.5 c 128,-1,67
 283 468 283 468 305 490 c 128,-1,68
 327 512 327 512 356.5 524.5 c 128,-1,69
 386 537 386 537 419 537 c 0,70,71
 463 537 463 537 502 515 c 1,72,-1
 502 464 l 1,73,-1
 484 464 l 1,40,-1
EndSplineSet
EndChar

StartChar: ordfeminine
Encoding: 170 170 107
Width: 585
Flags: W
LayerCount: 2
Fore
SplineSet
83 442 m 0,0,1
 83 470 83 470 94.5 496 c 128,-1,2
 106 522 106 522 125 541 c 128,-1,3
 144 560 144 560 170 571 c 128,-1,4
 196 582 196 582 225 582 c 0,5,6
 246 582 246 582 265 576 c 128,-1,7
 284 570 284 570 299 560.5 c 128,-1,8
 314 551 314 551 324.5 538 c 128,-1,9
 335 525 335 525 340 513 c 1,10,11
 340 529 340 529 341 545 c 128,-1,12
 342 561 342 561 343 576 c 1,13,-1
 367 576 l 1,14,-1
 367 335 l 1,15,-1
 421 335 l 1,16,-1
 421 306 l 1,17,-1
 340 306 l 1,18,-1
 340 335 l 2,19,20
 340 344 340 344 340.5 352 c 128,-1,21
 341 360 341 360 341 368 c 1,22,23
 336 356 336 356 325.5 343.5 c 128,-1,24
 315 331 315 331 300 321.5 c 128,-1,25
 285 312 285 312 266 306.5 c 128,-1,26
 247 301 247 301 225 301 c 0,27,28
 196 301 196 301 170 312 c 128,-1,29
 144 323 144 323 125 342 c 128,-1,30
 106 361 106 361 94.5 386.5 c 128,-1,31
 83 412 83 412 83 442 c 0,0,1
114 442 m 256,32,33
 114 419 114 419 122.5 398.5 c 128,-1,34
 131 378 131 378 145.5 363 c 128,-1,35
 160 348 160 348 181 339.5 c 128,-1,36
 202 331 202 331 225 331 c 0,37,38
 249 331 249 331 269.5 339.5 c 128,-1,39
 290 348 290 348 305 363 c 128,-1,40
 320 378 320 378 328.5 398.5 c 128,-1,41
 337 419 337 419 337 442 c 256,42,43
 337 465 337 465 328.5 485.5 c 128,-1,44
 320 506 320 506 305 521 c 128,-1,45
 290 536 290 536 269.5 544.5 c 128,-1,46
 249 553 249 553 225 553 c 0,47,48
 202 553 202 553 181 544.5 c 128,-1,49
 160 536 160 536 145.5 521 c 128,-1,50
 131 506 131 506 122.5 485.5 c 128,-1,51
 114 465 114 465 114 442 c 256,32,33
EndSplineSet
EndChar

StartChar: guillemotleft
Encoding: 171 171 108
Width: 601
Flags: W
LayerCount: 2
Fore
SplineSet
459 77 m 1,0,-1
 288 239 l 1,1,2
 331 280 331 280 373.5 319.5 c 128,-1,3
 416 359 416 359 459 400 c 1,4,-1
 459 352 l 1,5,6
 431 324 431 324 403.5 296 c 128,-1,7
 376 268 376 268 348 239 c 1,8,-1
 459 125 l 1,9,-1
 459 77 l 1,0,-1
288 77 m 1,10,-1
 117 239 l 1,11,12
 160 280 160 280 202.5 319.5 c 128,-1,13
 245 359 245 359 288 400 c 1,14,-1
 288 352 l 1,15,16
 260 323 260 323 232.5 295.5 c 128,-1,17
 205 268 205 268 177 239 c 1,18,-1
 288 125 l 1,19,-1
 288 77 l 1,10,-1
EndSplineSet
EndChar

StartChar: logicalnot
Encoding: 172 172 109
Width: 559
Flags: W
LayerCount: 2
Fore
SplineSet
418 148 m 1,0,-1
 418 211 l 1,1,-1
 100 211 l 1,2,-1
 100 244 l 1,3,-1
 460 244 l 1,4,-1
 460 148 l 1,5,-1
 418 148 l 1,0,-1
EndSplineSet
EndChar

StartChar: registered
Encoding: 174 174 110
Width: 801
Flags: W
LayerCount: 2
Fore
SplineSet
399 138 m 0,0,1
 448 138 448 138 491 155.5 c 128,-1,2
 534 173 534 173 565.5 204.5 c 128,-1,3
 597 236 597 236 615.5 278.5 c 128,-1,4
 634 321 634 321 634 371 c 0,5,6
 634 422 634 422 615.5 465 c 128,-1,7
 597 508 597 508 565.5 539.5 c 128,-1,8
 534 571 534 571 491 589 c 128,-1,9
 448 607 448 607 399 607 c 0,10,11
 351 607 351 607 308.5 589 c 128,-1,12
 266 571 266 571 234.5 539.5 c 128,-1,13
 203 508 203 508 184.5 465 c 128,-1,14
 166 422 166 422 166 371 c 0,15,16
 166 321 166 321 184.5 278.5 c 128,-1,17
 203 236 203 236 234.5 204.5 c 128,-1,18
 266 173 266 173 308.5 155.5 c 128,-1,19
 351 138 351 138 399 138 c 0,0,1
400 115 m 256,20,21
 346 115 346 115 299 134.5 c 128,-1,22
 252 154 252 154 217 188.5 c 128,-1,23
 182 223 182 223 162 270 c 128,-1,24
 142 317 142 317 142 372 c 0,25,26
 142 428 142 428 162 475 c 128,-1,27
 182 522 182 522 217 556.5 c 128,-1,28
 252 591 252 591 299 610.5 c 128,-1,29
 346 630 346 630 400 630 c 256,30,31
 454 630 454 630 501 610.5 c 128,-1,32
 548 591 548 591 583 556.5 c 128,-1,33
 618 522 618 522 638 475 c 128,-1,34
 658 428 658 428 658 372 c 0,35,36
 658 317 658 317 638 270 c 128,-1,37
 618 223 618 223 583 188.5 c 128,-1,38
 548 154 548 154 501 134.5 c 128,-1,39
 454 115 454 115 400 115 c 256,20,21
311 229 m 1,40,-1
 339 229 l 1,41,-1
 339 522 l 1,42,-1
 311 522 l 1,43,-1
 311 541 l 1,44,-1
 410 541 l 2,45,46
 425 541 425 541 442.5 536 c 128,-1,47
 460 531 460 531 475 520.5 c 128,-1,48
 490 510 490 510 500.5 493.5 c 128,-1,49
 511 477 511 477 511 454 c 0,50,51
 511 421 511 421 493 398.5 c 128,-1,52
 475 376 475 376 441 368 c 1,53,-1
 506 229 l 1,54,-1
 548 229 l 1,55,-1
 548 210 l 1,56,-1
 494 210 l 1,57,-1
 420 367 l 1,58,59
 415 366 415 366 409.5 366 c 128,-1,60
 404 366 404 366 398 366 c 2,61,-1
 359 366 l 1,62,-1
 359 229 l 1,63,-1
 406 229 l 1,64,-1
 406 210 l 1,65,-1
 311 210 l 1,66,-1
 311 229 l 1,40,-1
359 385 m 1,67,-1
 408 385 l 2,68,69
 433 385 433 385 449 391.5 c 128,-1,70
 465 398 465 398 474.5 408.5 c 128,-1,71
 484 419 484 419 488 431 c 128,-1,72
 492 443 492 443 492 454 c 0,73,74
 492 481 492 481 468 501.5 c 128,-1,75
 444 522 444 522 408 522 c 2,76,-1
 359 522 l 1,77,-1
 359 385 l 1,67,-1
EndSplineSet
EndChar

StartChar: macron
Encoding: 175 175 111
Width: 399
Flags: W
LayerCount: 2
Fore
SplineSet
85 486 m 1,0,-1
 85 516 l 1,1,-1
 315 516 l 1,2,-1
 315 486 l 1,3,-1
 85 486 l 1,0,-1
EndSplineSet
EndChar

StartChar: degree
Encoding: 176 176 112
Width: 282
Flags: W
LayerCount: 2
Fore
SplineSet
138 503 m 0,0,1
 161 503 161 503 178 519.5 c 128,-1,2
 195 536 195 536 195 560 c 0,3,4
 195 583 195 583 178 599.5 c 128,-1,5
 161 616 161 616 138 616 c 0,6,7
 114 616 114 616 97.5 599.5 c 128,-1,8
 81 583 81 583 81 560 c 0,9,10
 81 536 81 536 97.5 519.5 c 128,-1,11
 114 503 114 503 138 503 c 0,0,1
51 559 m 0,12,13
 51 596 51 596 76 621 c 128,-1,14
 101 646 101 646 138 646 c 0,15,16
 174 646 174 646 199 621 c 128,-1,17
 224 596 224 596 224 559 c 0,18,19
 224 523 224 523 199 498.5 c 128,-1,20
 174 474 174 474 138 474 c 0,21,22
 101 474 101 474 76 498.5 c 128,-1,23
 51 523 51 523 51 559 c 0,12,13
EndSplineSet
EndChar

StartChar: plusminus
Encoding: 177 177 113
Width: 524
Flags: W
LayerCount: 2
Fore
SplineSet
245 211 m 1,0,-1
 245 371 l 1,1,-1
 86 371 l 1,2,-1
 86 412 l 1,3,-1
 245 412 l 1,4,-1
 245 571 l 1,5,-1
 287 571 l 1,6,-1
 287 412 l 1,7,-1
 446 412 l 1,8,-1
 446 371 l 1,9,-1
 287 371 l 1,10,-1
 287 211 l 1,11,-1
 245 211 l 1,0,-1
446 122 m 1,12,-1
 86 122 l 1,13,-1
 86 162 l 1,14,-1
 446 162 l 1,15,-1
 446 122 l 1,12,-1
EndSplineSet
EndChar

StartChar: twosuperior
Encoding: 178 178 114
Width: 398
Flags: W
LayerCount: 2
Fore
SplineSet
154 395 m 1,0,-1
 289 395 l 1,1,-1
 289 447 l 1,2,-1
 308 447 l 1,3,-1
 308 375 l 1,4,-1
 103 375 l 1,5,6
 134 406 134 406 163.5 435 c 128,-1,7
 193 464 193 464 216 492 c 128,-1,8
 239 520 239 520 252.5 546 c 128,-1,9
 266 572 266 572 266 595 c 0,10,11
 266 619 266 619 259 635.5 c 128,-1,12
 252 652 252 652 241.5 661.5 c 128,-1,13
 231 671 231 671 218.5 675.5 c 128,-1,14
 206 680 206 680 195 680 c 0,15,16
 172 680 172 680 158 672 c 128,-1,17
 144 664 144 664 136 652.5 c 128,-1,18
 128 641 128 641 125 628 c 128,-1,19
 122 615 122 615 122 604 c 0,20,21
 122 586 122 586 126.5 573 c 128,-1,22
 131 560 131 560 141 549 c 1,23,-1
 128 537 l 1,24,25
 116 548 116 548 108.5 566 c 128,-1,26
 101 584 101 584 101 604 c 0,27,28
 101 623 101 623 107 640.5 c 128,-1,29
 113 658 113 658 125 671.5 c 128,-1,30
 137 685 137 685 154.5 692.5 c 128,-1,31
 172 700 172 700 195 700 c 0,32,33
 215 700 215 700 232.5 692.5 c 128,-1,34
 250 685 250 685 262 671.5 c 128,-1,35
 274 658 274 658 280.5 640 c 128,-1,36
 287 622 287 622 287 601 c 0,37,38
 287 575 287 575 275 548.5 c 128,-1,39
 263 522 263 522 243.5 496 c 128,-1,40
 224 470 224 470 200.5 445 c 128,-1,41
 177 420 177 420 154 395 c 1,0,-1
EndSplineSet
EndChar

StartChar: threesuperior
Encoding: 179 179 115
Width: 419
Flags: W
LayerCount: 2
Fore
SplineSet
132 551 m 1,0,-1
 222 680 l 1,1,-1
 120 680 l 1,2,-1
 120 650 l 1,3,-1
 100 650 l 1,4,-1
 100 700 l 1,5,-1
 259 700 l 1,6,-1
 172 579 l 1,7,8
 192 577 192 577 209.5 569 c 128,-1,9
 227 561 227 561 240 548 c 128,-1,10
 253 535 253 535 260 517.5 c 128,-1,11
 267 500 267 500 267 479 c 256,12,13
 267 458 267 458 259 439 c 128,-1,14
 251 420 251 420 237 406 c 128,-1,15
 223 392 223 392 204 384 c 128,-1,16
 185 376 185 376 164 376 c 0,17,18
 141 376 141 376 121.5 385 c 128,-1,19
 102 394 102 394 88 410 c 1,20,-1
 103 425 l 1,21,22
 114 412 114 412 129.5 404 c 128,-1,23
 145 396 145 396 163 396 c 0,24,25
 180 396 180 396 195.5 403 c 128,-1,26
 211 410 211 410 222 421 c 128,-1,27
 233 432 233 432 240 447 c 128,-1,28
 247 462 247 462 247 479 c 256,29,30
 247 496 247 496 240 511 c 128,-1,31
 233 526 233 526 222 537 c 128,-1,32
 211 548 211 548 195.5 554.5 c 128,-1,33
 180 561 180 561 163 561 c 0,34,35
 155 561 155 561 147 558.5 c 128,-1,36
 139 556 139 556 132 551 c 1,0,-1
EndSplineSet
EndChar

StartChar: acute
Encoding: 180 180 116
Width: 240
Flags: W
LayerCount: 2
Fore
SplineSet
100 479 m 1,0,1
 123 512 123 512 145 545.5 c 128,-1,2
 167 579 167 579 190 612 c 1,3,-1
 233 612 l 1,4,5
 208 579 208 579 183 545.5 c 128,-1,6
 158 512 158 512 133 479 c 1,7,-1
 100 479 l 1,0,1
EndSplineSet
EndChar

StartChar: mu
Encoding: 181 181 117
Width: 545
Flags: W
LayerCount: 2
Fore
SplineSet
312 375 m 1,0,-1
 427 375 l 1,1,-1
 427 36 l 1,2,-1
 498 36 l 1,3,-1
 498 0 l 1,4,-1
 390 0 l 1,5,-1
 388 52 l 1,6,-1
 388 97 l 1,7,8
 368 49 368 49 323.5 20.5 c 128,-1,9
 279 -8 279 -8 224 -8 c 0,10,11
 198 -8 198 -8 177.5 1.5 c 128,-1,12
 157 11 157 11 145 28 c 1,13,-1
 145 -201 l 1,14,-1
 103 -201 l 1,15,-1
 103 335 l 1,16,-1
 29 335 l 1,17,-1
 29 375 l 1,18,-1
 145 375 l 1,19,-1
 145 115 l 1,20,21
 147 83 147 83 168.5 59 c 128,-1,22
 190 35 190 35 232 33 c 1,23,24
 262 33 262 33 290 43.5 c 128,-1,25
 318 54 318 54 339 72 c 128,-1,26
 360 90 360 90 372.5 115 c 128,-1,27
 385 140 385 140 385 170 c 2,28,-1
 385 335 l 1,29,-1
 312 335 l 1,30,-1
 312 375 l 1,0,-1
EndSplineSet
EndChar

StartChar: paragraph
Encoding: 182 182 118
Width: 534
Flags: W
LayerCount: 2
Fore
SplineSet
243 0 m 1,0,-1
 201 0 l 1,1,-1
 201 423 l 1,2,3
 167 423 167 423 137 435.5 c 128,-1,4
 107 448 107 448 85 470 c 128,-1,5
 63 492 63 492 50.5 522 c 128,-1,6
 38 552 38 552 38 586 c 256,7,8
 38 620 38 620 50.5 650 c 128,-1,9
 63 680 63 680 85 702 c 128,-1,10
 107 724 107 724 137 737 c 128,-1,11
 167 750 167 750 201 750 c 2,12,-1
 498 750 l 1,13,-1
 498 714 l 1,14,-1
 406 714 l 1,15,-1
 406 36 l 1,16,-1
 498 36 l 1,17,-1
 498 0 l 1,18,-1
 364 0 l 1,19,-1
 364 714 l 1,20,-1
 243 714 l 1,21,-1
 243 0 l 1,0,-1
EndSplineSet
EndChar

StartChar: cedilla
Encoding: 184 184 120
Width: 452
Flags: W
LayerCount: 2
Fore
SplineSet
189 0 m 1,0,-1
 218 0 l 1,1,-1
 218 -6 l 2,2,3
 218 -20 218 -20 222 -28.5 c 128,-1,4
 226 -37 226 -37 232.5 -43 c 128,-1,5
 239 -49 239 -49 246.5 -53 c 128,-1,6
 254 -57 254 -57 260 -61 c 0,7,8
 282 -76 282 -76 291 -95.5 c 128,-1,9
 300 -115 300 -115 300 -133 c 0,10,11
 300 -181 300 -181 274.5 -207.5 c 128,-1,12
 249 -234 249 -234 208 -234 c 0,13,14
 179 -234 179 -234 153.5 -218 c 128,-1,15
 128 -202 128 -202 117 -169 c 1,16,17
 124 -166 124 -166 131 -163 c 128,-1,18
 138 -160 138 -160 145 -157 c 1,19,20
 150 -176 150 -176 166 -188.5 c 128,-1,21
 182 -201 182 -201 205 -201 c 0,22,23
 233 -201 233 -201 250 -182 c 128,-1,24
 267 -163 267 -163 267 -135 c 0,25,26
 267 -110 267 -110 255 -96.5 c 128,-1,27
 243 -83 243 -83 228 -73 c 128,-1,28
 213 -63 213 -63 201 -52.5 c 128,-1,29
 189 -42 189 -42 189 -23 c 2,30,-1
 189 0 l 1,0,-1
EndSplineSet
EndChar

StartChar: onesuperior
Encoding: 185 185 121
Width: 259
Flags: W
LayerCount: 2
Fore
SplineSet
71 419 m 1,0,-1
 108 419 l 1,1,-1
 108 681 l 1,2,-1
 65 681 l 1,3,-1
 65 700 l 1,4,-1
 127 700 l 1,5,-1
 127 419 l 1,6,-1
 164 419 l 1,7,-1
 164 401 l 1,8,-1
 71 401 l 1,9,-1
 71 419 l 1,0,-1
EndSplineSet
EndChar

StartChar: ordmasculine
Encoding: 186 186 122
Width: 469
Flags: W
LayerCount: 2
Fore
SplineSet
91 442 m 0,0,1
 91 470 91 470 102 496 c 128,-1,2
 113 522 113 522 132.5 541.5 c 128,-1,3
 152 561 152 561 177.5 572 c 128,-1,4
 203 583 203 583 232 583 c 0,5,6
 262 583 262 583 288 572 c 128,-1,7
 314 561 314 561 333.5 541.5 c 128,-1,8
 353 522 353 522 364 496 c 128,-1,9
 375 470 375 470 375 442 c 0,10,11
 375 412 375 412 364 386.5 c 128,-1,12
 353 361 353 361 333.5 342 c 128,-1,13
 314 323 314 323 288 312 c 128,-1,14
 262 301 262 301 232 301 c 0,15,16
 203 301 203 301 177.5 312 c 128,-1,17
 152 323 152 323 132.5 342 c 128,-1,18
 113 361 113 361 102 386.5 c 128,-1,19
 91 412 91 412 91 442 c 0,0,1
121 442 m 256,20,21
 121 419 121 419 129.5 398.5 c 128,-1,22
 138 378 138 378 153 363 c 128,-1,23
 168 348 168 348 188.5 339.5 c 128,-1,24
 209 331 209 331 232 331 c 256,25,26
 255 331 255 331 275.5 339.5 c 128,-1,27
 296 348 296 348 311 363 c 128,-1,28
 326 378 326 378 334.5 398.5 c 128,-1,29
 343 419 343 419 343 442 c 256,30,31
 343 465 343 465 334.5 485 c 128,-1,32
 326 505 326 505 311 520 c 128,-1,33
 296 535 296 535 275.5 544 c 128,-1,34
 255 553 255 553 232 553 c 256,35,36
 209 553 209 553 188.5 544 c 128,-1,37
 168 535 168 535 153 520 c 128,-1,38
 138 505 138 505 129.5 485 c 128,-1,39
 121 465 121 465 121 442 c 256,20,21
EndSplineSet
EndChar

StartChar: guillemotright
Encoding: 187 187 123
Width: 601
Flags: W
LayerCount: 2
Fore
SplineSet
117 125 m 1,0,-1
 228 239 l 1,1,2
 200 268 200 268 172.5 296 c 128,-1,3
 145 324 145 324 117 352 c 1,4,-1
 117 400 l 1,5,6
 160 359 160 359 202.5 319.5 c 128,-1,7
 245 280 245 280 288 239 c 1,8,-1
 117 77 l 1,9,-1
 117 125 l 1,0,-1
288 125 m 1,10,-1
 399 239 l 1,11,12
 371 268 371 268 343.5 295.5 c 128,-1,13
 316 323 316 323 288 352 c 1,14,-1
 288 400 l 1,15,16
 331 359 331 359 373.5 319.5 c 128,-1,17
 416 280 416 280 459 239 c 1,18,-1
 288 77 l 1,19,-1
 288 125 l 1,10,-1
EndSplineSet
EndChar

StartChar: onequarter
Encoding: 188 188 124
Width: 968
Flags: W
LayerCount: 2
Fore
SplineSet
279 -19 m 1,0,1
 349 171 349 171 418 358.5 c 128,-1,2
 487 546 487 546 557 735 c 1,3,-1
 599 735 l 1,4,5
 529 546 529 546 460 358.5 c 128,-1,6
 391 171 391 171 321 -19 c 1,7,-1
 279 -19 l 1,0,1
686 30 m 1,8,-1
 742 30 l 1,9,-1
 742 136 l 1,10,-1
 501 136 l 1,11,-1
 773 490 l 1,12,-1
 773 167 l 1,13,-1
 845 167 l 1,14,-1
 845 136 l 1,15,-1
 773 136 l 1,16,-1
 773 30 l 1,17,-1
 835 30 l 1,18,-1
 835 0 l 1,19,-1
 686 0 l 1,20,-1
 686 30 l 1,8,-1
742 398 m 1,21,-1
 565 167 l 1,22,-1
 742 167 l 1,23,-1
 742 398 l 1,21,-1
142 262 m 1,24,-1
 198 262 l 1,25,-1
 198 666 l 1,26,-1
 131 666 l 1,27,-1
 131 695 l 1,28,-1
 228 695 l 1,29,-1
 228 262 l 1,30,-1
 285 262 l 1,31,-1
 285 234 l 1,32,-1
 142 234 l 1,33,-1
 142 262 l 1,24,-1
EndSplineSet
EndChar

StartChar: onehalf
Encoding: 189 189 125
Width: 1069
Flags: W
LayerCount: 2
Fore
SplineSet
132 262 m 1,0,-1
 189 262 l 1,1,-1
 189 666 l 1,2,-1
 121 666 l 1,3,-1
 121 695 l 1,4,-1
 218 695 l 1,5,-1
 218 262 l 1,6,-1
 275 262 l 1,7,-1
 275 234 l 1,8,-1
 132 234 l 1,9,-1
 132 262 l 1,0,-1
646 29 m 1,10,-1
 839 29 l 1,11,-1
 839 103 l 1,12,-1
 867 103 l 1,13,-1
 867 0 l 1,14,-1
 573 0 l 1,15,16
 618 44 618 44 660 86 c 128,-1,17
 702 128 702 128 734.5 168 c 128,-1,18
 767 208 767 208 787 245 c 128,-1,19
 807 282 807 282 807 316 c 256,20,21
 807 350 807 350 796.5 373 c 128,-1,22
 786 396 786 396 771 410.5 c 128,-1,23
 756 425 756 425 738 431 c 128,-1,24
 720 437 720 437 704 437 c 0,25,26
 673 437 673 437 652.5 425.5 c 128,-1,27
 632 414 632 414 620.5 398 c 128,-1,28
 609 382 609 382 604.5 362.5 c 128,-1,29
 600 343 600 343 600 328 c 0,30,31
 600 303 600 303 607 284 c 128,-1,32
 614 265 614 265 627 250 c 1,33,-1
 610 232 l 1,34,35
 591 248 591 248 580.5 274 c 128,-1,36
 570 300 570 300 570 328 c 256,37,38
 570 356 570 356 579 381 c 128,-1,39
 588 406 588 406 605 425 c 128,-1,40
 622 444 622 444 647 455 c 128,-1,41
 672 466 672 466 704 466 c 0,42,43
 734 466 734 466 758.5 455 c 128,-1,44
 783 444 783 444 800.5 425 c 128,-1,45
 818 406 818 406 827.5 380 c 128,-1,46
 837 354 837 354 837 324 c 0,47,48
 837 286 837 286 819.5 248 c 128,-1,49
 802 210 802 210 774.5 173.5 c 128,-1,50
 747 137 747 137 713 100.5 c 128,-1,51
 679 64 679 64 646 29 c 1,10,-1
279 -19 m 1,52,53
 349 171 349 171 418 358.5 c 128,-1,54
 487 546 487 546 557 735 c 1,55,-1
 599 735 l 1,56,57
 529 546 529 546 460 358.5 c 128,-1,58
 391 171 391 171 321 -19 c 1,59,-1
 279 -19 l 1,52,53
EndSplineSet
EndChar

StartChar: threequarters
Encoding: 190 190 126
Width: 1276
Flags: W
LayerCount: 2
Fore
SplineSet
216 474 m 1,0,-1
 357 677 l 1,1,-1
 196 677 l 1,2,-1
 196 630 l 1,3,-1
 165 630 l 1,4,-1
 165 708 l 1,5,-1
 415 708 l 1,6,-1
 278 518 l 1,7,8
 309 516 309 516 336.5 503 c 128,-1,9
 364 490 364 490 384.5 469.5 c 128,-1,10
 405 449 405 449 416.5 421.5 c 128,-1,11
 428 394 428 394 428 361 c 256,12,13
 428 328 428 328 415 298.5 c 128,-1,14
 402 269 402 269 380 247 c 128,-1,15
 358 225 358 225 328.5 212.5 c 128,-1,16
 299 200 299 200 266 200 c 0,17,18
 230 200 230 200 199.5 214 c 128,-1,19
 169 228 169 228 147 252 c 1,20,-1
 171 276 l 1,21,22
 188 256 188 256 212 243.5 c 128,-1,23
 236 231 236 231 264 231 c 0,24,25
 291 231 291 231 315 241.5 c 128,-1,26
 339 252 339 252 357 270 c 128,-1,27
 375 288 375 288 385 311.5 c 128,-1,28
 395 335 395 335 395 361 c 0,29,30
 395 388 395 388 385 411.5 c 128,-1,31
 375 435 375 435 357 452.5 c 128,-1,32
 339 470 339 470 315 480 c 128,-1,33
 291 490 291 490 264 490 c 0,34,35
 251 490 251 490 238.5 486 c 128,-1,36
 226 482 226 482 216 474 c 1,0,-1
454 -19 m 1,37,38
 524 171 524 171 593 358.5 c 128,-1,39
 662 546 662 546 732 736 c 1,40,-1
 774 736 l 1,41,42
 704 546 704 546 635 358.5 c 128,-1,43
 566 171 566 171 496 -19 c 1,44,-1
 454 -19 l 1,37,38
884 30 m 1,45,-1
 941 30 l 1,46,-1
 941 136 l 1,47,-1
 700 136 l 1,48,-1
 972 490 l 1,49,-1
 972 167 l 1,50,-1
 1044 167 l 1,51,-1
 1044 136 l 1,52,-1
 972 136 l 1,53,-1
 972 30 l 1,54,-1
 1034 30 l 1,55,-1
 1034 0 l 1,56,-1
 884 0 l 1,57,-1
 884 30 l 1,45,-1
941 398 m 1,58,-1
 763 167 l 1,59,-1
 941 167 l 1,60,-1
 941 398 l 1,58,-1
EndSplineSet
EndChar

StartChar: AE
Encoding: 198 198 134
Width: 776
Flags: W
LayerCount: 2
Fore
SplineSet
687 546 m 1,0,-1
 687 660 l 1,1,-1
 440 660 l 1,2,-1
 440 373 l 1,3,-1
 688 373 l 1,4,-1
 688 333 l 1,5,-1
 440 333 l 1,6,-1
 440 40 l 1,7,-1
 701 40 l 1,8,-1
 701 154 l 1,9,-1
 741 154 l 1,10,-1
 741 0 l 1,11,-1
 398 0 l 1,12,-1
 398 295 l 1,13,-1
 264 295 l 1,14,15
 237 231 237 231 210 167.5 c 128,-1,16
 183 104 183 104 155 40 c 1,17,-1
 228 40 l 1,18,-1
 228 0 l 1,19,-1
 35 0 l 1,20,-1
 35 40 l 1,21,-1
 113 40 l 1,22,23
 184 206 184 206 253 370 c 128,-1,24
 322 534 322 534 392 700 c 1,25,-1
 727 700 l 1,26,-1
 727 546 l 1,27,-1
 687 546 l 1,0,-1
398 335 m 1,28,-1
 398 619 l 1,29,30
 373 547 373 547 341.5 476.5 c 128,-1,31
 310 406 310 406 281 335 c 1,32,-1
 398 335 l 1,28,-1
EndSplineSet
EndChar

StartChar: Ccedilla
Encoding: 199 199 135
Width: 595
Flags: W
LayerCount: 2
Fore
SplineSet
535 465 m 1,0,-1
 535 632 l 1,1,2
 503 649 503 649 466.5 658.5 c 128,-1,3
 430 668 430 668 392 668 c 0,4,5
 327 668 327 668 269.5 642.5 c 128,-1,6
 212 617 212 617 169 573.5 c 128,-1,7
 126 530 126 530 101.5 472 c 128,-1,8
 77 414 77 414 77 348 c 0,9,10
 77 283 77 283 101.5 225.5 c 128,-1,11
 126 168 126 168 169 125 c 128,-1,12
 212 82 212 82 268.5 57 c 128,-1,13
 325 32 325 32 390 32 c 0,14,15
 435 32 435 32 475 43.5 c 128,-1,16
 515 55 515 55 551 76 c 1,17,-1
 574 42 l 1,18,19
 535 19 535 19 490.5 6 c 128,-1,20
 446 -7 446 -7 398 -8 c 1,21,22
 398 -13 398 -13 398 -16.5 c 128,-1,23
 398 -20 398 -20 399 -21 c 0,24,25
 404 -39 404 -39 416 -46.5 c 128,-1,26
 428 -54 428 -54 439 -61 c 0,27,28
 461 -76 461 -76 470 -95.5 c 128,-1,29
 479 -115 479 -115 479 -133 c 0,30,31
 479 -181 479 -181 453.5 -207.5 c 128,-1,32
 428 -234 428 -234 387 -234 c 0,33,34
 358 -234 358 -234 333 -218 c 128,-1,35
 308 -202 308 -202 297 -169 c 1,36,-1
 324 -157 l 1,37,38
 330 -176 330 -176 345.5 -188.5 c 128,-1,39
 361 -201 361 -201 384 -201 c 0,40,41
 413 -201 413 -201 429.5 -182 c 128,-1,42
 446 -163 446 -163 446 -135 c 0,43,44
 446 -110 446 -110 434 -96.5 c 128,-1,45
 422 -83 422 -83 407.5 -73 c 128,-1,46
 393 -63 393 -63 381 -52.5 c 128,-1,47
 369 -42 369 -42 369 -23 c 2,48,-1
 369 -7 l 1,49,50
 299 -3 299 -3 238 26.5 c 128,-1,51
 177 56 177 56 132 104 c 128,-1,52
 87 152 87 152 61 215 c 128,-1,53
 35 278 35 278 35 349 c 0,54,55
 35 423 35 423 63 488.5 c 128,-1,56
 91 554 91 554 139.5 602.5 c 128,-1,57
 188 651 188 651 253 679.5 c 128,-1,58
 318 708 318 708 392 708 c 0,59,60
 443 708 443 708 488.5 695 c 128,-1,61
 534 682 534 682 575 658 c 1,62,-1
 575 465 l 1,63,-1
 535 465 l 1,0,-1
EndSplineSet
EndChar

StartChar: Eth
Encoding: 208 208 144
Width: 632
Flags: W
LayerCount: 2
Fore
SplineSet
44 372 m 1,0,-1
 98 372 l 1,1,-1
 98 660 l 1,2,-1
 35 660 l 1,3,-1
 35 700 l 1,4,-1
 245 700 l 2,5,6
 317 700 317 700 381 675.5 c 128,-1,7
 445 651 445 651 493 605.5 c 128,-1,8
 541 560 541 560 569 495 c 128,-1,9
 597 430 597 430 597 350 c 0,10,11
 597 291 597 291 576.5 229 c 128,-1,12
 556 167 556 167 510 116 c 128,-1,13
 464 65 464 65 390.5 32.5 c 128,-1,14
 317 0 317 0 211 0 c 2,15,-1
 35 0 l 1,16,-1
 35 40 l 1,17,-1
 98 40 l 1,18,-1
 98 331 l 1,19,-1
 44 331 l 1,20,-1
 44 372 l 1,0,-1
139 660 m 1,21,-1
 139 372 l 1,22,-1
 346 372 l 1,23,-1
 346 331 l 1,24,-1
 139 331 l 1,25,-1
 139 41 l 1,26,-1
 226 41 l 2,27,28
 309 41 309 41 371 67.5 c 128,-1,29
 433 94 433 94 474 137 c 128,-1,30
 515 180 515 180 535.5 235.5 c 128,-1,31
 556 291 556 291 556 350 c 0,32,33
 556 421 556 421 531.5 478.5 c 128,-1,34
 507 536 507 536 464.5 576.5 c 128,-1,35
 422 617 422 617 365.5 638.5 c 128,-1,36
 309 660 309 660 245 660 c 2,37,-1
 139 660 l 1,21,-1
EndSplineSet
EndChar

StartChar: multiply
Encoding: 215 215 151
Width: 500
Flags: W
LayerCount: 2
Fore
SplineSet
377 0 m 1,0,1
 348 29 348 29 320 56.5 c 128,-1,2
 292 84 292 84 263 113 c 1,3,4
 235 85 235 85 207.5 57 c 128,-1,5
 180 29 180 29 151 0 c 1,6,7
 144 8 144 8 136.5 15 c 128,-1,8
 129 22 129 22 122 29 c 1,9,10
 151 58 151 58 178.5 85.5 c 128,-1,11
 206 113 206 113 234 142 c 1,12,-1
 122 254 l 1,13,-1
 152 284 l 1,14,-1
 264 172 l 1,15,16
 293 201 293 201 320.5 228 c 128,-1,17
 348 255 348 255 377 284 c 1,18,19
 384 277 384 277 391 269.5 c 128,-1,20
 398 262 398 262 406 255 c 1,21,22
 377 227 377 227 349.5 199 c 128,-1,23
 322 171 322 171 293 143 c 1,24,25
 322 114 322 114 349.5 86 c 128,-1,26
 377 58 377 58 406 30 c 1,27,-1
 377 0 l 1,0,1
EndSplineSet
EndChar

StartChar: Oslash
Encoding: 216 216 152
Width: 786
Flags: W
LayerCount: 2
Fore
SplineSet
77 348 m 256,0,1
 77 282 77 282 101.5 224 c 128,-1,2
 126 166 126 166 170 123 c 1,3,4
 273 245 273 245 374 365 c 128,-1,5
 475 485 475 485 578 606 c 1,6,7
 538 635 538 635 491 651.5 c 128,-1,8
 444 668 444 668 392 668 c 0,9,10
 327 668 327 668 269.5 642.5 c 128,-1,11
 212 617 212 617 169 573.5 c 128,-1,12
 126 530 126 530 101.5 472 c 128,-1,13
 77 414 77 414 77 348 c 256,0,1
390 32 m 0,14,15
 456 32 456 32 514 57 c 128,-1,16
 572 82 572 82 615.5 125 c 128,-1,17
 659 168 659 168 684 225.5 c 128,-1,18
 709 283 709 283 709 349 c 0,19,20
 709 418 709 418 681.5 477.5 c 128,-1,21
 654 537 654 537 606 581 c 1,22,23
 503 460 503 460 402.5 339.5 c 128,-1,24
 302 219 302 219 199 98 c 1,25,26
 239 66 239 66 287.5 49 c 128,-1,27
 336 32 336 32 390 32 c 0,14,15
35 349 m 0,28,29
 35 423 35 423 63 488.5 c 128,-1,30
 91 554 91 554 139.5 602.5 c 128,-1,31
 188 651 188 651 253 679.5 c 128,-1,32
 318 708 318 708 392 708 c 0,33,34
 452 708 452 708 506 689.5 c 128,-1,35
 560 671 560 671 605 637 c 1,36,-1
 668 712 l 1,37,38
 675 706 675 706 682 700 c 128,-1,39
 689 694 689 694 696 687 c 1,40,41
 680 668 680 668 665 650 c 128,-1,42
 650 632 650 632 634 613 c 1,43,44
 688 564 688 564 719.5 495.5 c 128,-1,45
 751 427 751 427 751 349 c 0,46,47
 751 275 751 275 722.5 210 c 128,-1,48
 694 145 694 145 645.5 96.5 c 128,-1,49
 597 48 597 48 531.5 20 c 128,-1,50
 466 -8 466 -8 392 -8 c 0,51,52
 329 -8 329 -8 273.5 12 c 128,-1,53
 218 32 218 32 173 67 c 1,54,55
 156 47 156 47 139.5 27.5 c 128,-1,56
 123 8 123 8 106 -12 c 1,57,58
 99 -5 99 -5 92 1 c 128,-1,59
 85 7 85 7 78 14 c 1,60,-1
 144 92 l 1,61,62
 93 141 93 141 64 207 c 128,-1,63
 35 273 35 273 35 349 c 0,28,29
EndSplineSet
EndChar

StartChar: Thorn
Encoding: 222 222 158
Width: 506
Flags: W
LayerCount: 2
Fore
SplineSet
35 40 m 1,0,-1
 106 40 l 1,1,-1
 106 660 l 1,2,-1
 35 660 l 1,3,-1
 35 700 l 1,4,-1
 228 700 l 1,5,-1
 228 660 l 1,6,-1
 148 660 l 1,7,-1
 148 535 l 1,8,-1
 256 535 l 2,9,10
 287 535 287 535 324.5 525 c 128,-1,11
 362 515 362 515 394.5 493 c 128,-1,12
 427 471 427 471 449 436 c 128,-1,13
 471 401 471 401 471 352 c 0,14,15
 471 266 471 266 416 215 c 128,-1,16
 361 164 361 164 258 164 c 2,17,-1
 148 164 l 1,18,-1
 148 40 l 1,19,-1
 236 40 l 1,20,-1
 236 0 l 1,21,-1
 35 0 l 1,22,-1
 35 40 l 1,0,-1
148 205 m 1,23,-1
 251 205 l 2,24,25
 303 205 303 205 337.5 219 c 128,-1,26
 372 233 372 233 392.5 255 c 128,-1,27
 413 277 413 277 421 302.5 c 128,-1,28
 429 328 429 328 429 352 c 0,29,30
 429 380 429 380 415.5 406 c 128,-1,31
 402 432 402 432 378.5 452 c 128,-1,32
 355 472 355 472 322.5 483.5 c 128,-1,33
 290 495 290 495 252 495 c 2,34,-1
 148 495 l 1,35,-1
 148 205 l 1,23,-1
EndSplineSet
EndChar

StartChar: germandbls
Encoding: 223 223 159
Width: 549
Flags: W
LayerCount: 2
Fore
SplineSet
35 40 m 1,0,-1
 109 40 l 1,1,-1
 109 356 l 1,2,-1
 46 356 l 1,3,-1
 46 396 l 1,4,-1
 109 396 l 1,5,-1
 109 425 l 2,6,7
 109 480 109 480 124.5 523 c 128,-1,8
 140 566 140 566 167 595.5 c 128,-1,9
 194 625 194 625 229.5 641 c 128,-1,10
 265 657 265 657 304 658 c 1,11,12
 335 657 335 657 362 645 c 128,-1,13
 389 633 389 633 409 612.5 c 128,-1,14
 429 592 429 592 440.5 565 c 128,-1,15
 452 538 452 538 452 507 c 0,16,17
 452 469 452 469 431.5 437.5 c 128,-1,18
 411 406 411 406 379 389 c 1,19,20
 408 379 408 379 433 360.5 c 128,-1,21
 458 342 458 342 476 317.5 c 128,-1,22
 494 293 494 293 504 263 c 128,-1,23
 514 233 514 233 514 200 c 0,24,25
 514 157 514 157 497 119 c 128,-1,26
 480 81 480 81 451.5 53 c 128,-1,27
 423 25 423 25 384.5 8.5 c 128,-1,28
 346 -8 346 -8 303 -8 c 0,29,30
 250 -8 250 -8 205 17 c 1,31,-1
 222 53 l 1,32,33
 258 32 258 32 302 32 c 0,34,35
 337 32 337 32 368 45.5 c 128,-1,36
 399 59 399 59 422 82 c 128,-1,37
 445 105 445 105 458.5 135.5 c 128,-1,38
 472 166 472 166 472 200 c 256,39,40
 472 234 472 234 458.5 264 c 128,-1,41
 445 294 445 294 422 316.5 c 128,-1,42
 399 339 399 339 368 352 c 128,-1,43
 337 365 337 365 303 365 c 1,44,-1
 303 386 l 1,45,-1
 303 407 l 1,46,47
 348 407 348 407 379 434 c 128,-1,48
 410 461 410 461 410 505 c 0,49,50
 410 527 410 527 402 547 c 128,-1,51
 394 567 394 567 380 583 c 128,-1,52
 366 599 366 599 346.5 608 c 128,-1,53
 327 617 327 617 304 617 c 0,54,55
 272 617 272 617 244 603.5 c 128,-1,56
 216 590 216 590 195 565 c 128,-1,57
 174 540 174 540 162 504.5 c 128,-1,58
 150 469 150 469 150 425 c 2,59,-1
 150 0 l 1,60,-1
 35 0 l 1,61,-1
 35 40 l 1,0,-1
EndSplineSet
EndChar

StartChar: ae
Encoding: 230 230 166
Width: 593
Flags: W
LayerCount: 2
Fore
SplineSet
348 241 m 2,0,-1
 348 203 l 1,1,2
 387 218 387 218 426.5 233.5 c 128,-1,3
 466 249 466 249 505 264 c 1,4,5
 488 299 488 299 456 320 c 128,-1,6
 424 341 424 341 386 341 c 0,7,8
 369 341 369 341 354.5 337.5 c 128,-1,9
 340 334 340 334 326 329 c 1,10,11
 339 315 339 315 343.5 293.5 c 128,-1,12
 348 272 348 272 348 241 c 2,0,-1
306 160 m 1,13,-1
 228 160 l 2,14,15
 213 160 213 160 187.5 160 c 128,-1,16
 162 160 162 160 137.5 154.5 c 128,-1,17
 113 149 113 149 95 137 c 128,-1,18
 77 125 77 125 77 101 c 0,19,20
 77 79 77 79 88 65.5 c 128,-1,21
 99 52 99 52 116.5 44.5 c 128,-1,22
 134 37 134 37 154.5 34 c 128,-1,23
 175 31 175 31 194 31 c 256,24,25
 213 31 213 31 233 34 c 128,-1,26
 253 37 253 37 269.5 45 c 128,-1,27
 286 53 286 53 296 67.5 c 128,-1,28
 306 82 306 82 306 106 c 2,29,-1
 306 160 l 1,13,-1
86 309 m 1,30,31
 79 316 79 316 73 323 c 128,-1,32
 67 330 67 330 60 337 c 1,33,34
 70 346 70 346 85.5 354.5 c 128,-1,35
 101 363 101 363 119 369 c 128,-1,36
 137 375 137 375 156.5 378.5 c 128,-1,37
 176 382 176 382 193 382 c 0,38,39
 267 382 267 382 301 363 c 1,40,41
 342 382 342 382 386 382 c 0,42,43
 416 382 416 382 443 371.5 c 128,-1,44
 470 361 470 361 492.5 342 c 128,-1,45
 515 323 515 323 532 297.5 c 128,-1,46
 549 272 549 272 558 241 c 1,47,48
 506 221 506 221 453.5 200 c 128,-1,49
 401 179 401 179 348 159 c 1,50,-1
 348 128 l 2,51,52
 348 99 348 99 342.5 79.5 c 128,-1,53
 337 60 337 60 322 45 c 1,54,55
 349 32 349 32 386 32 c 0,56,57
 417 32 417 32 444 43 c 128,-1,58
 471 54 471 54 491 74 c 1,59,60
 498 66 498 66 504 59 c 128,-1,61
 510 52 510 52 517 44 c 1,62,63
 491 19 491 19 458 5 c 128,-1,64
 425 -9 425 -9 386 -9 c 0,65,66
 336 -9 336 -9 297 12 c 1,67,68
 260 -10 260 -10 193 -10 c 0,69,70
 157 -10 157 -10 128 -4.5 c 128,-1,71
 99 1 99 1 78.5 13.5 c 128,-1,72
 58 26 58 26 46.5 47.5 c 128,-1,73
 35 69 35 69 35 102 c 0,74,75
 35 130 35 130 47.5 149.5 c 128,-1,76
 60 169 60 169 81 181 c 128,-1,77
 102 193 102 193 128.5 198 c 128,-1,78
 155 203 155 203 183 203 c 2,79,-1
 306 203 l 1,80,-1
 306 243 l 2,81,82
 306 268 306 268 302 286.5 c 128,-1,83
 298 305 298 305 286 317 c 128,-1,84
 274 329 274 329 251.5 335 c 128,-1,85
 229 341 229 341 192 341 c 0,86,87
 179 341 179 341 163.5 338 c 128,-1,88
 148 335 148 335 133.5 330.5 c 128,-1,89
 119 326 119 326 106 320.5 c 128,-1,90
 93 315 93 315 86 309 c 1,30,31
EndSplineSet
EndChar

StartChar: ccedilla
Encoding: 231 231 167
Width: 391
Flags: W
LayerCount: 2
Fore
SplineSet
330 67 m 1,0,-1
 356 36 l 1,1,2
 350 31 350 31 333.5 22.5 c 128,-1,3
 317 14 317 14 298 6 c 128,-1,4
 279 -2 279 -2 261.5 -7 c 128,-1,5
 244 -12 244 -12 237 -10 c 1,6,7
 237 -22 237 -22 241.5 -30 c 128,-1,8
 246 -38 246 -38 252 -43.5 c 128,-1,9
 258 -49 258 -49 265.5 -53 c 128,-1,10
 273 -57 273 -57 279 -61 c 0,11,12
 301 -76 301 -76 310 -95.5 c 128,-1,13
 319 -115 319 -115 319 -133 c 0,14,15
 319 -178 319 -178 297 -202 c 128,-1,16
 275 -226 275 -226 242 -231 c 0,17,18
 224 -234 224 -234 206 -230 c 0,19,20
 183 -226 183 -226 164.5 -211 c 128,-1,21
 146 -196 146 -196 137 -169 c 1,22,-1
 164 -157 l 1,23,24
 170 -177 170 -177 185.5 -189 c 128,-1,25
 201 -201 201 -201 224 -201 c 0,26,27
 252 -201 252 -201 269 -182 c 128,-1,28
 286 -163 286 -163 286 -135 c 0,29,30
 286 -110 286 -110 274 -96.5 c 128,-1,31
 262 -83 262 -83 247.5 -73 c 128,-1,32
 233 -63 233 -63 221 -52.5 c 128,-1,33
 209 -42 209 -42 209 -23 c 2,34,-1
 209 -4 l 1,35,36
 172 0 172 0 140.5 16 c 128,-1,37
 109 32 109 32 85.5 57.5 c 128,-1,38
 62 83 62 83 48.5 116.5 c 128,-1,39
 35 150 35 150 35 188 c 0,40,41
 35 228 35 228 50.5 264 c 128,-1,42
 66 300 66 300 92.5 326 c 128,-1,43
 119 352 119 352 155 367.5 c 128,-1,44
 191 383 191 383 232 383 c 0,45,46
 268 383 268 383 299.5 371.5 c 128,-1,47
 331 360 331 360 356 340 c 1,48,-1
 356 241 l 1,49,-1
 318 241 l 1,50,-1
 318 316 l 1,51,52
 299 329 299 329 277.5 336 c 128,-1,53
 256 343 256 343 232 343 c 0,54,55
 199 343 199 343 170.5 331 c 128,-1,56
 142 319 142 319 121.5 298 c 128,-1,57
 101 277 101 277 89 248.5 c 128,-1,58
 77 220 77 220 77 188 c 256,59,60
 77 156 77 156 89 128 c 128,-1,61
 101 100 101 100 121.5 79 c 128,-1,62
 142 58 142 58 170.5 46 c 128,-1,63
 199 34 199 34 232 34 c 0,64,65
 288 34 288 34 330 67 c 1,0,-1
EndSplineSet
EndChar

StartChar: eth
Encoding: 240 240 176
Width: 464
Flags: W
LayerCount: 2
Fore
SplineSet
77 188 m 256,0,1
 77 156 77 156 89 128 c 128,-1,2
 101 100 101 100 122 79 c 128,-1,3
 143 58 143 58 171.5 46.5 c 128,-1,4
 200 35 200 35 233 35 c 256,5,6
 266 35 266 35 294.5 47.5 c 128,-1,7
 323 60 323 60 343.5 81 c 128,-1,8
 364 102 364 102 375.5 130 c 128,-1,9
 387 158 387 158 387 190 c 0,10,11
 387 223 387 223 374.5 251 c 128,-1,12
 362 279 362 279 341 300 c 128,-1,13
 320 321 320 321 292 332.5 c 128,-1,14
 264 344 264 344 231 344 c 256,15,16
 198 344 198 344 169.5 331.5 c 128,-1,17
 141 319 141 319 120.5 298 c 128,-1,18
 100 277 100 277 88.5 248.5 c 128,-1,19
 77 220 77 220 77 188 c 256,0,1
123 541 m 1,20,21
 140 559 140 559 157 577.5 c 128,-1,22
 174 596 174 596 191 614 c 1,23,24
 146 664 146 664 98 703 c 1,25,-1
 126 731 l 1,26,27
 174 693 174 693 219 644 c 1,28,29
 234 661 234 661 249.5 677 c 128,-1,30
 265 693 265 693 279 710 c 1,31,32
 287 704 287 704 293.5 698 c 128,-1,33
 300 692 300 692 307 686 c 1,34,35
 291 668 291 668 275.5 650.5 c 128,-1,36
 260 633 260 633 243 615 c 1,37,38
 280 570 280 570 314 517.5 c 128,-1,39
 348 465 348 465 373.5 410 c 128,-1,40
 399 355 399 355 414 299.5 c 128,-1,41
 429 244 429 244 429 192 c 0,42,43
 429 151 429 151 414 115.5 c 128,-1,44
 399 80 399 80 373 53 c 128,-1,45
 347 26 347 26 311 10.5 c 128,-1,46
 275 -5 275 -5 234 -6 c 0,47,48
 193 -6 193 -6 157 8.5 c 128,-1,49
 121 23 121 23 94 49.5 c 128,-1,50
 67 76 67 76 51.5 111 c 128,-1,51
 36 146 36 146 35 187 c 0,52,53
 35 227 35 227 49.5 263 c 128,-1,54
 64 299 64 299 90.5 325.5 c 128,-1,55
 117 352 117 352 152.5 368 c 128,-1,56
 188 384 188 384 229 384 c 1,57,58
 267 385 267 385 299 369.5 c 128,-1,59
 331 354 331 354 353 328 c 1,60,61
 340 378 340 378 307 444.5 c 128,-1,62
 274 511 274 511 214 583 c 1,63,64
 198 566 198 566 182.5 549 c 128,-1,65
 167 532 167 532 151 515 c 1,66,67
 144 522 144 522 137 528 c 128,-1,68
 130 534 130 534 123 541 c 1,20,21
EndSplineSet
EndChar

StartChar: divide
Encoding: 247 247 183
Width: 501
Flags: W
LayerCount: 2
Fore
SplineSet
428 208 m 1,0,-1
 68 208 l 1,1,-1
 68 249 l 1,2,-1
 428 249 l 1,3,-1
 428 208 l 1,0,-1
218 354 m 256,4,5
 218 368 218 368 228 377.5 c 128,-1,6
 238 387 238 387 251 387 c 256,7,8
 264 387 264 387 273.5 377.5 c 128,-1,9
 283 368 283 368 283 354 c 256,10,11
 283 340 283 340 273.5 330.5 c 128,-1,12
 264 321 264 321 251 321 c 256,13,14
 238 321 238 321 228 330.5 c 128,-1,15
 218 340 218 340 218 354 c 256,4,5
218 104 m 256,16,17
 218 118 218 118 228 127.5 c 128,-1,18
 238 137 238 137 251 137 c 256,19,20
 264 137 264 137 273.5 127.5 c 128,-1,21
 283 118 283 118 283 104 c 256,22,23
 283 90 283 90 273.5 80.5 c 128,-1,24
 264 71 264 71 251 71 c 256,25,26
 238 71 238 71 228 80.5 c 128,-1,27
 218 90 218 90 218 104 c 256,16,17
EndSplineSet
EndChar

StartChar: oslash
Encoding: 248 248 184
Width: 463
Flags: W
LayerCount: 2
Fore
SplineSet
77 188 m 0,0,1
 77 158 77 158 87.5 131.5 c 128,-1,2
 98 105 98 105 116 85 c 1,3,4
 166 144 166 144 214.5 202 c 128,-1,5
 263 260 263 260 313 319 c 1,6,7
 296 330 296 330 275 336.5 c 128,-1,8
 254 343 254 343 231 343 c 0,9,10
 198 343 198 343 170 331 c 128,-1,11
 142 319 142 319 121.5 298 c 128,-1,12
 101 277 101 277 89 248.5 c 128,-1,13
 77 220 77 220 77 188 c 0,0,1
231 34 m 0,14,15
 264 34 264 34 292.5 46 c 128,-1,16
 321 58 321 58 342 79 c 128,-1,17
 363 100 363 100 375 128 c 128,-1,18
 387 156 387 156 387 188 c 0,19,20
 387 221 387 221 374 250 c 128,-1,21
 361 279 361 279 338 300 c 1,22,23
 288 240 288 240 238.5 181.5 c 128,-1,24
 189 123 189 123 139 64 c 1,25,26
 178 34 178 34 231 34 c 0,14,15
35 188 m 256,27,28
 35 228 35 228 50.5 264 c 128,-1,29
 66 300 66 300 92.5 326 c 128,-1,30
 119 352 119 352 154.5 367.5 c 128,-1,31
 190 383 190 383 231 383 c 0,32,33
 262 383 262 383 289.5 374.5 c 128,-1,34
 317 366 317 366 340 351 c 1,35,36
 348 361 348 361 357 370.5 c 128,-1,37
 366 380 366 380 374 390 c 1,38,39
 380 385 380 385 385.5 379.5 c 128,-1,40
 391 374 391 374 397 369 c 1,41,42
 389 360 389 360 381 350.5 c 128,-1,43
 373 341 373 341 365 331 c 1,44,45
 394 305 394 305 411.5 267.5 c 128,-1,46
 429 230 429 230 429 188 c 0,47,48
 429 147 429 147 413.5 111.5 c 128,-1,49
 398 76 398 76 371 50 c 128,-1,50
 344 24 344 24 308 8.5 c 128,-1,51
 272 -7 272 -7 231 -7 c 0,52,53
 197 -7 197 -7 167 3.5 c 128,-1,54
 137 14 137 14 112 33 c 1,55,56
 102 21 102 21 92 9 c 128,-1,57
 82 -3 82 -3 72 -15 c 1,58,59
 66 -10 66 -10 60 -5 c 128,-1,60
 54 0 54 0 48 5 c 1,61,62
 59 17 59 17 68.5 29 c 128,-1,63
 78 41 78 41 89 53 c 1,64,65
 63 79 63 79 49 113.5 c 128,-1,66
 35 148 35 148 35 188 c 256,27,28
EndSplineSet
EndChar

StartChar: thorn
Encoding: 254 254 190
Width: 503
Flags: W
LayerCount: 2
Fore
SplineSet
16 -210 m 1,0,-1
 93 -210 l 1,1,-1
 93 710 l 1,2,-1
 16 710 l 1,3,-1
 16 750 l 1,4,-1
 209 750 l 1,5,-1
 209 710 l 1,6,-1
 135 710 l 1,7,-1
 135 337 l 1,8,9
 133 324 133 324 132 311 c 128,-1,10
 131 298 131 298 130 286 c 1,11,12
 137 304 137 304 152 321 c 128,-1,13
 167 338 167 338 188 351.5 c 128,-1,14
 209 365 209 365 235 373 c 128,-1,15
 261 381 261 381 290 381 c 0,16,17
 331 381 331 381 367 365.5 c 128,-1,18
 403 350 403 350 429.5 324 c 128,-1,19
 456 298 456 298 471.5 262.5 c 128,-1,20
 487 227 487 227 487 187 c 256,21,22
 487 147 487 147 471.5 111.5 c 128,-1,23
 456 76 456 76 429.5 49.5 c 128,-1,24
 403 23 403 23 367 7.5 c 128,-1,25
 331 -8 331 -8 290 -8 c 0,26,27
 260 -8 260 -8 234.5 0 c 128,-1,28
 209 8 209 8 188.5 20.5 c 128,-1,29
 168 33 168 33 153 49.5 c 128,-1,30
 138 66 138 66 131 84 c 1,31,32
 132 74 132 74 133 64 c 128,-1,33
 134 54 134 54 135 44 c 1,34,-1
 135 -210 l 1,35,-1
 217 -210 l 1,36,-1
 217 -250 l 1,37,-1
 16 -250 l 1,38,-1
 16 -210 l 1,0,-1
445 187 m 0,39,40
 445 220 445 220 433 248 c 128,-1,41
 421 276 421 276 400.5 296.5 c 128,-1,42
 380 317 380 317 351.5 329 c 128,-1,43
 323 341 323 341 290 341 c 256,44,45
 257 341 257 341 228.5 329 c 128,-1,46
 200 317 200 317 179.5 296.5 c 128,-1,47
 159 276 159 276 147 248 c 128,-1,48
 135 220 135 220 135 187 c 0,49,50
 135 155 135 155 147 126.5 c 128,-1,51
 159 98 159 98 179.5 77 c 128,-1,52
 200 56 200 56 228.5 44 c 128,-1,53
 257 32 257 32 290 32 c 256,54,55
 323 32 323 32 351.5 44 c 128,-1,56
 380 56 380 56 400.5 77 c 128,-1,57
 421 98 421 98 433 126.5 c 128,-1,58
 445 155 445 155 445 187 c 0,39,40
EndSplineSet
EndChar

StartChar: dotlessi
Encoding: 305 305 192
Width: 263
Flags: W
LayerCount: 2
Fore
SplineSet
35 40 m 1,0,-1
 112 40 l 1,1,-1
 112 335 l 1,2,-1
 35 335 l 1,3,-1
 35 375 l 1,4,-1
 154 375 l 1,5,-1
 154 40 l 1,6,-1
 228 40 l 1,7,-1
 228 0 l 1,8,-1
 35 0 l 1,9,-1
 35 40 l 1,0,-1
EndSplineSet
EndChar

StartChar: ring
Encoding: 730 730 193
Width: 240
Flags: W
LayerCount: 2
Fore
SplineSet
78 540 m 256,0,1
 78 523 78 523 90.5 510 c 128,-1,2
 103 497 103 497 120 497 c 256,3,4
 137 497 137 497 150 510 c 128,-1,5
 163 523 163 523 163 540 c 256,6,7
 163 557 163 557 150 569.5 c 128,-1,8
 137 582 137 582 120 582 c 256,9,10
 103 582 103 582 90.5 569.5 c 128,-1,11
 78 557 78 557 78 540 c 256,0,1
47 540 m 256,12,13
 47 570 47 570 68.5 591.5 c 128,-1,14
 90 613 90 613 120 613 c 256,15,16
 150 613 150 613 171.5 591.5 c 128,-1,17
 193 570 193 570 193 540 c 256,18,19
 193 510 193 510 171.5 488.5 c 128,-1,20
 150 467 150 467 120 467 c 256,21,22
 90 467 90 467 68.5 488.5 c 128,-1,23
 47 510 47 510 47 540 c 256,12,13
EndSplineSet
EndChar

StartChar: endash
Encoding: 8211 8211 194
Width: 509
Flags: W
LayerCount: 2
Fore
SplineSet
100 177 m 1,0,-1
 100 218 l 1,1,-1
 401 218 l 1,2,-1
 401 177 l 1,3,-1
 100 177 l 1,0,-1
EndSplineSet
EndChar

StartChar: emdash
Encoding: 8212 8212 195
Width: 700
Flags: W
LayerCount: 2
Fore
SplineSet
99 177 m 1,0,-1
 99 218 l 1,1,-1
 601 218 l 1,2,-1
 601 177 l 1,3,-1
 99 177 l 1,0,-1
EndSplineSet
EndChar

StartChar: quoteleft
Encoding: 8216 8216 196
Width: 164
Flags: W
LayerCount: 2
Fore
SplineSet
102 590 m 1,0,-1
 82 570 l 1,1,2
 53 596 53 596 40.5 633 c 128,-1,3
 28 670 28 670 36 711 c 1,4,5
 44 709 44 709 52.5 707.5 c 128,-1,6
 61 706 61 706 69 704 c 1,7,8
 62 669 62 669 71.5 639.5 c 128,-1,9
 81 610 81 610 102 590 c 1,0,-1
EndSplineSet
EndChar

StartChar: quoteright
Encoding: 8217 8217 197
Width: 164
Flags: W
LayerCount: 2
Fore
SplineSet
69 570 m 1,0,-1
 49 590 l 1,1,2
 70 610 70 610 79.5 639.5 c 128,-1,3
 89 669 89 669 82 704 c 1,4,5
 90 706 90 706 98.5 707.5 c 128,-1,6
 107 709 107 709 115 711 c 1,7,8
 123 670 123 670 110.5 633 c 128,-1,9
 98 596 98 596 69 570 c 1,0,-1
EndSplineSet
EndChar

StartChar: quotesinglbase
Encoding: 8218 8218 198
Width: 146
Flags: W
LayerCount: 2
Fore
SplineSet
40 -49 m 1,0,1
 29 -40 29 -40 20 -29 c 1,2,3
 41 -9 41 -9 50.5 20.5 c 128,-1,4
 60 50 60 50 53 85 c 1,5,6
 61 87 61 87 69 88.5 c 128,-1,7
 77 90 77 90 85 92 c 1,8,9
 93 51 93 51 81 14 c 128,-1,10
 69 -23 69 -23 40 -49 c 1,0,1
EndSplineSet
EndChar

StartChar: quotedblleft
Encoding: 8220 8220 199
Width: 249
Flags: W
LayerCount: 2
Fore
SplineSet
200 590 m 1,0,1
 195 585 195 585 190 580 c 128,-1,2
 185 575 185 575 180 570 c 1,3,4
 151 596 151 596 139 633 c 128,-1,5
 127 670 127 670 135 711 c 1,6,7
 143 709 143 709 151 707.5 c 128,-1,8
 159 706 159 706 167 704 c 1,9,10
 160 669 160 669 169.5 639.5 c 128,-1,11
 179 610 179 610 200 590 c 1,0,1
96 590 m 1,12,13
 91 585 91 585 86 580 c 128,-1,14
 81 575 81 575 76 570 c 1,15,16
 47 596 47 596 35 633 c 128,-1,17
 23 670 23 670 31 711 c 1,18,19
 39 709 39 709 47 707.5 c 128,-1,20
 55 706 55 706 63 704 c 1,21,22
 56 669 56 669 65.5 639.5 c 128,-1,23
 75 610 75 610 96 590 c 1,12,13
EndSplineSet
EndChar

StartChar: quotedblright
Encoding: 8221 8221 200
Width: 248
Flags: W
LayerCount: 2
Fore
SplineSet
51 570 m 1,0,1
 46 575 46 575 41 580 c 128,-1,2
 36 585 36 585 31 590 c 1,3,4
 52 610 52 610 61.5 639.5 c 128,-1,5
 71 669 71 669 64 704 c 1,6,7
 72 706 72 706 80 707.5 c 128,-1,8
 88 709 88 709 96 711 c 1,9,10
 104 670 104 670 92 633 c 128,-1,11
 80 596 80 596 51 570 c 1,0,1
155 570 m 1,12,13
 150 575 150 575 145 580 c 128,-1,14
 140 585 140 585 135 590 c 1,15,16
 156 610 156 610 165.5 639.5 c 128,-1,17
 175 669 175 669 168 704 c 1,18,19
 176 706 176 706 184 707.5 c 128,-1,20
 192 709 192 709 200 711 c 1,21,22
 208 670 208 670 196 633 c 128,-1,23
 184 596 184 596 155 570 c 1,12,13
EndSplineSet
EndChar

StartChar: quotedblbase
Encoding: 8222 8222 201
Width: 277
Flags: W
LayerCount: 2
Fore
SplineSet
40 -49 m 1,0,1
 29 -40 29 -40 20 -29 c 1,2,3
 41 -9 41 -9 50.5 20.5 c 128,-1,4
 60 50 60 50 53 85 c 1,5,6
 61 87 61 87 69 88.5 c 128,-1,7
 77 90 77 90 85 92 c 1,8,9
 93 51 93 51 81 14 c 128,-1,10
 69 -23 69 -23 40 -49 c 1,0,1
144 -49 m 1,11,12
 133 -40 133 -40 124 -29 c 1,13,14
 145 -9 145 -9 154.5 20.5 c 128,-1,15
 164 50 164 50 157 85 c 1,16,17
 165 87 165 87 173 88.5 c 128,-1,18
 181 90 181 90 189 92 c 1,19,20
 197 51 197 51 185 14 c 128,-1,21
 173 -23 173 -23 144 -49 c 1,11,12
EndSplineSet
EndChar

StartChar: bullet
Encoding: 8226 8226 202
Width: 479
Flags: W
LayerCount: 2
Fore
SplineSet
150 300 m 0,0,1
 150 319 150 319 157 335.5 c 128,-1,2
 164 352 164 352 176 364.5 c 128,-1,3
 188 377 188 377 204 384 c 128,-1,4
 220 391 220 391 239 391 c 0,5,6
 277 391 277 391 303.5 364.5 c 128,-1,7
 330 338 330 338 330 300 c 0,8,9
 330 281 330 281 323 265 c 128,-1,10
 316 249 316 249 303.5 237 c 128,-1,11
 291 225 291 225 274.5 218 c 128,-1,12
 258 211 258 211 239 211 c 0,13,14
 201 211 201 211 175.5 236.5 c 128,-1,15
 150 262 150 262 150 300 c 0,0,1
EndSplineSet
EndChar

StartChar: guilsinglleft
Encoding: 8249 8249 203
Width: 392
Flags: W
LayerCount: 2
Fore
SplineSet
288 77 m 1,0,-1
 117 239 l 1,1,2
 160 280 160 280 202.5 319.5 c 128,-1,3
 245 359 245 359 288 400 c 1,4,-1
 288 352 l 1,5,6
 260 323 260 323 232.5 295.5 c 128,-1,7
 205 268 205 268 177 239 c 1,8,-1
 288 125 l 1,9,-1
 288 77 l 1,0,-1
EndSplineSet
EndChar

StartChar: guilsinglright
Encoding: 8250 8250 204
Width: 392
Flags: W
LayerCount: 2
Fore
SplineSet
117 125 m 1,0,-1
 228 239 l 1,1,2
 200 268 200 268 172.5 295.5 c 128,-1,3
 145 323 145 323 117 352 c 1,4,-1
 117 400 l 1,5,6
 160 359 160 359 202.5 319.5 c 128,-1,7
 245 280 245 280 288 239 c 1,8,-1
 117 77 l 1,9,-1
 117 125 l 1,0,-1
EndSplineSet
EndChar
